{"glyphs":{"0":{"ha":849,"x_min":58,"x_max":807,"o":"m 397 -12 q 146 72 233 -12 q 58 306 58 157 q 68 411 58 358 q 202 630 96 553 q 476 707 308 707 q 722 626 636 707 q 807 401 807 544 q 796 297 807 356 q 664 68 768 149 q 397 -12 560 -12 m 415 96 q 481 135 451 96 q 524 239 511 174 q 540 403 540 331 q 515 546 540 494 q 442 597 489 597 q 376 556 406 597 q 335 447 346 515 q 319 292 319 356 q 344 148 319 200 q 415 96 369 96 z "},"1":{"ha":622,"x_min":36,"x_max":603,"o":"m 36 -4 q 44 56 39 31 q 60 104 49 81 q 113 120 96 110 q 141 158 131 131 q 163 246 151 185 l 200 451 q 208 524 208 497 q 192 570 208 557 q 132 590 176 583 q 126 649 126 624 q 131 699 126 674 q 364 694 199 694 q 603 699 521 694 q 583 590 603 643 q 526 574 543 586 q 498 531 508 561 q 474 424 488 501 l 440 250 q 429 169 429 194 q 446 123 429 135 q 506 104 463 111 q 511 40 511 60 q 508 -4 511 26 q 276 0 428 0 q 36 -4 131 0 z "},"2":{"ha":731,"x_min":28,"x_max":675,"o":"m 414 703 q 257 686 333 703 q 125 636 181 669 q 99 449 122 531 q 253 422 156 419 q 272 531 261 494 q 297 583 282 568 q 336 597 311 597 q 385 579 367 597 q 404 526 404 561 q 401 497 404 508 q 357 413 392 450 q 240 314 322 376 q 124 222 167 258 q 29 128 81 185 l 28 107 q 35 46 28 76 q 53 -4 42 15 q 333 0 147 0 q 483 -3 408 0 q 529 -4 504 -4 q 587 8 564 -4 q 622 53 610 21 q 621 94 621 65 q 643 275 621 186 q 596 290 624 285 q 542 296 568 296 q 511 293 531 296 q 488 233 501 249 q 451 217 475 217 q 424 218 435 217 q 364 221 390 221 q 297 218 321 221 q 372 272 340 251 q 471 331 403 292 q 622 431 581 394 q 672 522 664 468 q 675 551 675 542 q 608 663 675 624 q 414 703 542 703 z "},"3":{"ha":713,"x_min":10,"x_max":667,"o":"m 118 636 q 110 540 117 590 q 90 449 103 489 q 165 426 122 433 q 246 422 207 419 q 275 560 257 522 q 331 597 293 597 q 385 573 365 597 q 406 508 406 549 q 401 472 406 492 q 335 365 388 403 q 183 304 282 328 q 179 269 179 288 q 199 192 179 219 q 315 161 274 197 q 357 61 357 125 q 351 15 357 46 q 292 -90 336 -53 q 174 -126 247 -126 q 57 -104 103 -126 q 28 -144 44 -111 q 10 -196 11 -176 q 81 -228 39 -218 q 183 -237 122 -237 q 462 -163 342 -237 q 615 39 582 -89 q 625 113 625 74 q 589 238 625 182 q 485 325 553 293 q 609 403 571 363 q 660 496 647 444 q 667 546 667 526 q 598 662 667 621 q 396 703 529 703 q 247 687 314 703 q 118 636 179 671 z "},"4":{"ha":840,"x_min":11,"x_max":761,"o":"m 761 161 q 713 0 732 100 l 608 0 l 568 -212 q 501 -208 533 -208 q 347 -237 418 -208 q 308 -181 308 -217 q 310 -161 308 -168 l 340 -1 q 44 -7 122 -4 q 15 142 11 58 q 567 703 306 425 q 658 698 617 703 q 739 679 699 693 l 649 207 l 700 207 q 761 161 747 207 m 465 471 q 349 335 411 399 q 196 193 286 272 l 397 193 l 408 246 q 465 471 439 396 z "},"5":{"ha":690,"x_min":-31,"x_max":667,"o":"m 50 286 q 53 236 47 258 q 75 192 60 214 q 253 142 193 178 q 313 42 313 106 q 307 1 313 29 q 122 -125 276 -125 q 15 -108 64 -125 q -31 -206 -19 -146 q 38 -229 -7 -221 q 139 -237 82 -237 q 420 -166 300 -237 q 574 43 540 -94 q 583 115 583 78 q 485 302 583 228 q 193 400 388 376 l 214 474 q 553 476 288 476 q 625 518 608 476 q 667 761 639 667 q 576 775 631 775 q 528 771 549 775 q 500 715 521 735 q 447 694 479 694 q 174 699 279 694 l 50 286 z "},"6":{"ha":838,"x_min":60,"x_max":778,"o":"m 540 549 q 715 490 651 549 q 778 332 778 432 q 771 265 778 304 q 640 60 744 132 q 369 -12 536 -12 q 139 63 218 -12 q 60 279 60 138 q 74 404 60 331 q 290 745 117 619 q 743 886 464 871 q 754 840 754 868 q 746 785 754 814 q 513 690 610 758 q 367 519 415 621 q 540 549 458 549 m 499 235 q 506 300 506 274 q 478 399 506 363 q 403 436 451 436 q 336 426 367 436 l 332 408 q 314 243 314 317 q 331 140 314 175 q 383 104 349 104 q 456 138 426 104 q 499 235 486 172 z "},"7":{"ha":682,"x_min":85,"x_max":688,"o":"m 657 699 q 680 643 672 674 q 685 585 688 613 q 509 344 561 428 q 424 179 457 261 q 392 49 403 125 q 381 -149 381 -28 q 269 -183 325 -160 q 172 -236 214 -207 q 132 -201 147 -226 q 117 -140 117 -175 q 138 -28 117 -89 q 236 153 158 32 q 475 474 314 274 l 347 474 q 269 455 297 474 q 231 394 242 436 q 85 421 142 393 q 139 699 125 561 q 403 694 218 694 q 657 699 583 694 z "},"8":{"ha":813,"x_min":40,"x_max":792,"o":"m 788 683 q 731 582 775 625 q 606 504 688 539 q 743 269 743 401 q 733 197 743 235 q 364 -12 676 -12 q 126 36 211 -12 q 40 182 40 85 q 49 242 40 211 q 115 366 67 315 q 246 456 164 417 q 151 638 151 542 q 160 696 151 667 q 275 838 186 790 q 507 885 364 885 q 719 842 646 885 q 792 722 792 799 q 788 683 792 704 m 415 731 q 411 699 411 714 q 494 576 411 632 q 538 637 524 604 q 553 714 553 669 q 489 790 553 790 q 443 774 463 790 q 415 731 424 758 m 467 181 q 471 221 471 204 q 445 296 471 264 q 357 374 419 328 q 315 272 326 333 q 310 214 310 246 q 330 129 310 163 q 386 96 350 96 q 438 118 417 96 q 467 181 458 140 z "},"9":{"ha":832,"x_min":35,"x_max":783,"o":"m 488 703 q 704 628 625 703 q 783 413 783 554 q 772 300 783 354 q 644 31 742 146 q 394 -153 547 -85 q 46 -235 242 -221 q 35 -186 35 -217 q 43 -133 35 -162 q 308 -26 208 -100 q 460 157 408 49 q 300 128 386 128 q 131 187 192 128 q 71 353 71 246 q 79 435 71 392 q 210 631 104 560 q 488 703 315 703 m 515 331 q 529 461 529 406 q 458 586 529 586 q 388 550 417 586 q 347 460 358 514 q 339 378 339 417 q 364 277 339 314 q 440 240 389 240 q 496 250 471 240 q 515 331 503 274 z "},"\r":{"ha":278,"x_min":0,"x_max":0,"o":""}," ":{"ha":278,"x_min":0,"x_max":0,"o":""},"A":{"ha":986,"x_min":-50,"x_max":919,"o":"m 914 104 q 919 49 919 76 q 915 -4 919 24 q 694 0 860 0 q 449 -4 503 0 q 468 104 450 61 q 528 126 511 111 q 546 168 546 142 q 540 210 546 189 q 535 231 538 224 q 217 217 354 231 l 213 211 q 196 160 196 185 q 210 123 196 138 q 251 104 224 108 q 254 56 254 74 q 249 -4 254 24 q 78 0 203 0 q -50 -4 -6 0 q -29 104 -49 57 q 34 138 6 111 q 113 244 63 165 q 528 939 215 403 q 579 946 553 944 q 635 947 606 947 q 745 578 694 760 q 825 271 796 396 q 854 165 842 200 q 880 119 867 131 q 914 104 893 107 m 513 321 q 467 489 490 413 q 442 631 450 543 q 390 528 421 585 l 372 492 q 278 321 342 435 l 513 321 z "},"Á":{"ha":986,"x_min":-50,"x_max":919,"o":"m 914 104 q 919 49 919 76 q 915 -4 919 24 q 694 0 860 0 q 449 -4 503 0 q 468 104 450 61 q 528 126 511 111 q 546 168 546 142 q 540 210 546 189 q 535 231 538 224 q 217 217 354 231 l 213 211 q 196 160 196 185 q 210 123 196 138 q 251 104 224 108 q 254 56 254 74 q 249 -4 254 24 q 78 0 203 0 q -50 -4 -6 0 q -29 104 -49 57 q 34 138 6 111 q 113 244 63 165 q 528 939 215 403 q 579 946 553 944 q 635 947 606 947 q 745 578 694 760 q 825 271 796 396 q 854 165 842 200 q 880 119 867 131 q 914 104 893 107 m 513 321 q 467 489 490 413 q 442 631 450 543 q 390 528 421 585 l 372 492 q 278 321 342 435 l 513 321 m 608 1017 q 475 1065 533 1026 q 535 1147 506 1097 q 578 1228 565 1196 q 640 1231 619 1231 q 739 1224 693 1231 q 813 1204 785 1217 q 608 1017 658 1065 z "},"Ă":{"ha":986,"x_min":-50,"x_max":919,"o":"m 914 104 q 919 49 919 76 q 915 -4 919 24 q 694 0 860 0 q 449 -4 503 0 q 468 104 450 61 q 528 126 511 111 q 546 168 546 142 q 540 210 546 189 q 535 231 538 224 q 217 217 354 231 l 213 211 q 196 160 196 185 q 210 123 196 138 q 251 104 224 108 q 254 56 254 74 q 249 -4 254 24 q 78 0 203 0 q -50 -4 -6 0 q -29 104 -49 57 q 34 138 6 111 q 113 244 63 165 q 528 939 215 403 q 579 946 553 944 q 635 947 606 947 q 745 578 694 760 q 825 271 796 396 q 854 165 842 200 q 880 119 867 131 q 914 104 893 107 m 513 321 q 467 489 490 413 q 442 631 450 543 q 390 528 421 585 l 372 492 q 278 321 342 435 l 513 321 m 578 1003 q 325 1167 325 1003 q 329 1210 325 1188 q 431 1226 372 1226 q 479 1222 456 1226 q 619 1143 479 1143 q 781 1222 758 1143 q 831 1228 803 1228 q 906 1214 871 1228 q 804 1056 888 1108 q 578 1003 721 1003 z "},"Ắ":{"ha":986,"x_min":-50,"x_max":919,"o":"m 914 104 q 919 49 919 76 q 915 -4 919 24 q 694 0 860 0 q 449 -4 503 0 q 468 104 450 61 q 528 126 511 111 q 546 168 546 142 q 540 210 546 189 q 535 231 538 224 q 217 217 354 231 l 213 211 q 196 160 196 185 q 210 123 196 138 q 251 104 224 108 q 254 56 254 74 q 249 -4 254 24 q 78 0 203 0 q -50 -4 -6 0 q -29 104 -49 57 q 34 138 6 111 q 113 244 63 165 q 528 939 215 403 q 579 946 553 944 q 635 947 606 947 q 745 578 694 760 q 825 271 796 396 q 854 165 842 200 q 880 119 867 131 q 914 104 893 107 m 513 321 q 467 489 490 413 q 442 631 450 543 q 390 528 421 585 l 372 492 q 278 321 342 435 l 513 321 z "},"Ặ":{"ha":986,"x_min":-50,"x_max":919,"o":"m 914 104 q 919 49 919 76 q 915 -4 919 24 q 694 0 860 0 q 449 -4 503 0 q 468 104 450 61 q 528 126 511 111 q 546 168 546 142 q 540 210 546 189 q 535 231 538 224 q 217 217 354 231 l 213 211 q 196 160 196 185 q 210 123 196 138 q 251 104 224 108 q 254 56 254 74 q 249 -4 254 24 q 78 0 203 0 q -50 -4 -6 0 q -29 104 -49 57 q 34 138 6 111 q 113 244 63 165 q 528 939 215 403 q 579 946 553 944 q 635 947 606 947 q 745 578 694 760 q 825 271 796 396 q 854 165 842 200 q 880 119 867 131 q 914 104 893 107 m 513 321 q 467 489 490 413 q 442 631 450 543 q 390 528 421 585 l 372 492 q 278 321 342 435 l 513 321 m 293 -343 q 193 -314 228 -343 q 158 -236 158 -285 q 161 -210 158 -229 q 216 -122 172 -151 q 324 -93 260 -93 q 424 -123 390 -93 q 457 -203 457 -153 q 411 -308 457 -272 q 293 -343 365 -343 m 578 1003 q 325 1167 325 1003 q 329 1210 325 1188 q 431 1226 372 1226 q 479 1222 456 1226 q 619 1143 479 1143 q 781 1222 758 1143 q 831 1228 803 1228 q 906 1214 871 1228 q 804 1056 888 1108 q 578 1003 721 1003 z "},"Ằ":{"ha":986,"x_min":-50,"x_max":919,"o":"m 914 104 q 919 49 919 76 q 915 -4 919 24 q 694 0 860 0 q 449 -4 503 0 q 468 104 450 61 q 528 126 511 111 q 546 168 546 142 q 540 210 546 189 q 535 231 538 224 q 217 217 354 231 l 213 211 q 196 160 196 185 q 210 123 196 138 q 251 104 224 108 q 254 56 254 74 q 249 -4 254 24 q 78 0 203 0 q -50 -4 -6 0 q -29 104 -49 57 q 34 138 6 111 q 113 244 63 165 q 528 939 215 403 q 579 946 553 944 q 635 947 606 947 q 745 578 694 760 q 825 271 796 396 q 854 165 842 200 q 880 119 867 131 q 914 104 893 107 m 513 321 q 467 489 490 413 q 442 631 450 543 q 390 528 421 585 l 372 492 q 278 321 342 435 l 513 321 z "},"Ẳ":{"ha":986,"x_min":-50,"x_max":919,"o":"m 914 104 q 919 49 919 76 q 915 -4 919 24 q 694 0 860 0 q 449 -4 503 0 q 468 104 450 61 q 528 126 511 111 q 546 168 546 142 q 540 210 546 189 q 535 231 538 224 q 217 217 354 231 l 213 211 q 196 160 196 185 q 210 123 196 138 q 251 104 224 108 q 254 56 254 74 q 249 -4 254 24 q 78 0 203 0 q -50 -4 -6 0 q -29 104 -49 57 q 34 138 6 111 q 113 244 63 165 q 528 939 215 403 q 579 946 553 944 q 635 947 606 947 q 745 578 694 760 q 825 271 796 396 q 854 165 842 200 q 880 119 867 131 q 914 104 893 107 m 513 321 q 467 489 490 413 q 442 631 450 543 q 390 528 421 585 l 372 492 q 278 321 342 435 l 513 321 z "},"Ẵ":{"ha":986,"x_min":-50,"x_max":954,"o":"m 914 104 q 919 49 919 76 q 915 -4 919 24 q 694 0 860 0 q 449 -4 503 0 q 468 104 450 61 q 528 126 511 111 q 546 168 546 142 q 540 210 546 189 q 535 231 538 224 q 217 217 354 231 l 213 211 q 196 160 196 185 q 210 123 196 138 q 251 104 224 108 q 254 56 254 74 q 249 -4 254 24 q 78 0 203 0 q -50 -4 -6 0 q -29 104 -49 57 q 34 138 6 111 q 113 244 63 165 q 528 939 215 403 q 579 946 553 944 q 635 947 606 947 q 745 578 694 760 q 825 271 796 396 q 854 165 842 200 q 880 119 867 131 q 914 104 893 107 m 513 321 q 467 489 490 413 q 442 631 450 543 q 390 528 421 585 l 372 492 q 278 321 342 435 l 513 321 m 578 1003 q 325 1167 325 1003 q 329 1210 325 1188 q 431 1226 372 1226 q 479 1222 456 1226 q 619 1143 479 1143 q 781 1222 758 1143 q 831 1228 803 1228 q 906 1214 871 1228 q 804 1056 888 1108 q 578 1003 721 1003 m 714 1268 q 652 1278 675 1268 q 600 1307 629 1288 q 567 1328 582 1321 q 531 1336 551 1336 q 469 1318 499 1336 q 407 1269 439 1300 q 381 1319 389 1296 q 372 1371 372 1342 q 374 1396 372 1386 q 477 1460 419 1440 q 585 1481 535 1481 q 647 1471 621 1481 q 701 1443 672 1461 q 742 1423 726 1429 q 775 1417 757 1417 q 830 1435 804 1417 q 874 1479 856 1453 q 954 1407 931 1454 q 845 1303 907 1339 q 714 1268 783 1268 z "},"Ǎ":{"ha":986,"x_min":-50,"x_max":919,"o":"m 914 104 q 919 49 919 76 q 915 -4 919 24 q 694 0 860 0 q 449 -4 503 0 q 468 104 450 61 q 528 126 511 111 q 546 168 546 142 q 540 210 546 189 q 535 231 538 224 q 217 217 354 231 l 213 211 q 196 160 196 185 q 210 123 196 138 q 251 104 224 108 q 254 56 254 74 q 249 -4 254 24 q 78 0 203 0 q -50 -4 -6 0 q -29 104 -49 57 q 34 138 6 111 q 113 244 63 165 q 528 939 215 403 q 579 946 553 944 q 635 947 606 947 q 745 578 694 760 q 825 271 796 396 q 854 165 842 200 q 880 119 867 131 q 914 104 893 107 m 513 321 q 467 489 490 413 q 442 631 450 543 q 390 528 421 585 l 372 492 q 278 321 342 435 l 513 321 m 529 1008 q 446 1083 490 1049 q 342 1161 401 1118 q 450 1242 371 1238 q 622 1169 522 1201 q 711 1197 664 1176 q 815 1249 758 1218 q 861 1217 840 1240 q 893 1164 882 1193 q 654 1025 747 1083 q 564 1007 618 1007 q 529 1008 540 1007 z "},"Â":{"ha":986,"x_min":-50,"x_max":919,"o":"m 914 104 q 919 49 919 76 q 915 -4 919 24 q 694 0 860 0 q 449 -4 503 0 q 468 104 450 61 q 528 126 511 111 q 546 168 546 142 q 540 210 546 189 q 535 231 538 224 q 217 217 354 231 l 213 211 q 196 160 196 185 q 210 123 196 138 q 251 104 224 108 q 254 56 254 74 q 249 -4 254 24 q 78 0 203 0 q -50 -4 -6 0 q -29 104 -49 57 q 34 138 6 111 q 113 244 63 165 q 528 939 215 403 q 579 946 553 944 q 635 947 606 947 q 745 578 694 760 q 825 271 796 396 q 854 165 842 200 q 880 119 867 131 q 914 104 893 107 m 513 321 q 467 489 490 413 q 442 631 450 543 q 390 528 421 585 l 372 492 q 278 321 342 435 l 513 321 m 415 999 q 360 1036 383 1008 q 331 1090 336 1064 q 459 1156 389 1114 q 586 1242 529 1199 q 628 1244 611 1244 q 706 1233 674 1244 q 903 1049 758 1179 q 782 1014 867 1017 q 611 1093 685 1072 q 482 1032 574 1079 q 415 999 432 1006 z "},"Ấ":{"ha":986,"x_min":-50,"x_max":1085,"o":"m 914 104 q 919 49 919 76 q 915 -4 919 24 q 694 0 860 0 q 449 -4 503 0 q 468 104 450 61 q 528 126 511 111 q 546 168 546 142 q 540 210 546 189 q 535 231 538 224 q 217 217 354 231 l 213 211 q 196 160 196 185 q 210 123 196 138 q 251 104 224 108 q 254 56 254 74 q 249 -4 254 24 q 78 0 203 0 q -50 -4 -6 0 q -29 104 -49 57 q 34 138 6 111 q 113 244 63 165 q 528 939 215 403 q 579 946 553 944 q 635 947 606 947 q 745 578 694 760 q 825 271 796 396 q 854 165 842 200 q 880 119 867 131 q 914 104 893 107 m 513 321 q 467 489 490 413 q 442 631 450 543 q 390 528 421 585 l 372 492 q 278 321 342 435 l 513 321 m 901 1197 q 781 1240 836 1204 q 835 1315 808 1269 q 874 1388 863 1360 q 928 1390 910 1390 q 1017 1383 975 1390 q 1085 1365 1060 1376 q 901 1197 944 1240 m 415 999 q 360 1036 383 1008 q 331 1090 336 1064 q 459 1156 389 1114 q 586 1242 529 1199 q 628 1244 611 1244 q 706 1233 674 1244 q 903 1049 758 1179 q 782 1014 867 1017 q 611 1093 685 1072 q 482 1032 574 1079 q 415 999 432 1006 z "},"Ậ":{"ha":986,"x_min":-50,"x_max":919,"o":"m 914 104 q 919 49 919 76 q 915 -4 919 24 q 694 0 860 0 q 449 -4 503 0 q 468 104 450 61 q 528 126 511 111 q 546 168 546 142 q 540 210 546 189 q 535 231 538 224 q 217 217 354 231 l 213 211 q 196 160 196 185 q 210 123 196 138 q 251 104 224 108 q 254 56 254 74 q 249 -4 254 24 q 78 0 203 0 q -50 -4 -6 0 q -29 104 -49 57 q 34 138 6 111 q 113 244 63 165 q 528 939 215 403 q 579 946 553 944 q 635 947 606 947 q 745 578 694 760 q 825 271 796 396 q 854 165 842 200 q 880 119 867 131 q 914 104 893 107 m 513 321 q 467 489 490 413 q 442 631 450 543 q 390 528 421 585 l 372 492 q 278 321 342 435 l 513 321 m 293 -343 q 193 -314 228 -343 q 158 -236 158 -285 q 161 -210 158 -229 q 216 -122 172 -151 q 324 -93 260 -93 q 424 -123 390 -93 q 457 -203 457 -153 q 411 -308 457 -272 q 293 -343 365 -343 m 415 999 q 360 1036 383 1008 q 331 1090 336 1064 q 459 1156 389 1114 q 586 1242 529 1199 q 628 1244 611 1244 q 706 1233 674 1244 q 903 1049 758 1179 q 782 1014 867 1017 q 611 1093 685 1072 q 482 1032 574 1079 q 415 999 432 1006 z "},"Ầ":{"ha":986,"x_min":-50,"x_max":971,"o":"m 914 104 q 919 49 919 76 q 915 -4 919 24 q 694 0 860 0 q 449 -4 503 0 q 468 104 450 61 q 528 126 511 111 q 546 168 546 142 q 540 210 546 189 q 535 231 538 224 q 217 217 354 231 l 213 211 q 196 160 196 185 q 210 123 196 138 q 251 104 224 108 q 254 56 254 74 q 249 -4 254 24 q 78 0 203 0 q -50 -4 -6 0 q -29 104 -49 57 q 34 138 6 111 q 113 244 63 165 q 528 939 215 403 q 579 946 553 944 q 635 947 606 947 q 745 578 694 760 q 825 271 796 396 q 854 165 842 200 q 880 119 867 131 q 914 104 893 107 m 513 321 q 467 489 490 413 q 442 631 450 543 q 390 528 421 585 l 372 492 q 278 321 342 435 l 513 321 z "},"Ẩ":{"ha":986,"x_min":-50,"x_max":1033,"o":"m 914 104 q 919 49 919 76 q 915 -4 919 24 q 694 0 860 0 q 449 -4 503 0 q 468 104 450 61 q 528 126 511 111 q 546 168 546 142 q 540 210 546 189 q 535 231 538 224 q 217 217 354 231 l 213 211 q 196 160 196 185 q 210 123 196 138 q 251 104 224 108 q 254 56 254 74 q 249 -4 254 24 q 78 0 203 0 q -50 -4 -6 0 q -29 104 -49 57 q 34 138 6 111 q 113 244 63 165 q 528 939 215 403 q 579 946 553 944 q 635 947 606 947 q 745 578 694 760 q 825 271 796 396 q 854 165 842 200 q 880 119 867 131 q 914 104 893 107 m 513 321 q 467 489 490 413 q 442 631 450 543 q 390 528 421 585 l 372 492 q 278 321 342 435 l 513 321 z "},"Ẫ":{"ha":986,"x_min":-50,"x_max":971,"o":"m 914 104 q 919 49 919 76 q 915 -4 919 24 q 694 0 860 0 q 449 -4 503 0 q 468 104 450 61 q 528 126 511 111 q 546 168 546 142 q 540 210 546 189 q 535 231 538 224 q 217 217 354 231 l 213 211 q 196 160 196 185 q 210 123 196 138 q 251 104 224 108 q 254 56 254 74 q 249 -4 254 24 q 78 0 203 0 q -50 -4 -6 0 q -29 104 -49 57 q 34 138 6 111 q 113 244 63 165 q 528 939 215 403 q 579 946 553 944 q 635 947 606 947 q 745 578 694 760 q 825 271 796 396 q 854 165 842 200 q 880 119 867 131 q 914 104 893 107 m 513 321 q 467 489 490 413 q 442 631 450 543 q 390 528 421 585 l 372 492 q 278 321 342 435 l 513 321 m 415 999 q 360 1036 383 1008 q 331 1090 336 1064 q 459 1156 389 1114 q 586 1242 529 1199 q 628 1244 611 1244 q 706 1233 674 1244 q 903 1049 758 1179 q 782 1014 867 1017 q 611 1093 685 1072 q 482 1032 574 1079 q 415 999 432 1006 m 731 1299 q 669 1308 692 1299 q 617 1338 646 1318 q 583 1359 599 1351 q 547 1367 568 1367 q 485 1349 515 1367 q 424 1300 456 1331 q 397 1349 406 1326 q 389 1401 389 1372 q 390 1426 389 1417 q 494 1491 436 1471 q 601 1511 551 1511 q 663 1501 638 1511 q 718 1474 689 1492 q 758 1453 743 1460 q 792 1447 774 1447 q 847 1465 821 1447 q 890 1510 872 1483 q 971 1438 947 1485 q 862 1334 924 1369 q 731 1299 800 1299 z "},"Ȁ":{"ha":986,"x_min":-50,"x_max":919,"o":"m 914 104 q 919 49 919 76 q 915 -4 919 24 q 694 0 860 0 q 449 -4 503 0 q 468 104 450 61 q 528 126 511 111 q 546 168 546 142 q 540 210 546 189 q 535 231 538 224 q 217 217 354 231 l 213 211 q 196 160 196 185 q 210 123 196 138 q 251 104 224 108 q 254 56 254 74 q 249 -4 254 24 q 78 0 203 0 q -50 -4 -6 0 q -29 104 -49 57 q 34 138 6 111 q 113 244 63 165 q 528 939 215 403 q 579 946 553 944 q 635 947 606 947 q 745 578 694 760 q 825 271 796 396 q 854 165 842 200 q 880 119 867 131 q 914 104 893 107 m 513 321 q 467 489 490 413 q 442 631 450 543 q 390 528 421 585 l 372 492 q 278 321 342 435 l 513 321 m 682 1056 q 603 1178 638 1129 q 715 1192 654 1192 q 786 1186 757 1192 q 853 1006 813 1079 q 774 999 811 999 q 715 1003 746 999 l 682 1056 m 410 1040 q 310 1172 361 1110 q 442 1190 363 1190 q 508 1186 478 1190 q 575 1006 535 1079 q 496 999 533 999 q 438 1003 468 999 l 410 1040 z "},"Ä":{"ha":986,"x_min":-50,"x_max":919,"o":"m 914 104 q 919 49 919 76 q 915 -4 919 24 q 694 0 860 0 q 449 -4 503 0 q 468 104 450 61 q 528 126 511 111 q 546 168 546 142 q 540 210 546 189 q 535 231 538 224 q 217 217 354 231 l 213 211 q 196 160 196 185 q 210 123 196 138 q 251 104 224 108 q 254 56 254 74 q 249 -4 254 24 q 78 0 203 0 q -50 -4 -6 0 q -29 104 -49 57 q 34 138 6 111 q 113 244 63 165 q 528 939 215 403 q 579 946 553 944 q 635 947 606 947 q 745 578 694 760 q 825 271 796 396 q 854 165 842 200 q 880 119 867 131 q 914 104 893 107 m 513 321 q 467 489 490 413 q 442 631 450 543 q 390 528 421 585 l 372 492 q 278 321 342 435 l 513 321 m 454 999 q 360 1032 394 999 q 326 1122 326 1065 q 443 1236 326 1236 q 536 1205 501 1236 q 571 1119 571 1174 q 542 1030 571 1061 q 454 999 513 999 m 783 997 q 687 1030 721 997 q 653 1119 653 1063 q 778 1236 653 1236 q 870 1204 836 1236 q 904 1115 904 1172 q 783 997 904 997 z "},"Ạ":{"ha":986,"x_min":-50,"x_max":919,"o":"m 914 104 q 919 49 919 76 q 915 -4 919 24 q 694 0 860 0 q 449 -4 503 0 q 468 104 450 61 q 528 126 511 111 q 546 168 546 142 q 540 210 546 189 q 535 231 538 224 q 217 217 354 231 l 213 211 q 196 160 196 185 q 210 123 196 138 q 251 104 224 108 q 254 56 254 74 q 249 -4 254 24 q 78 0 203 0 q -50 -4 -6 0 q -29 104 -49 57 q 34 138 6 111 q 113 244 63 165 q 528 939 215 403 q 579 946 553 944 q 635 947 606 947 q 745 578 694 760 q 825 271 796 396 q 854 165 842 200 q 880 119 867 131 q 914 104 893 107 m 513 321 q 467 489 490 413 q 442 631 450 543 q 390 528 421 585 l 372 492 q 278 321 342 435 l 513 321 m 293 -343 q 193 -314 228 -343 q 158 -236 158 -285 q 161 -210 158 -229 q 216 -122 172 -151 q 324 -93 260 -93 q 424 -123 390 -93 q 457 -203 457 -153 q 411 -308 457 -272 q 293 -343 365 -343 z "},"À":{"ha":986,"x_min":-50,"x_max":919,"o":"m 914 104 q 919 49 919 76 q 915 -4 919 24 q 694 0 860 0 q 449 -4 503 0 q 468 104 450 61 q 528 126 511 111 q 546 168 546 142 q 540 210 546 189 q 535 231 538 224 q 217 217 354 231 l 213 211 q 196 160 196 185 q 210 123 196 138 q 251 104 224 108 q 254 56 254 74 q 249 -4 254 24 q 78 0 203 0 q -50 -4 -6 0 q -29 104 -49 57 q 34 138 6 111 q 113 244 63 165 q 528 939 215 403 q 579 946 553 944 q 635 947 606 947 q 745 578 694 760 q 825 271 796 396 q 854 165 842 200 q 880 119 867 131 q 914 104 893 107 m 513 321 q 467 489 490 413 q 442 631 450 543 q 390 528 421 585 l 372 492 q 278 321 342 435 l 513 321 m 689 1028 q 611 1019 658 1019 q 528 1029 558 1019 q 470 1108 510 1060 q 394 1190 431 1157 q 550 1210 475 1210 q 619 1206 583 1210 q 649 1113 631 1163 q 689 1028 668 1064 z "},"Ả":{"ha":986,"x_min":-50,"x_max":919,"o":"m 914 104 q 919 49 919 76 q 915 -4 919 24 q 694 0 860 0 q 449 -4 503 0 q 468 104 450 61 q 528 126 511 111 q 546 168 546 142 q 540 210 546 189 q 535 231 538 224 q 217 217 354 231 l 213 211 q 196 160 196 185 q 210 123 196 138 q 251 104 224 108 q 254 56 254 74 q 249 -4 254 24 q 78 0 203 0 q -50 -4 -6 0 q -29 104 -49 57 q 34 138 6 111 q 113 244 63 165 q 528 939 215 403 q 579 946 553 944 q 635 947 606 947 q 745 578 694 760 q 825 271 796 396 q 854 165 842 200 q 880 119 867 131 q 914 104 893 107 m 513 321 q 467 489 490 413 q 442 631 450 543 q 390 528 421 585 l 372 492 q 278 321 342 435 l 513 321 m 547 1004 q 543 1031 543 1015 q 546 1051 543 1038 q 565 1088 551 1075 q 606 1114 579 1100 q 649 1150 640 1132 q 653 1164 653 1158 q 642 1182 653 1175 q 617 1189 632 1189 q 546 1111 565 1189 q 519 1110 538 1110 q 449 1124 475 1110 q 469 1222 467 1169 q 551 1247 504 1238 q 646 1257 599 1257 q 751 1236 715 1257 q 786 1178 786 1215 q 781 1147 786 1163 q 752 1101 771 1117 q 701 1065 733 1085 q 669 1044 681 1053 q 653 1022 657 1035 q 651 996 647 1007 q 617 993 632 993 q 547 1004 574 993 z "},"Ȃ":{"ha":986,"x_min":-50,"x_max":919,"o":"m 914 104 q 919 49 919 76 q 915 -4 919 24 q 694 0 860 0 q 449 -4 503 0 q 468 104 450 61 q 528 126 511 111 q 546 168 546 142 q 540 210 546 189 q 535 231 538 224 q 217 217 354 231 l 213 211 q 196 160 196 185 q 210 123 196 138 q 251 104 224 108 q 254 56 254 74 q 249 -4 254 24 q 78 0 203 0 q -50 -4 -6 0 q -29 104 -49 57 q 34 138 6 111 q 113 244 63 165 q 528 939 215 403 q 579 946 553 944 q 635 947 606 947 q 745 578 694 760 q 825 271 796 396 q 854 165 842 200 q 880 119 867 131 q 914 104 893 107 m 513 321 q 467 489 490 413 q 442 631 450 543 q 390 528 421 585 l 372 492 q 278 321 342 435 l 513 321 m 651 1219 q 904 1056 904 1219 q 900 1013 904 1036 q 799 996 857 996 q 750 1000 772 996 q 610 1079 750 1079 q 449 1000 471 1079 q 399 994 426 994 q 324 1008 358 994 q 425 1167 342 1114 q 651 1219 508 1219 z "},"Ā":{"ha":986,"x_min":-50,"x_max":919,"o":"m 914 104 q 919 49 919 76 q 915 -4 919 24 q 694 0 860 0 q 449 -4 503 0 q 468 104 450 61 q 528 126 511 111 q 546 168 546 142 q 540 210 546 189 q 535 231 538 224 q 217 217 354 231 l 213 211 q 196 160 196 185 q 210 123 196 138 q 251 104 224 108 q 254 56 254 74 q 249 -4 254 24 q 78 0 203 0 q -50 -4 -6 0 q -29 104 -49 57 q 34 138 6 111 q 113 244 63 165 q 528 939 215 403 q 579 946 553 944 q 635 947 606 947 q 745 578 694 760 q 825 271 796 396 q 854 165 842 200 q 880 119 867 131 q 914 104 893 107 m 513 321 q 467 489 490 413 q 442 631 450 543 q 390 528 421 585 l 372 492 q 278 321 342 435 l 513 321 m 356 1064 q 368 1154 356 1121 l 871 1154 q 858 1074 871 1110 q 356 1064 581 1074 z "},"Ą":{"ha":986,"x_min":-50,"x_max":919,"o":"m 825 -1 q 719 -60 754 -24 q 683 -132 683 -96 q 699 -169 683 -154 q 744 -185 714 -185 q 785 -175 771 -185 q 814 -219 803 -192 q 829 -271 825 -246 q 756 -302 793 -282 q 694 -344 718 -322 q 663 -346 681 -346 q 503 -312 560 -346 q 446 -211 446 -279 q 450 -175 446 -194 q 499 -84 460 -126 q 638 0 539 -42 q 449 -4 507 0 q 468 104 450 61 q 528 126 511 111 q 546 168 546 142 q 540 210 546 189 q 535 231 538 224 q 217 217 354 231 l 213 211 q 196 160 196 185 q 210 123 196 138 q 251 104 224 108 q 254 56 254 74 q 249 -4 254 24 q 78 0 203 0 q -50 -4 -6 0 q -29 104 -49 57 q 34 138 6 111 q 113 244 63 165 q 528 939 215 403 q 579 946 553 944 q 635 947 606 947 q 745 578 694 760 q 825 271 796 396 q 854 165 842 200 q 880 119 867 131 q 914 104 893 107 q 919 49 919 76 q 915 -4 919 24 q 825 -1 871 -1 m 513 321 q 467 489 490 413 q 442 631 450 543 q 390 528 421 585 l 372 492 q 278 321 342 435 l 513 321 z "},"Å":{"ha":986,"x_min":-50,"x_max":919,"o":"m 914 104 q 919 49 919 76 q 915 -4 919 24 q 694 0 860 0 q 449 -4 503 0 q 468 104 450 61 q 528 126 511 111 q 546 168 546 142 q 540 210 546 189 q 535 231 538 224 q 217 217 354 231 l 213 211 q 196 160 196 185 q 210 123 196 138 q 251 104 224 108 q 254 56 254 74 q 249 -4 254 24 q 78 0 203 0 q -50 -4 -6 0 q -29 104 -49 57 q 34 138 6 111 q 113 244 63 165 q 528 939 215 403 q 579 946 553 944 q 635 947 606 947 q 745 578 694 760 q 825 271 796 396 q 854 165 842 200 q 880 119 867 131 q 914 104 893 107 m 513 321 q 467 489 490 413 q 442 631 450 543 q 390 528 421 585 l 372 492 q 278 321 342 435 l 513 321 m 604 990 q 471 1022 517 990 q 425 1106 425 1054 q 428 1132 425 1122 q 494 1217 440 1189 q 629 1244 547 1244 q 761 1216 715 1244 q 807 1135 807 1188 q 804 1107 807 1126 q 740 1020 792 1050 q 604 990 688 990 m 610 1069 q 644 1083 629 1069 q 664 1118 658 1097 q 658 1153 668 1135 q 624 1171 649 1171 q 589 1158 603 1171 q 571 1119 575 1144 q 578 1084 568 1099 q 610 1069 588 1069 z "},"Ǻ":{"ha":986,"x_min":-50,"x_max":919,"o":"m 914 104 q 919 49 919 76 q 915 -4 919 24 q 694 0 860 0 q 449 -4 503 0 q 468 104 450 61 q 528 126 511 111 q 546 168 546 142 q 540 210 546 189 q 535 231 538 224 q 217 217 354 231 l 213 211 q 196 160 196 185 q 210 123 196 138 q 251 104 224 108 q 254 56 254 74 q 249 -4 254 24 q 78 0 203 0 q -50 -4 -6 0 q -29 104 -49 57 q 34 138 6 111 q 113 244 63 165 q 528 939 215 403 q 579 946 553 944 q 635 947 606 947 q 745 578 694 760 q 825 271 796 396 q 854 165 842 200 q 880 119 867 131 q 914 104 893 107 m 513 321 q 467 489 490 413 q 442 631 450 543 q 390 528 421 585 l 372 492 q 278 321 342 435 l 513 321 m 604 990 q 471 1022 517 990 q 425 1106 425 1054 q 428 1132 425 1122 q 494 1217 440 1189 q 629 1244 547 1244 q 761 1216 715 1244 q 807 1135 807 1188 q 804 1107 807 1126 q 740 1020 792 1050 q 604 990 688 990 m 610 1069 q 644 1083 629 1069 q 664 1118 658 1097 q 658 1153 668 1135 q 624 1171 649 1171 q 589 1158 603 1171 q 571 1119 575 1144 q 578 1084 568 1099 q 610 1069 588 1069 m 668 1322 q 535 1371 593 1332 q 595 1452 565 1403 q 638 1533 625 1501 q 700 1536 679 1536 q 799 1529 753 1536 q 872 1510 844 1522 q 668 1322 718 1371 z "},"Ã":{"ha":986,"x_min":-50,"x_max":919,"o":"m 914 104 q 919 49 919 76 q 915 -4 919 24 q 694 0 860 0 q 449 -4 503 0 q 468 104 450 61 q 528 126 511 111 q 546 168 546 142 q 540 210 546 189 q 535 231 538 224 q 217 217 354 231 l 213 211 q 196 160 196 185 q 210 123 196 138 q 251 104 224 108 q 254 56 254 74 q 249 -4 254 24 q 78 0 203 0 q -50 -4 -6 0 q -29 104 -49 57 q 34 138 6 111 q 113 244 63 165 q 528 939 215 403 q 579 946 553 944 q 635 947 606 947 q 745 578 694 760 q 825 271 796 396 q 854 165 842 200 q 880 119 867 131 q 914 104 893 107 m 513 321 q 467 489 490 413 q 442 631 450 543 q 390 528 421 585 l 372 492 q 278 321 342 435 l 513 321 m 671 1021 q 609 1031 632 1021 q 557 1060 586 1040 q 524 1081 539 1074 q 488 1089 508 1089 q 426 1071 456 1089 q 364 1022 396 1053 q 338 1072 346 1049 q 329 1124 329 1094 q 331 1149 329 1139 q 434 1213 376 1193 q 542 1233 492 1233 q 603 1224 578 1233 q 658 1196 629 1214 q 699 1176 683 1182 q 732 1169 714 1169 q 787 1188 761 1169 q 831 1232 813 1206 q 911 1160 888 1207 q 802 1056 864 1092 q 671 1021 740 1021 z "},"Æ":{"ha":1274,"x_min":-50,"x_max":1301,"o":"m 907 835 l 849 489 l 861 489 q 948 510 924 489 q 979 590 972 532 q 1065 599 1019 599 q 1106 597 1092 599 q 1072 418 1086 517 q 1058 265 1060 332 q 939 286 988 268 q 921 367 939 338 q 847 397 903 397 l 833 397 l 810 253 q 801 176 801 206 q 822 118 801 132 q 892 104 842 104 l 911 104 q 1031 149 983 104 q 1111 303 1078 194 q 1185 284 1154 296 q 1246 250 1217 272 q 1186 -4 1201 118 q 818 0 1103 0 q 401 -4 490 0 q 428 106 404 53 q 483 121 465 108 q 512 166 501 133 q 536 274 522 199 l 558 396 q 360 386 431 394 l 247 226 q 204 139 204 165 q 215 116 204 124 q 251 104 226 108 q 254 56 254 74 q 249 -4 254 24 q 78 0 203 0 q -50 -4 -6 0 q -29 104 -49 57 q 40 135 8 111 q 126 231 72 160 q 475 714 224 361 q 497 775 497 744 q 478 816 497 800 q 421 835 460 832 q 414 892 414 863 q 419 943 414 913 q 710 939 556 939 l 713 939 l 910 939 q 1301 943 1182 939 q 1286 760 1286 856 q 1289 690 1286 735 q 1153 674 1225 674 q 1135 762 1149 728 q 1085 815 1121 796 q 985 835 1050 835 l 907 835 m 574 489 l 599 626 q 640 808 617 732 q 432 489 569 686 l 574 489 z "},"Ǽ":{"ha":1274,"x_min":-50,"x_max":1301,"o":"m 907 835 l 849 489 l 861 489 q 948 510 924 489 q 979 590 972 532 q 1065 599 1019 599 q 1106 597 1092 599 q 1072 418 1086 517 q 1058 265 1060 332 q 939 286 988 268 q 921 367 939 338 q 847 397 903 397 l 833 397 l 810 253 q 801 176 801 206 q 822 118 801 132 q 892 104 842 104 l 911 104 q 1031 149 983 104 q 1111 303 1078 194 q 1185 284 1154 296 q 1246 250 1217 272 q 1186 -4 1201 118 q 818 0 1103 0 q 401 -4 490 0 q 428 106 404 53 q 483 121 465 108 q 512 166 501 133 q 536 274 522 199 l 558 396 q 360 386 431 394 l 247 226 q 204 139 204 165 q 215 116 204 124 q 251 104 226 108 q 254 56 254 74 q 249 -4 254 24 q 78 0 203 0 q -50 -4 -6 0 q -29 104 -49 57 q 40 135 8 111 q 126 231 72 160 q 475 714 224 361 q 497 775 497 744 q 478 816 497 800 q 421 835 460 832 q 414 892 414 863 q 419 943 414 913 q 710 939 556 939 l 713 939 l 910 939 q 1301 943 1182 939 q 1286 760 1286 856 q 1289 690 1286 735 q 1153 674 1225 674 q 1135 762 1149 728 q 1085 815 1121 796 q 985 835 1050 835 l 907 835 m 574 489 l 599 626 q 640 808 617 732 q 432 489 569 686 l 574 489 m 838 1017 q 704 1065 763 1026 q 765 1147 735 1097 q 807 1228 794 1196 q 869 1231 849 1231 q 968 1224 922 1231 q 1042 1204 1014 1217 q 838 1017 888 1065 z "},"B":{"ha":989,"x_min":13,"x_max":981,"o":"m 975 699 q 899 577 964 626 q 722 511 833 528 q 895 452 839 506 q 951 307 951 399 q 946 242 951 271 q 813 63 925 125 q 475 0 701 0 q 13 -4 139 0 q 40 104 15 46 q 97 119 79 107 q 124 163 114 131 q 147 274 133 194 l 221 696 q 228 764 228 731 q 211 814 228 800 q 151 835 194 828 q 146 883 146 853 q 150 943 146 914 q 304 939 215 939 l 426 940 q 618 943 546 943 q 897 895 813 943 q 981 751 981 847 q 975 699 981 735 m 701 717 q 704 742 704 733 q 676 810 704 786 q 599 835 647 835 q 559 830 576 835 q 518 814 542 825 l 471 540 l 515 540 q 635 587 585 540 q 701 717 686 633 m 647 282 q 651 324 651 306 q 613 403 651 382 q 492 425 575 425 l 451 425 l 418 233 q 411 171 411 192 q 428 115 411 128 q 479 103 446 103 q 585 152 536 103 q 647 282 633 201 z "},"C":{"ha":851,"x_min":61,"x_max":917,"o":"m 917 878 q 871 663 883 779 q 788 649 838 649 q 739 653 763 649 q 742 707 742 672 q 710 815 742 785 q 617 844 678 844 q 447 740 515 844 q 351 482 378 635 q 340 367 340 418 q 393 185 340 251 q 556 118 446 118 q 761 171 654 118 q 796 75 792 139 q 476 -12 660 -12 q 252 38 346 -12 q 110 178 158 88 q 61 390 61 269 q 71 503 61 449 q 178 747 96 646 q 375 900 260 849 q 614 951 490 951 q 778 935 704 951 q 917 878 853 918 z "},"Ć":{"ha":851,"x_min":61,"x_max":917,"o":"m 917 878 q 871 663 883 779 q 788 649 838 649 q 739 653 763 649 q 742 707 742 672 q 710 815 742 785 q 617 844 678 844 q 447 740 515 844 q 351 482 378 635 q 340 367 340 418 q 393 185 340 251 q 556 118 446 118 q 761 171 654 118 q 796 75 792 139 q 476 -12 660 -12 q 252 38 346 -12 q 110 178 158 88 q 61 390 61 269 q 71 503 61 449 q 178 747 96 646 q 375 900 260 849 q 614 951 490 951 q 778 935 704 951 q 917 878 853 918 m 646 1017 q 513 1065 571 1026 q 573 1147 543 1097 q 615 1228 603 1196 q 678 1231 657 1231 q 776 1224 731 1231 q 850 1204 822 1217 q 646 1017 696 1065 z "},"Č":{"ha":851,"x_min":61,"x_max":931,"o":"m 917 878 q 871 663 883 779 q 788 649 838 649 q 739 653 763 649 q 742 707 742 672 q 710 815 742 785 q 617 844 678 844 q 447 740 515 844 q 351 482 378 635 q 340 367 340 418 q 393 185 340 251 q 556 118 446 118 q 761 171 654 118 q 796 75 792 139 q 476 -12 660 -12 q 252 38 346 -12 q 110 178 158 88 q 61 390 61 269 q 71 503 61 449 q 178 747 96 646 q 375 900 260 849 q 614 951 490 951 q 778 935 704 951 q 917 878 853 918 m 567 1008 q 483 1083 528 1049 q 379 1161 439 1118 q 488 1242 408 1238 q 660 1169 560 1201 q 749 1197 701 1176 q 853 1249 796 1218 q 899 1217 878 1240 q 931 1164 919 1193 q 692 1025 785 1083 q 601 1007 656 1007 q 567 1008 578 1007 z "},"Ç":{"ha":851,"x_min":61,"x_max":917,"o":"m 871 663 q 788 649 838 649 q 739 653 763 649 q 742 707 742 672 q 710 815 742 785 q 617 844 678 844 q 447 740 515 844 q 351 482 378 635 q 340 367 340 418 q 393 185 340 251 q 556 118 446 118 q 761 171 654 118 q 796 75 792 139 q 506 -12 669 -7 l 456 -64 q 535 -171 535 -90 q 465 -296 535 -253 q 263 -336 396 -339 q 258 -307 258 -324 q 264 -265 258 -290 q 347 -253 311 -267 q 386 -215 382 -239 q 388 -203 388 -211 q 367 -165 388 -178 q 314 -153 347 -153 q 301 -87 297 -124 l 385 -6 q 146 124 231 19 q 61 389 61 229 q 71 503 61 449 q 178 747 96 646 q 375 900 260 849 q 614 951 490 951 q 778 935 704 951 q 917 878 853 918 q 871 663 883 779 z "},"Ḉ":{"ha":851,"x_min":61,"x_max":917,"o":"m 850 1204 q 646 1017 696 1065 q 513 1065 571 1026 q 573 1147 543 1097 q 615 1228 603 1196 q 678 1231 657 1231 q 776 1224 731 1231 q 850 1204 822 1217 m 871 663 q 788 649 838 649 q 739 653 763 649 q 742 707 742 672 q 710 815 742 785 q 617 844 678 844 q 447 740 515 844 q 351 482 378 635 q 340 367 340 418 q 393 185 340 251 q 556 118 446 118 q 761 171 654 118 q 796 75 792 139 q 506 -12 669 -7 l 456 -64 q 535 -171 535 -90 q 465 -296 535 -253 q 263 -336 396 -339 q 258 -307 258 -324 q 264 -265 258 -290 q 347 -253 311 -267 q 386 -215 382 -239 q 388 -203 388 -211 q 367 -165 388 -178 q 314 -153 347 -153 q 301 -87 297 -124 l 385 -6 q 146 124 231 19 q 61 389 61 229 q 71 503 61 449 q 178 747 96 646 q 375 900 260 849 q 614 951 490 951 q 778 935 704 951 q 917 878 853 918 q 871 663 883 779 z "},"Ĉ":{"ha":851,"x_min":61,"x_max":940,"o":"m 917 878 q 871 663 883 779 q 788 649 838 649 q 739 653 763 649 q 742 707 742 672 q 710 815 742 785 q 617 844 678 844 q 447 740 515 844 q 351 482 378 635 q 340 367 340 418 q 393 185 340 251 q 556 118 446 118 q 761 171 654 118 q 796 75 792 139 q 476 -12 660 -12 q 252 38 346 -12 q 110 178 158 88 q 61 390 61 269 q 71 503 61 449 q 178 747 96 646 q 375 900 260 849 q 614 951 490 951 q 778 935 704 951 q 917 878 853 918 m 453 999 q 397 1036 421 1008 q 368 1090 374 1064 q 497 1156 426 1114 q 624 1242 567 1199 q 665 1244 649 1244 q 743 1233 711 1244 q 940 1049 796 1179 q 819 1014 904 1017 q 649 1093 722 1072 q 519 1032 611 1079 q 453 999 469 1006 z "},"Ċ":{"ha":851,"x_min":61,"x_max":917,"o":"m 917 878 q 871 663 883 779 q 788 649 838 649 q 739 653 763 649 q 742 707 742 672 q 710 815 742 785 q 617 844 678 844 q 447 740 515 844 q 351 482 378 635 q 340 367 340 418 q 393 185 340 251 q 556 118 446 118 q 761 171 654 118 q 796 75 792 139 q 476 -12 660 -12 q 252 38 346 -12 q 110 178 158 88 q 61 390 61 269 q 71 503 61 449 q 178 747 96 646 q 375 900 260 849 q 614 951 490 951 q 778 935 704 951 q 917 878 853 918 m 631 993 q 538 1023 572 993 q 503 1104 503 1053 q 547 1196 503 1164 q 672 1228 592 1228 q 764 1197 728 1228 q 800 1115 800 1165 q 631 993 800 993 z "},"D":{"ha":1018,"x_min":15,"x_max":1025,"o":"m 585 942 q 908 867 790 942 q 1025 597 1025 792 q 1013 465 1025 539 q 787 92 963 183 q 429 0 611 0 l 425 0 q 15 -4 89 0 q 40 104 18 53 q 96 119 78 107 q 124 165 114 132 q 147 274 135 197 l 219 696 q 228 765 228 740 q 211 817 228 803 q 151 835 194 831 q 146 893 146 874 q 151 943 146 915 q 432 939 247 939 q 494 940 471 939 l 585 942 m 738 496 q 751 635 751 574 q 708 793 751 749 q 589 838 664 838 q 514 821 549 838 l 419 253 q 411 174 411 203 q 430 118 411 132 q 497 104 449 104 q 573 133 529 104 q 663 250 617 163 q 738 496 710 338 z "},"Ǳ":{"ha":1810,"x_min":15,"x_max":1879,"o":"m 585 942 q 908 867 790 942 q 1025 597 1025 792 q 1013 465 1025 539 q 787 92 963 183 q 429 0 611 0 l 425 0 q 15 -4 89 0 q 40 104 18 53 q 96 119 78 107 q 124 165 114 132 q 147 274 135 197 l 219 696 q 228 765 228 740 q 211 817 228 803 q 151 835 194 831 q 146 893 146 874 q 151 943 146 915 q 432 939 247 939 q 494 940 471 939 l 585 942 m 738 496 q 751 635 751 574 q 708 793 751 749 q 589 838 664 838 q 514 821 549 838 l 419 253 q 411 174 411 203 q 430 118 411 132 q 497 104 449 104 q 573 133 529 104 q 663 250 617 163 q 738 496 710 338 m 1850 943 q 1875 833 1879 900 q 1344 104 1599 433 l 1388 104 q 1494 123 1451 104 q 1568 185 1536 142 q 1632 307 1600 228 q 1776 250 1715 294 q 1732 123 1754 196 q 1700 -4 1710 50 q 1343 0 1592 0 q 1026 -4 1111 0 q 999 108 997 42 q 1285 481 1160 313 q 1539 835 1411 649 l 1474 835 q 1395 817 1428 835 q 1335 753 1363 799 q 1276 626 1307 708 q 1129 669 1182 631 q 1176 801 1154 724 q 1208 943 1197 879 q 1531 939 1282 939 q 1850 943 1765 939 z "},"Ǆ":{"ha":1810,"x_min":15,"x_max":1879,"o":"m 585 942 q 908 867 790 942 q 1025 597 1025 792 q 1013 465 1025 539 q 787 92 963 183 q 429 0 611 0 l 425 0 q 15 -4 89 0 q 40 104 18 53 q 96 119 78 107 q 124 165 114 132 q 147 274 135 197 l 219 696 q 228 765 228 740 q 211 817 228 803 q 151 835 194 831 q 146 893 146 874 q 151 943 146 915 q 432 939 247 939 q 494 940 471 939 l 585 942 m 738 496 q 751 635 751 574 q 708 793 751 749 q 589 838 664 838 q 514 821 549 838 l 419 253 q 411 174 411 203 q 430 118 411 132 q 497 104 449 104 q 573 133 529 104 q 663 250 617 163 q 738 496 710 338 m 1850 943 q 1875 833 1879 900 q 1344 104 1599 433 l 1388 104 q 1494 123 1451 104 q 1568 185 1536 142 q 1632 307 1600 228 q 1776 250 1715 294 q 1732 123 1754 196 q 1700 -4 1710 50 q 1343 0 1592 0 q 1026 -4 1111 0 q 999 108 997 42 q 1285 481 1160 313 q 1539 835 1411 649 l 1474 835 q 1395 817 1428 835 q 1335 753 1363 799 q 1276 626 1307 708 q 1129 669 1182 631 q 1176 801 1154 724 q 1208 943 1197 879 q 1531 939 1282 939 q 1850 943 1765 939 m 1465 1008 q 1382 1083 1426 1049 q 1278 1161 1338 1118 q 1386 1242 1307 1238 q 1558 1169 1458 1201 q 1647 1197 1600 1176 q 1751 1249 1694 1218 q 1797 1217 1776 1240 q 1829 1164 1818 1193 q 1590 1025 1683 1083 q 1500 1007 1554 1007 q 1465 1008 1476 1007 z "},"Ð":{"ha":1018,"x_min":15,"x_max":1025,"o":"m 585 942 q 908 867 790 942 q 1025 597 1025 792 q 1013 465 1025 539 q 787 92 963 183 q 429 0 611 0 l 425 0 q 15 -4 89 0 q 40 104 18 53 q 96 119 78 107 q 124 165 114 132 q 147 274 135 197 l 171 410 l 71 408 q 89 535 71 485 l 192 535 l 219 696 q 228 765 228 740 q 211 817 228 803 q 151 835 194 831 q 146 893 146 874 q 151 943 146 915 q 432 939 247 939 q 494 940 471 939 l 585 942 m 738 496 q 751 635 751 574 q 708 793 751 749 q 589 838 664 838 q 514 821 549 838 l 467 535 l 636 535 q 618 411 636 461 q 446 413 568 413 l 419 253 q 411 174 411 203 q 430 118 411 132 q 497 104 449 104 q 573 133 529 104 q 663 250 617 163 q 738 496 710 338 z "},"Ď":{"ha":1018,"x_min":15,"x_max":1025,"o":"m 585 942 q 908 867 790 942 q 1025 597 1025 792 q 1013 465 1025 539 q 787 92 963 183 q 429 0 611 0 l 425 0 q 15 -4 89 0 q 40 104 18 53 q 96 119 78 107 q 124 165 114 132 q 147 274 135 197 l 219 696 q 228 765 228 740 q 211 817 228 803 q 151 835 194 831 q 146 893 146 874 q 151 943 146 915 q 432 939 247 939 q 494 940 471 939 l 585 942 m 738 496 q 751 635 751 574 q 708 793 751 749 q 589 838 664 838 q 514 821 549 838 l 419 253 q 411 174 411 203 q 430 118 411 132 q 497 104 449 104 q 573 133 529 104 q 663 250 617 163 q 738 496 710 338 m 531 1008 q 447 1083 492 1049 q 343 1161 403 1118 q 451 1242 372 1238 q 624 1169 524 1201 q 713 1197 665 1176 q 817 1249 760 1218 q 863 1217 842 1240 q 894 1164 883 1193 q 656 1025 749 1083 q 565 1007 619 1007 q 531 1008 542 1007 z "},"Ḑ":{"ha":1018,"x_min":15,"x_max":1025,"o":"m 585 942 q 908 867 790 942 q 1025 597 1025 792 q 1013 465 1025 539 q 787 92 963 183 q 429 0 611 0 l 425 0 q 15 -4 89 0 q 40 104 18 53 q 96 119 78 107 q 124 165 114 132 q 147 274 135 197 l 219 696 q 228 765 228 740 q 211 817 228 803 q 151 835 194 831 q 146 893 146 874 q 151 943 146 915 q 432 939 247 939 q 494 940 471 939 l 585 942 m 738 496 q 751 635 751 574 q 708 793 751 749 q 589 838 664 838 q 514 821 549 838 l 419 253 q 411 174 411 203 q 430 118 411 132 q 497 104 449 104 q 573 133 529 104 q 663 250 617 163 q 738 496 710 338 m 351 -442 q 272 -392 296 -435 q 333 -336 310 -367 q 357 -279 357 -306 q 337 -245 357 -257 q 274 -228 317 -233 q 317 -94 278 -150 q 499 -51 431 -92 q 544 -79 531 -61 q 558 -131 558 -97 q 556 -168 558 -154 q 351 -442 531 -331 z "},"Đ":{"ha":1018,"x_min":15,"x_max":1025,"o":"m 585 942 q 908 867 790 942 q 1025 597 1025 792 q 1013 465 1025 539 q 787 92 963 183 q 429 0 611 0 l 425 0 q 15 -4 89 0 q 40 104 18 53 q 96 119 78 107 q 124 165 114 132 q 147 274 135 197 l 171 410 l 71 408 q 89 535 71 485 l 192 535 l 219 696 q 228 765 228 740 q 211 817 228 803 q 151 835 194 831 q 146 893 146 874 q 151 943 146 915 q 432 939 247 939 q 494 940 471 939 l 585 942 m 738 496 q 751 635 751 574 q 708 793 751 749 q 589 838 664 838 q 514 821 549 838 l 467 535 l 636 535 q 618 411 636 461 q 446 413 568 413 l 419 253 q 411 174 411 203 q 430 118 411 132 q 497 104 449 104 q 573 133 529 104 q 663 250 617 163 q 738 496 710 338 z "},"Ḍ":{"ha":1018,"x_min":15,"x_max":1025,"o":"m 585 942 q 908 867 790 942 q 1025 597 1025 792 q 1013 465 1025 539 q 787 92 963 183 q 429 0 611 0 l 425 0 q 15 -4 89 0 q 40 104 18 53 q 96 119 78 107 q 124 165 114 132 q 147 274 135 197 l 219 696 q 228 765 228 740 q 211 817 228 803 q 151 835 194 831 q 146 893 146 874 q 151 943 146 915 q 432 939 247 939 q 494 940 471 939 l 585 942 m 738 496 q 751 635 751 574 q 708 793 751 749 q 589 838 664 838 q 514 821 549 838 l 419 253 q 411 174 411 203 q 430 118 411 132 q 497 104 449 104 q 573 133 529 104 q 663 250 617 163 q 738 496 710 338 m 390 -343 q 290 -314 325 -343 q 256 -236 256 -285 q 258 -210 256 -229 q 313 -122 269 -151 q 421 -93 357 -93 q 521 -123 488 -93 q 554 -203 554 -153 q 508 -308 554 -272 q 390 -343 463 -343 z "},"Ḏ":{"ha":1018,"x_min":15,"x_max":1025,"o":"m 585 942 q 908 867 790 942 q 1025 597 1025 792 q 1013 465 1025 539 q 787 92 963 183 q 429 0 611 0 l 425 0 q 15 -4 89 0 q 40 104 18 53 q 96 119 78 107 q 124 165 114 132 q 147 274 135 197 l 219 696 q 228 765 228 740 q 211 817 228 803 q 151 835 194 831 q 146 893 146 874 q 151 943 146 915 q 432 939 247 939 q 494 940 471 939 l 585 942 m 738 496 q 751 635 751 574 q 708 793 751 749 q 589 838 664 838 q 514 821 549 838 l 419 253 q 411 174 411 203 q 430 118 411 132 q 497 104 449 104 q 573 133 529 104 q 663 250 617 163 q 738 496 710 338 m 149 -253 q 161 -162 149 -196 l 664 -162 q 651 -243 664 -207 q 149 -253 374 -243 z "},"ǲ":{"ha":1657,"x_min":15,"x_max":1661,"o":"m 585 942 q 908 867 790 942 q 1025 597 1025 792 q 1013 465 1025 539 q 787 92 963 183 q 429 0 611 0 l 425 0 q 15 -4 89 0 q 40 104 18 53 q 96 119 78 107 q 124 165 114 132 q 147 274 135 197 l 219 696 q 228 765 228 740 q 211 817 228 803 q 151 835 194 831 q 146 893 146 874 q 151 943 146 915 q 432 939 247 939 q 494 940 471 939 l 585 942 m 738 496 q 751 635 751 574 q 708 793 751 749 q 589 838 664 838 q 514 821 549 838 l 419 253 q 411 174 411 203 q 430 118 411 132 q 497 104 449 104 q 573 133 529 104 q 663 250 617 163 q 738 496 710 338 m 1422 201 q 1468 218 1453 201 q 1501 279 1483 235 q 1572 272 1536 279 q 1635 251 1608 264 q 1607 153 1617 213 q 1596 39 1597 93 q 1556 -1 1585 11 q 1463 -12 1528 -12 q 1353 -7 1428 -12 q 1204 0 1249 0 q 1021 -12 1117 0 q 1001 29 1008 6 q 994 76 994 53 q 997 101 994 85 q 1397 428 1257 279 q 1321 435 1354 435 q 1251 416 1275 435 q 1199 335 1226 397 q 1121 345 1160 335 q 1060 375 1082 356 q 1144 636 1128 506 q 1397 644 1228 644 q 1631 636 1544 644 q 1661 536 1661 593 q 1303 192 1519 363 q 1368 206 1338 206 q 1397 203 1383 206 q 1422 201 1410 201 z "},"ǅ":{"ha":1657,"x_min":15,"x_max":1722,"o":"m 585 942 q 908 867 790 942 q 1025 597 1025 792 q 1013 465 1025 539 q 787 92 963 183 q 429 0 611 0 l 425 0 q 15 -4 89 0 q 40 104 18 53 q 96 119 78 107 q 124 165 114 132 q 147 274 135 197 l 219 696 q 228 765 228 740 q 211 817 228 803 q 151 835 194 831 q 146 893 146 874 q 151 943 146 915 q 432 939 247 939 q 494 940 471 939 l 585 942 m 738 496 q 751 635 751 574 q 708 793 751 749 q 589 838 664 838 q 514 821 549 838 l 419 253 q 411 174 411 203 q 430 118 411 132 q 497 104 449 104 q 573 133 529 104 q 663 250 617 163 q 738 496 710 338 m 1422 201 q 1468 218 1453 201 q 1501 279 1483 235 q 1572 272 1536 279 q 1635 251 1608 264 q 1607 153 1617 213 q 1596 39 1597 93 q 1556 -1 1585 11 q 1463 -12 1528 -12 q 1353 -7 1428 -12 q 1204 0 1249 0 q 1021 -12 1117 0 q 1001 29 1008 6 q 994 76 994 53 q 997 101 994 85 q 1397 428 1257 279 q 1321 435 1354 435 q 1251 416 1275 435 q 1199 335 1226 397 q 1121 345 1160 335 q 1060 375 1082 356 q 1144 636 1128 506 q 1397 644 1228 644 q 1631 636 1544 644 q 1661 536 1661 593 q 1303 192 1519 363 q 1368 206 1338 206 q 1397 203 1383 206 q 1422 201 1410 201 m 1349 717 q 1171 925 1278 814 q 1285 1004 1203 996 q 1451 894 1360 938 q 1553 943 1497 913 q 1650 1004 1608 974 q 1694 974 1675 996 q 1722 925 1713 953 q 1475 732 1574 824 q 1386 714 1439 714 q 1349 717 1374 714 z "},"E":{"ha":886,"x_min":14,"x_max":914,"o":"m 519 835 l 468 531 l 476 531 q 564 549 540 531 q 594 624 588 567 q 681 632 635 632 q 721 631 707 632 q 688 451 701 550 q 674 299 675 365 q 554 319 603 301 q 536 398 554 369 q 463 426 518 426 l 451 426 l 422 253 q 414 176 414 206 q 434 118 414 132 q 504 104 454 104 l 524 104 q 643 149 596 104 q 724 303 690 194 q 798 284 767 296 q 858 250 829 272 q 799 -4 814 118 q 431 0 715 0 q 14 -4 103 0 q 40 106 17 53 q 96 121 78 108 q 124 166 114 133 q 149 274 135 199 l 222 696 q 229 761 229 740 q 212 814 229 800 q 150 835 194 828 q 146 889 146 863 q 150 943 146 914 q 526 939 235 939 q 914 943 794 939 q 899 760 899 856 q 901 690 899 735 q 765 674 838 674 q 747 762 761 728 q 698 815 733 796 q 597 835 663 835 l 519 835 z "},"É":{"ha":886,"x_min":14,"x_max":914,"o":"m 519 835 l 468 531 l 476 531 q 564 549 540 531 q 594 624 588 567 q 681 632 635 632 q 721 631 707 632 q 688 451 701 550 q 674 299 675 365 q 554 319 603 301 q 536 398 554 369 q 463 426 518 426 l 451 426 l 422 253 q 414 176 414 206 q 434 118 414 132 q 504 104 454 104 l 524 104 q 643 149 596 104 q 724 303 690 194 q 798 284 767 296 q 858 250 829 272 q 799 -4 814 118 q 431 0 715 0 q 14 -4 103 0 q 40 106 17 53 q 96 121 78 108 q 124 166 114 133 q 149 274 135 199 l 222 696 q 229 761 229 740 q 212 814 229 800 q 150 835 194 828 q 146 889 146 863 q 150 943 146 914 q 526 939 235 939 q 914 943 794 939 q 899 760 899 856 q 901 690 899 735 q 765 674 838 674 q 747 762 761 728 q 698 815 733 796 q 597 835 663 835 l 519 835 m 558 1017 q 425 1065 483 1026 q 485 1147 456 1097 q 528 1228 515 1196 q 590 1231 569 1231 q 689 1224 643 1231 q 763 1204 735 1217 q 558 1017 608 1065 z "},"Ĕ":{"ha":886,"x_min":14,"x_max":914,"o":"m 519 835 l 468 531 l 476 531 q 564 549 540 531 q 594 624 588 567 q 681 632 635 632 q 721 631 707 632 q 688 451 701 550 q 674 299 675 365 q 554 319 603 301 q 536 398 554 369 q 463 426 518 426 l 451 426 l 422 253 q 414 176 414 206 q 434 118 414 132 q 504 104 454 104 l 524 104 q 643 149 596 104 q 724 303 690 194 q 798 284 767 296 q 858 250 829 272 q 799 -4 814 118 q 431 0 715 0 q 14 -4 103 0 q 40 106 17 53 q 96 121 78 108 q 124 166 114 133 q 149 274 135 199 l 222 696 q 229 761 229 740 q 212 814 229 800 q 150 835 194 828 q 146 889 146 863 q 150 943 146 914 q 526 939 235 939 q 914 943 794 939 q 899 760 899 856 q 901 690 899 735 q 765 674 838 674 q 747 762 761 728 q 698 815 733 796 q 597 835 663 835 l 519 835 m 528 1003 q 275 1167 275 1003 q 279 1210 275 1188 q 381 1226 322 1226 q 429 1222 406 1226 q 569 1143 429 1143 q 731 1222 708 1143 q 781 1228 753 1228 q 856 1214 821 1228 q 754 1056 838 1108 q 528 1003 671 1003 z "},"Ě":{"ha":886,"x_min":14,"x_max":914,"o":"m 519 835 l 468 531 l 476 531 q 564 549 540 531 q 594 624 588 567 q 681 632 635 632 q 721 631 707 632 q 688 451 701 550 q 674 299 675 365 q 554 319 603 301 q 536 398 554 369 q 463 426 518 426 l 451 426 l 422 253 q 414 176 414 206 q 434 118 414 132 q 504 104 454 104 l 524 104 q 643 149 596 104 q 724 303 690 194 q 798 284 767 296 q 858 250 829 272 q 799 -4 814 118 q 431 0 715 0 q 14 -4 103 0 q 40 106 17 53 q 96 121 78 108 q 124 166 114 133 q 149 274 135 199 l 222 696 q 229 761 229 740 q 212 814 229 800 q 150 835 194 828 q 146 889 146 863 q 150 943 146 914 q 526 939 235 939 q 914 943 794 939 q 899 760 899 856 q 901 690 899 735 q 765 674 838 674 q 747 762 761 728 q 698 815 733 796 q 597 835 663 835 l 519 835 m 479 1008 q 396 1083 440 1049 q 292 1161 351 1118 q 400 1242 321 1238 q 572 1169 472 1201 q 661 1197 614 1176 q 765 1249 708 1218 q 811 1217 790 1240 q 843 1164 832 1193 q 604 1025 697 1083 q 514 1007 568 1007 q 479 1008 490 1007 z "},"Ȩ":{"ha":886,"x_min":14,"x_max":914,"o":"m 519 835 l 468 531 l 476 531 q 564 549 540 531 q 594 624 588 567 q 681 632 635 632 q 721 631 707 632 q 688 451 701 550 q 674 299 675 365 q 554 319 603 301 q 536 398 554 369 q 463 426 518 426 l 451 426 l 422 253 q 414 176 414 206 q 434 118 414 132 q 504 104 454 104 l 524 104 q 643 149 596 104 q 724 303 690 194 q 798 284 767 296 q 858 250 829 272 q 799 -4 814 118 q 481 0 726 0 l 419 -64 q 499 -171 499 -90 q 429 -296 499 -253 q 226 -336 360 -339 q 222 -307 222 -324 q 228 -265 222 -290 q 310 -253 275 -267 q 350 -215 346 -239 q 351 -203 351 -211 q 331 -165 351 -178 q 278 -153 311 -153 q 265 -87 261 -124 l 354 0 q 14 -4 121 0 q 40 106 17 53 q 96 121 78 108 q 124 166 114 133 q 149 274 135 199 l 222 696 q 229 761 229 740 q 212 814 229 800 q 150 835 194 828 q 146 889 146 863 q 150 943 146 914 q 526 939 235 939 q 914 943 794 939 q 899 760 899 856 q 901 690 899 735 q 765 674 838 674 q 747 762 761 728 q 698 815 733 796 q 597 835 663 835 l 519 835 z "},"Ḝ":{"ha":886,"x_min":14,"x_max":914,"o":"m 528 1003 q 275 1167 275 1003 q 279 1210 275 1188 q 381 1226 322 1226 q 429 1222 406 1226 q 569 1143 429 1143 q 731 1222 708 1143 q 781 1228 753 1228 q 856 1214 821 1228 q 754 1056 838 1108 q 528 1003 671 1003 m 519 835 l 468 531 l 476 531 q 564 549 540 531 q 594 624 588 567 q 681 632 635 632 q 721 631 707 632 q 688 451 701 550 q 674 299 675 365 q 554 319 603 301 q 536 398 554 369 q 463 426 518 426 l 451 426 l 422 253 q 414 176 414 206 q 434 118 414 132 q 504 104 454 104 l 524 104 q 643 149 596 104 q 724 303 690 194 q 798 284 767 296 q 858 250 829 272 q 799 -4 814 118 q 481 0 726 0 l 419 -64 q 499 -171 499 -90 q 429 -296 499 -253 q 226 -336 360 -339 q 222 -307 222 -324 q 228 -265 222 -290 q 310 -253 275 -267 q 350 -215 346 -239 q 351 -203 351 -211 q 331 -165 351 -178 q 278 -153 311 -153 q 265 -87 261 -124 l 354 0 q 14 -4 121 0 q 40 106 17 53 q 96 121 78 108 q 124 166 114 133 q 149 274 135 199 l 222 696 q 229 761 229 740 q 212 814 229 800 q 150 835 194 828 q 146 889 146 863 q 150 943 146 914 q 526 939 235 939 q 914 943 794 939 q 899 760 899 856 q 901 690 899 735 q 765 674 838 674 q 747 762 761 728 q 698 815 733 796 q 597 835 663 835 l 519 835 z "},"Ê":{"ha":886,"x_min":14,"x_max":914,"o":"m 519 835 l 468 531 l 476 531 q 564 549 540 531 q 594 624 588 567 q 681 632 635 632 q 721 631 707 632 q 688 451 701 550 q 674 299 675 365 q 554 319 603 301 q 536 398 554 369 q 463 426 518 426 l 451 426 l 422 253 q 414 176 414 206 q 434 118 414 132 q 504 104 454 104 l 524 104 q 643 149 596 104 q 724 303 690 194 q 798 284 767 296 q 858 250 829 272 q 799 -4 814 118 q 431 0 715 0 q 14 -4 103 0 q 40 106 17 53 q 96 121 78 108 q 124 166 114 133 q 149 274 135 199 l 222 696 q 229 761 229 740 q 212 814 229 800 q 150 835 194 828 q 146 889 146 863 q 150 943 146 914 q 526 939 235 939 q 914 943 794 939 q 899 760 899 856 q 901 690 899 735 q 765 674 838 674 q 747 762 761 728 q 698 815 733 796 q 597 835 663 835 l 519 835 m 365 999 q 310 1036 333 1008 q 281 1090 286 1064 q 409 1156 339 1114 q 536 1242 479 1199 q 578 1244 561 1244 q 656 1233 624 1244 q 853 1049 708 1179 q 732 1014 817 1017 q 561 1093 635 1072 q 432 1032 524 1079 q 365 999 382 1006 z "},"Ế":{"ha":886,"x_min":14,"x_max":1035,"o":"m 519 835 l 468 531 l 476 531 q 564 549 540 531 q 594 624 588 567 q 681 632 635 632 q 721 631 707 632 q 688 451 701 550 q 674 299 675 365 q 554 319 603 301 q 536 398 554 369 q 463 426 518 426 l 451 426 l 422 253 q 414 176 414 206 q 434 118 414 132 q 504 104 454 104 l 524 104 q 643 149 596 104 q 724 303 690 194 q 798 284 767 296 q 858 250 829 272 q 799 -4 814 118 q 431 0 715 0 q 14 -4 103 0 q 40 106 17 53 q 96 121 78 108 q 124 166 114 133 q 149 274 135 199 l 222 696 q 229 761 229 740 q 212 814 229 800 q 150 835 194 828 q 146 889 146 863 q 150 943 146 914 q 526 939 235 939 q 914 943 794 939 q 899 760 899 856 q 901 690 899 735 q 765 674 838 674 q 747 762 761 728 q 698 815 733 796 q 597 835 663 835 l 519 835 m 851 1197 q 731 1240 786 1204 q 785 1315 758 1269 q 824 1388 813 1360 q 878 1390 860 1390 q 967 1383 925 1390 q 1035 1365 1010 1376 q 851 1197 894 1240 m 365 999 q 310 1036 333 1008 q 281 1090 286 1064 q 409 1156 339 1114 q 536 1242 479 1199 q 578 1244 561 1244 q 656 1233 624 1244 q 853 1049 708 1179 q 732 1014 817 1017 q 561 1093 635 1072 q 432 1032 524 1079 q 365 999 382 1006 z "},"Ệ":{"ha":886,"x_min":14,"x_max":914,"o":"m 519 835 l 468 531 l 476 531 q 564 549 540 531 q 594 624 588 567 q 681 632 635 632 q 721 631 707 632 q 688 451 701 550 q 674 299 675 365 q 554 319 603 301 q 536 398 554 369 q 463 426 518 426 l 451 426 l 422 253 q 414 176 414 206 q 434 118 414 132 q 504 104 454 104 l 524 104 q 643 149 596 104 q 724 303 690 194 q 798 284 767 296 q 858 250 829 272 q 799 -4 814 118 q 431 0 715 0 q 14 -4 103 0 q 40 106 17 53 q 96 121 78 108 q 124 166 114 133 q 149 274 135 199 l 222 696 q 229 761 229 740 q 212 814 229 800 q 150 835 194 828 q 146 889 146 863 q 150 943 146 914 q 526 939 235 939 q 914 943 794 939 q 899 760 899 856 q 901 690 899 735 q 765 674 838 674 q 747 762 761 728 q 698 815 733 796 q 597 835 663 835 l 519 835 m 350 -343 q 250 -314 285 -343 q 215 -236 215 -285 q 218 -210 215 -229 q 273 -122 229 -151 q 381 -93 317 -93 q 481 -123 447 -93 q 514 -203 514 -153 q 468 -308 514 -272 q 350 -343 422 -343 m 365 999 q 310 1036 333 1008 q 281 1090 286 1064 q 409 1156 339 1114 q 536 1242 479 1199 q 578 1244 561 1244 q 656 1233 624 1244 q 853 1049 708 1179 q 732 1014 817 1017 q 561 1093 635 1072 q 432 1032 524 1079 q 365 999 382 1006 z "},"Ề":{"ha":886,"x_min":14,"x_max":921,"o":"m 519 835 l 468 531 l 476 531 q 564 549 540 531 q 594 624 588 567 q 681 632 635 632 q 721 631 707 632 q 688 451 701 550 q 674 299 675 365 q 554 319 603 301 q 536 398 554 369 q 463 426 518 426 l 451 426 l 422 253 q 414 176 414 206 q 434 118 414 132 q 504 104 454 104 l 524 104 q 643 149 596 104 q 724 303 690 194 q 798 284 767 296 q 858 250 829 272 q 799 -4 814 118 q 431 0 715 0 q 14 -4 103 0 q 40 106 17 53 q 96 121 78 108 q 124 166 114 133 q 149 274 135 199 l 222 696 q 229 761 229 740 q 212 814 229 800 q 150 835 194 828 q 146 889 146 863 q 150 943 146 914 q 526 939 235 939 q 914 943 794 939 q 899 760 899 856 q 901 690 899 735 q 765 674 838 674 q 747 762 761 728 q 698 815 733 796 q 597 835 663 835 l 519 835 z "},"Ể":{"ha":886,"x_min":14,"x_max":983,"o":"m 519 835 l 468 531 l 476 531 q 564 549 540 531 q 594 624 588 567 q 681 632 635 632 q 721 631 707 632 q 688 451 701 550 q 674 299 675 365 q 554 319 603 301 q 536 398 554 369 q 463 426 518 426 l 451 426 l 422 253 q 414 176 414 206 q 434 118 414 132 q 504 104 454 104 l 524 104 q 643 149 596 104 q 724 303 690 194 q 798 284 767 296 q 858 250 829 272 q 799 -4 814 118 q 431 0 715 0 q 14 -4 103 0 q 40 106 17 53 q 96 121 78 108 q 124 166 114 133 q 149 274 135 199 l 222 696 q 229 761 229 740 q 212 814 229 800 q 150 835 194 828 q 146 889 146 863 q 150 943 146 914 q 526 939 235 939 q 914 943 794 939 q 899 760 899 856 q 901 690 899 735 q 765 674 838 674 q 747 762 761 728 q 698 815 733 796 q 597 835 663 835 l 519 835 z "},"Ễ":{"ha":886,"x_min":14,"x_max":921,"o":"m 519 835 l 468 531 l 476 531 q 564 549 540 531 q 594 624 588 567 q 681 632 635 632 q 721 631 707 632 q 688 451 701 550 q 674 299 675 365 q 554 319 603 301 q 536 398 554 369 q 463 426 518 426 l 451 426 l 422 253 q 414 176 414 206 q 434 118 414 132 q 504 104 454 104 l 524 104 q 643 149 596 104 q 724 303 690 194 q 798 284 767 296 q 858 250 829 272 q 799 -4 814 118 q 431 0 715 0 q 14 -4 103 0 q 40 106 17 53 q 96 121 78 108 q 124 166 114 133 q 149 274 135 199 l 222 696 q 229 761 229 740 q 212 814 229 800 q 150 835 194 828 q 146 889 146 863 q 150 943 146 914 q 526 939 235 939 q 914 943 794 939 q 899 760 899 856 q 901 690 899 735 q 765 674 838 674 q 747 762 761 728 q 698 815 733 796 q 597 835 663 835 l 519 835 m 365 999 q 310 1036 333 1008 q 281 1090 286 1064 q 409 1156 339 1114 q 536 1242 479 1199 q 578 1244 561 1244 q 656 1233 624 1244 q 853 1049 708 1179 q 732 1014 817 1017 q 561 1093 635 1072 q 432 1032 524 1079 q 365 999 382 1006 m 681 1299 q 619 1308 642 1299 q 567 1338 596 1318 q 533 1359 549 1351 q 497 1367 518 1367 q 435 1349 465 1367 q 374 1300 406 1331 q 347 1349 356 1326 q 339 1401 339 1372 q 340 1426 339 1417 q 444 1491 386 1471 q 551 1511 501 1511 q 613 1501 588 1511 q 668 1474 639 1492 q 708 1453 693 1460 q 742 1447 724 1447 q 797 1465 771 1447 q 840 1510 822 1483 q 921 1438 897 1485 q 812 1334 874 1369 q 681 1299 750 1299 z "},"Ȅ":{"ha":886,"x_min":14,"x_max":914,"o":"m 519 835 l 468 531 l 476 531 q 564 549 540 531 q 594 624 588 567 q 681 632 635 632 q 721 631 707 632 q 688 451 701 550 q 674 299 675 365 q 554 319 603 301 q 536 398 554 369 q 463 426 518 426 l 451 426 l 422 253 q 414 176 414 206 q 434 118 414 132 q 504 104 454 104 l 524 104 q 643 149 596 104 q 724 303 690 194 q 798 284 767 296 q 858 250 829 272 q 799 -4 814 118 q 431 0 715 0 q 14 -4 103 0 q 40 106 17 53 q 96 121 78 108 q 124 166 114 133 q 149 274 135 199 l 222 696 q 229 761 229 740 q 212 814 229 800 q 150 835 194 828 q 146 889 146 863 q 150 943 146 914 q 526 939 235 939 q 914 943 794 939 q 899 760 899 856 q 901 690 899 735 q 765 674 838 674 q 747 762 761 728 q 698 815 733 796 q 597 835 663 835 l 519 835 m 632 1056 q 553 1178 588 1129 q 665 1192 604 1192 q 736 1186 707 1192 q 803 1006 763 1079 q 724 999 761 999 q 665 1003 696 999 l 632 1056 m 360 1040 q 260 1172 311 1110 q 392 1190 313 1190 q 458 1186 428 1190 q 525 1006 485 1079 q 446 999 483 999 q 388 1003 418 999 l 360 1040 z "},"Ë":{"ha":886,"x_min":14,"x_max":914,"o":"m 519 835 l 468 531 l 476 531 q 564 549 540 531 q 594 624 588 567 q 681 632 635 632 q 721 631 707 632 q 688 451 701 550 q 674 299 675 365 q 554 319 603 301 q 536 398 554 369 q 463 426 518 426 l 451 426 l 422 253 q 414 176 414 206 q 434 118 414 132 q 504 104 454 104 l 524 104 q 643 149 596 104 q 724 303 690 194 q 798 284 767 296 q 858 250 829 272 q 799 -4 814 118 q 431 0 715 0 q 14 -4 103 0 q 40 106 17 53 q 96 121 78 108 q 124 166 114 133 q 149 274 135 199 l 222 696 q 229 761 229 740 q 212 814 229 800 q 150 835 194 828 q 146 889 146 863 q 150 943 146 914 q 526 939 235 939 q 914 943 794 939 q 899 760 899 856 q 901 690 899 735 q 765 674 838 674 q 747 762 761 728 q 698 815 733 796 q 597 835 663 835 l 519 835 m 404 999 q 310 1032 344 999 q 276 1122 276 1065 q 393 1236 276 1236 q 486 1205 451 1236 q 521 1119 521 1174 q 492 1030 521 1061 q 404 999 463 999 m 733 997 q 637 1030 671 997 q 603 1119 603 1063 q 728 1236 603 1236 q 820 1204 786 1236 q 854 1115 854 1172 q 733 997 854 997 z "},"Ė":{"ha":886,"x_min":14,"x_max":914,"o":"m 519 835 l 468 531 l 476 531 q 564 549 540 531 q 594 624 588 567 q 681 632 635 632 q 721 631 707 632 q 688 451 701 550 q 674 299 675 365 q 554 319 603 301 q 536 398 554 369 q 463 426 518 426 l 451 426 l 422 253 q 414 176 414 206 q 434 118 414 132 q 504 104 454 104 l 524 104 q 643 149 596 104 q 724 303 690 194 q 798 284 767 296 q 858 250 829 272 q 799 -4 814 118 q 431 0 715 0 q 14 -4 103 0 q 40 106 17 53 q 96 121 78 108 q 124 166 114 133 q 149 274 135 199 l 222 696 q 229 761 229 740 q 212 814 229 800 q 150 835 194 828 q 146 889 146 863 q 150 943 146 914 q 526 939 235 939 q 914 943 794 939 q 899 760 899 856 q 901 690 899 735 q 765 674 838 674 q 747 762 761 728 q 698 815 733 796 q 597 835 663 835 l 519 835 m 543 993 q 450 1023 485 993 q 415 1104 415 1053 q 460 1196 415 1164 q 585 1228 504 1228 q 676 1197 640 1228 q 713 1115 713 1165 q 543 993 713 993 z "},"Ẹ":{"ha":886,"x_min":14,"x_max":914,"o":"m 519 835 l 468 531 l 476 531 q 564 549 540 531 q 594 624 588 567 q 681 632 635 632 q 721 631 707 632 q 688 451 701 550 q 674 299 675 365 q 554 319 603 301 q 536 398 554 369 q 463 426 518 426 l 451 426 l 422 253 q 414 176 414 206 q 434 118 414 132 q 504 104 454 104 l 524 104 q 643 149 596 104 q 724 303 690 194 q 798 284 767 296 q 858 250 829 272 q 799 -4 814 118 q 431 0 715 0 q 14 -4 103 0 q 40 106 17 53 q 96 121 78 108 q 124 166 114 133 q 149 274 135 199 l 222 696 q 229 761 229 740 q 212 814 229 800 q 150 835 194 828 q 146 889 146 863 q 150 943 146 914 q 526 939 235 939 q 914 943 794 939 q 899 760 899 856 q 901 690 899 735 q 765 674 838 674 q 747 762 761 728 q 698 815 733 796 q 597 835 663 835 l 519 835 m 350 -343 q 250 -314 285 -343 q 215 -236 215 -285 q 218 -210 215 -229 q 273 -122 229 -151 q 381 -93 317 -93 q 481 -123 447 -93 q 514 -203 514 -153 q 468 -308 514 -272 q 350 -343 422 -343 z "},"È":{"ha":886,"x_min":14,"x_max":914,"o":"m 519 835 l 468 531 l 476 531 q 564 549 540 531 q 594 624 588 567 q 681 632 635 632 q 721 631 707 632 q 688 451 701 550 q 674 299 675 365 q 554 319 603 301 q 536 398 554 369 q 463 426 518 426 l 451 426 l 422 253 q 414 176 414 206 q 434 118 414 132 q 504 104 454 104 l 524 104 q 643 149 596 104 q 724 303 690 194 q 798 284 767 296 q 858 250 829 272 q 799 -4 814 118 q 431 0 715 0 q 14 -4 103 0 q 40 106 17 53 q 96 121 78 108 q 124 166 114 133 q 149 274 135 199 l 222 696 q 229 761 229 740 q 212 814 229 800 q 150 835 194 828 q 146 889 146 863 q 150 943 146 914 q 526 939 235 939 q 914 943 794 939 q 899 760 899 856 q 901 690 899 735 q 765 674 838 674 q 747 762 761 728 q 698 815 733 796 q 597 835 663 835 l 519 835 m 639 1028 q 561 1019 608 1019 q 478 1029 508 1019 q 420 1108 460 1060 q 344 1190 381 1157 q 500 1210 425 1210 q 569 1206 533 1210 q 599 1113 581 1163 q 639 1028 618 1064 z "},"Ẻ":{"ha":886,"x_min":14,"x_max":914,"o":"m 519 835 l 468 531 l 476 531 q 564 549 540 531 q 594 624 588 567 q 681 632 635 632 q 721 631 707 632 q 688 451 701 550 q 674 299 675 365 q 554 319 603 301 q 536 398 554 369 q 463 426 518 426 l 451 426 l 422 253 q 414 176 414 206 q 434 118 414 132 q 504 104 454 104 l 524 104 q 643 149 596 104 q 724 303 690 194 q 798 284 767 296 q 858 250 829 272 q 799 -4 814 118 q 431 0 715 0 q 14 -4 103 0 q 40 106 17 53 q 96 121 78 108 q 124 166 114 133 q 149 274 135 199 l 222 696 q 229 761 229 740 q 212 814 229 800 q 150 835 194 828 q 146 889 146 863 q 150 943 146 914 q 526 939 235 939 q 914 943 794 939 q 899 760 899 856 q 901 690 899 735 q 765 674 838 674 q 747 762 761 728 q 698 815 733 796 q 597 835 663 835 l 519 835 m 497 1004 q 493 1031 493 1015 q 496 1051 493 1038 q 515 1088 501 1075 q 556 1114 529 1100 q 599 1150 590 1132 q 603 1164 603 1158 q 592 1182 603 1175 q 567 1189 582 1189 q 496 1111 515 1189 q 469 1110 488 1110 q 399 1124 425 1110 q 419 1222 417 1169 q 501 1247 454 1238 q 596 1257 549 1257 q 701 1236 665 1257 q 736 1178 736 1215 q 731 1147 736 1163 q 702 1101 721 1117 q 651 1065 683 1085 q 619 1044 631 1053 q 603 1022 607 1035 q 601 996 597 1007 q 567 993 582 993 q 497 1004 524 993 z "},"Ȇ":{"ha":886,"x_min":14,"x_max":914,"o":"m 519 835 l 468 531 l 476 531 q 564 549 540 531 q 594 624 588 567 q 681 632 635 632 q 721 631 707 632 q 688 451 701 550 q 674 299 675 365 q 554 319 603 301 q 536 398 554 369 q 463 426 518 426 l 451 426 l 422 253 q 414 176 414 206 q 434 118 414 132 q 504 104 454 104 l 524 104 q 643 149 596 104 q 724 303 690 194 q 798 284 767 296 q 858 250 829 272 q 799 -4 814 118 q 431 0 715 0 q 14 -4 103 0 q 40 106 17 53 q 96 121 78 108 q 124 166 114 133 q 149 274 135 199 l 222 696 q 229 761 229 740 q 212 814 229 800 q 150 835 194 828 q 146 889 146 863 q 150 943 146 914 q 526 939 235 939 q 914 943 794 939 q 899 760 899 856 q 901 690 899 735 q 765 674 838 674 q 747 762 761 728 q 698 815 733 796 q 597 835 663 835 l 519 835 m 601 1219 q 854 1056 854 1219 q 850 1013 854 1036 q 749 996 807 996 q 700 1000 722 996 q 560 1079 700 1079 q 399 1000 421 1079 q 349 994 376 994 q 274 1008 308 994 q 375 1167 292 1114 q 601 1219 458 1219 z "},"Ē":{"ha":886,"x_min":14,"x_max":914,"o":"m 519 835 l 468 531 l 476 531 q 564 549 540 531 q 594 624 588 567 q 681 632 635 632 q 721 631 707 632 q 688 451 701 550 q 674 299 675 365 q 554 319 603 301 q 536 398 554 369 q 463 426 518 426 l 451 426 l 422 253 q 414 176 414 206 q 434 118 414 132 q 504 104 454 104 l 524 104 q 643 149 596 104 q 724 303 690 194 q 798 284 767 296 q 858 250 829 272 q 799 -4 814 118 q 431 0 715 0 q 14 -4 103 0 q 40 106 17 53 q 96 121 78 108 q 124 166 114 133 q 149 274 135 199 l 222 696 q 229 761 229 740 q 212 814 229 800 q 150 835 194 828 q 146 889 146 863 q 150 943 146 914 q 526 939 235 939 q 914 943 794 939 q 899 760 899 856 q 901 690 899 735 q 765 674 838 674 q 747 762 761 728 q 698 815 733 796 q 597 835 663 835 l 519 835 m 306 1064 q 318 1154 306 1121 l 821 1154 q 808 1074 821 1110 q 306 1064 531 1074 z "},"Ḗ":{"ha":886,"x_min":14,"x_max":914,"o":"m 519 835 l 468 531 l 476 531 q 564 549 540 531 q 594 624 588 567 q 681 632 635 632 q 721 631 707 632 q 688 451 701 550 q 674 299 675 365 q 554 319 603 301 q 536 398 554 369 q 463 426 518 426 l 451 426 l 422 253 q 414 176 414 206 q 434 118 414 132 q 504 104 454 104 l 524 104 q 643 149 596 104 q 724 303 690 194 q 798 284 767 296 q 858 250 829 272 q 799 -4 814 118 q 431 0 715 0 q 14 -4 103 0 q 40 106 17 53 q 96 121 78 108 q 124 166 114 133 q 149 274 135 199 l 222 696 q 229 761 229 740 q 212 814 229 800 q 150 835 194 828 q 146 889 146 863 q 150 943 146 914 q 526 939 235 939 q 914 943 794 939 q 899 760 899 856 q 901 690 899 735 q 765 674 838 674 q 747 762 761 728 q 698 815 733 796 q 597 835 663 835 l 519 835 m 306 1064 q 318 1154 306 1121 l 821 1154 q 808 1074 821 1110 q 306 1064 531 1074 m 600 1232 q 467 1281 525 1242 q 527 1362 497 1313 q 569 1443 557 1411 q 632 1446 611 1446 q 731 1439 685 1446 q 804 1419 776 1432 q 600 1232 650 1281 z "},"Ḕ":{"ha":886,"x_min":14,"x_max":914,"o":"m 519 835 l 468 531 l 476 531 q 564 549 540 531 q 594 624 588 567 q 681 632 635 632 q 721 631 707 632 q 688 451 701 550 q 674 299 675 365 q 554 319 603 301 q 536 398 554 369 q 463 426 518 426 l 451 426 l 422 253 q 414 176 414 206 q 434 118 414 132 q 504 104 454 104 l 524 104 q 643 149 596 104 q 724 303 690 194 q 798 284 767 296 q 858 250 829 272 q 799 -4 814 118 q 431 0 715 0 q 14 -4 103 0 q 40 106 17 53 q 96 121 78 108 q 124 166 114 133 q 149 274 135 199 l 222 696 q 229 761 229 740 q 212 814 229 800 q 150 835 194 828 q 146 889 146 863 q 150 943 146 914 q 526 939 235 939 q 914 943 794 939 q 899 760 899 856 q 901 690 899 735 q 765 674 838 674 q 747 762 761 728 q 698 815 733 796 q 597 835 663 835 l 519 835 m 306 1064 q 318 1154 306 1121 l 821 1154 q 808 1074 821 1110 q 306 1064 531 1074 m 681 1243 q 603 1235 650 1235 q 519 1244 550 1235 q 462 1324 501 1275 q 386 1406 422 1372 q 542 1425 467 1425 q 611 1421 575 1425 q 641 1328 622 1378 q 681 1243 660 1279 z "},"Ę":{"ha":886,"x_min":14,"x_max":914,"o":"m 519 835 l 468 531 l 476 531 q 564 549 540 531 q 594 624 588 567 q 681 632 635 632 q 721 631 707 632 q 688 451 701 550 q 674 299 675 365 q 554 319 603 301 q 536 398 554 369 q 463 426 518 426 l 451 426 l 422 253 q 414 176 414 206 q 434 118 414 132 q 504 104 454 104 l 524 104 q 643 149 596 104 q 724 303 690 194 q 798 284 767 296 q 858 250 829 272 q 799 -4 814 118 q 697 -1 746 -1 q 592 -60 626 -24 q 557 -132 557 -96 q 572 -169 557 -154 q 618 -185 588 -185 q 658 -175 644 -185 q 688 -219 676 -192 q 703 -271 699 -246 q 629 -302 667 -282 q 568 -344 592 -322 q 536 -346 554 -346 q 376 -312 433 -346 q 319 -211 319 -279 q 324 -175 319 -194 q 373 -84 333 -126 q 511 0 413 -42 l 431 0 q 14 -4 103 0 q 40 106 17 53 q 96 121 78 108 q 124 166 114 133 q 149 274 135 199 l 222 696 q 229 761 229 740 q 212 814 229 800 q 150 835 194 828 q 146 889 146 863 q 150 943 146 914 q 526 939 235 939 q 914 943 794 939 q 899 760 899 856 q 901 690 899 735 q 765 674 838 674 q 747 762 761 728 q 698 815 733 796 q 597 835 663 835 l 519 835 z "},"Ǝ":{"ha":882,"x_min":-4,"x_max":971,"o":"m 594 939 q 971 943 842 939 q 962 886 971 918 q 940 835 953 854 q 876 817 897 829 q 843 776 856 806 q 818 682 831 746 l 736 260 q 725 169 725 197 q 741 120 725 133 q 797 104 757 107 q 788 -4 800 47 q 582 -1 707 -3 q 358 0 457 0 q -4 -3 160 0 q 8 172 8 92 q 3 263 8 228 q 51 277 19 271 q 119 283 83 283 l 144 282 q 189 144 156 183 q 296 104 222 104 l 319 104 q 388 118 363 104 q 431 167 414 132 q 460 267 447 201 l 489 415 l 488 415 q 397 397 425 415 q 353 321 369 378 q 231 307 311 307 q 269 472 253 388 q 294 635 285 557 q 414 618 375 635 q 410 581 410 597 q 431 533 410 547 q 507 519 453 519 l 508 519 l 569 835 l 501 835 q 358 790 408 835 q 281 661 308 744 q 149 711 199 674 q 188 826 167 756 q 219 943 210 896 q 594 939 336 939 z "},"Ẽ":{"ha":886,"x_min":14,"x_max":914,"o":"m 519 835 l 468 531 l 476 531 q 564 549 540 531 q 594 624 588 567 q 681 632 635 632 q 721 631 707 632 q 688 451 701 550 q 674 299 675 365 q 554 319 603 301 q 536 398 554 369 q 463 426 518 426 l 451 426 l 422 253 q 414 176 414 206 q 434 118 414 132 q 504 104 454 104 l 524 104 q 643 149 596 104 q 724 303 690 194 q 798 284 767 296 q 858 250 829 272 q 799 -4 814 118 q 431 0 715 0 q 14 -4 103 0 q 40 106 17 53 q 96 121 78 108 q 124 166 114 133 q 149 274 135 199 l 222 696 q 229 761 229 740 q 212 814 229 800 q 150 835 194 828 q 146 889 146 863 q 150 943 146 914 q 526 939 235 939 q 914 943 794 939 q 899 760 899 856 q 901 690 899 735 q 765 674 838 674 q 747 762 761 728 q 698 815 733 796 q 597 835 663 835 l 519 835 m 621 1021 q 559 1031 582 1021 q 507 1060 536 1040 q 474 1081 489 1074 q 438 1089 458 1089 q 376 1071 406 1089 q 314 1022 346 1053 q 288 1072 296 1049 q 279 1124 279 1094 q 281 1149 279 1139 q 384 1213 326 1193 q 492 1233 442 1233 q 553 1224 528 1233 q 608 1196 579 1214 q 649 1176 633 1182 q 682 1169 664 1169 q 737 1188 711 1169 q 781 1232 763 1206 q 861 1160 838 1207 q 752 1056 814 1092 q 621 1021 690 1021 z "},"Ʒ":{"ha":829,"x_min":24,"x_max":874,"o":"m 856 942 q 874 869 874 910 q 871 835 874 860 q 596 507 736 651 q 742 439 690 490 q 793 304 793 388 q 788 247 793 274 q 642 56 763 124 q 313 -12 521 -12 q 140 7 215 -12 q 24 61 65 26 q 48 183 39 115 q 57 301 57 250 q 153 311 97 311 q 221 306 193 311 q 243 147 218 190 q 325 104 268 104 q 447 148 394 104 q 513 264 499 192 q 515 297 515 276 q 465 388 515 360 q 311 424 414 417 q 298 463 303 436 q 293 517 293 490 q 296 550 293 531 q 557 835 413 643 l 471 835 q 394 816 426 835 q 333 752 363 797 q 271 624 304 707 q 184 642 217 633 q 131 668 151 651 q 181 803 158 726 q 214 942 204 881 q 532 939 281 939 q 856 942 769 939 z "},"Ǯ":{"ha":829,"x_min":24,"x_max":874,"o":"m 856 942 q 874 869 874 910 q 871 835 874 860 q 596 507 736 651 q 742 439 690 490 q 793 304 793 388 q 788 247 793 274 q 642 56 763 124 q 313 -12 521 -12 q 140 7 215 -12 q 24 61 65 26 q 48 183 39 115 q 57 301 57 250 q 153 311 97 311 q 221 306 193 311 q 243 147 218 190 q 325 104 268 104 q 447 148 394 104 q 513 264 499 192 q 515 297 515 276 q 465 388 515 360 q 311 424 414 417 q 298 463 303 436 q 293 517 293 490 q 296 550 293 531 q 557 835 413 643 l 471 835 q 394 816 426 835 q 333 752 363 797 q 271 624 304 707 q 184 642 217 633 q 131 668 151 651 q 181 803 158 726 q 214 942 204 881 q 532 939 281 939 q 856 942 769 939 m 486 1008 q 403 1083 447 1049 q 299 1161 358 1118 q 407 1242 328 1238 q 579 1169 479 1201 q 668 1197 621 1176 q 772 1249 715 1218 q 818 1217 797 1240 q 850 1164 839 1193 q 611 1025 704 1083 q 521 1007 575 1007 q 486 1008 497 1007 z "},"F":{"ha":842,"x_min":8,"x_max":913,"o":"m 913 943 q 897 760 897 856 q 900 690 897 735 q 764 674 836 674 q 746 762 760 728 q 697 815 732 796 q 596 835 661 835 l 518 835 l 457 467 l 493 467 q 581 485 557 467 q 611 560 604 503 q 697 568 651 568 q 738 567 724 568 q 704 388 718 486 q 690 229 693 303 q 571 250 619 232 q 554 335 572 308 q 479 363 536 363 l 439 363 l 422 260 q 414 186 414 214 q 439 131 414 146 q 536 104 464 115 q 542 40 542 68 q 539 -4 542 24 q 274 0 463 0 q 8 -4 86 0 q 35 104 15 58 q 92 120 72 107 q 123 167 111 133 q 147 274 135 200 l 221 696 q 228 764 228 731 q 211 814 228 800 q 151 835 194 828 q 147 890 147 860 q 150 943 147 907 q 525 939 272 939 q 913 943 794 939 z "},"G":{"ha":917,"x_min":61,"x_max":939,"o":"m 628 951 q 936 881 824 951 q 910 778 922 838 q 892 667 897 719 q 794 649 847 649 q 753 651 767 649 q 754 694 754 667 q 723 809 754 775 q 622 843 692 843 q 445 739 515 843 q 349 482 375 635 q 336 346 336 410 q 376 165 336 231 q 492 99 417 99 q 553 111 531 99 q 578 142 569 121 q 596 215 588 164 q 601 275 601 247 q 582 331 601 315 q 514 354 563 347 q 508 413 508 388 q 513 463 508 438 q 721 458 581 458 q 939 463 857 458 q 919 354 939 407 q 878 342 890 351 q 855 301 865 333 q 831 188 844 268 q 828 142 828 169 q 836 75 828 115 q 669 12 764 36 q 476 -12 574 -12 q 252 38 346 -12 q 110 179 158 88 q 61 392 61 271 q 71 504 61 450 q 178 751 96 650 q 378 901 261 851 q 628 951 496 951 z "},"Ğ":{"ha":917,"x_min":61,"x_max":939,"o":"m 628 951 q 936 881 824 951 q 910 778 922 838 q 892 667 897 719 q 794 649 847 649 q 753 651 767 649 q 754 694 754 667 q 723 809 754 775 q 622 843 692 843 q 445 739 515 843 q 349 482 375 635 q 336 346 336 410 q 376 165 336 231 q 492 99 417 99 q 553 111 531 99 q 578 142 569 121 q 596 215 588 164 q 601 275 601 247 q 582 331 601 315 q 514 354 563 347 q 508 413 508 388 q 513 463 508 438 q 721 458 581 458 q 939 463 857 458 q 919 354 939 407 q 878 342 890 351 q 855 301 865 333 q 831 188 844 268 q 828 142 828 169 q 836 75 828 115 q 669 12 764 36 q 476 -12 574 -12 q 252 38 346 -12 q 110 179 158 88 q 61 392 61 271 q 71 504 61 450 q 178 751 96 650 q 378 901 261 851 q 628 951 496 951 m 611 1003 q 358 1167 358 1003 q 363 1210 358 1188 q 464 1226 406 1226 q 513 1222 489 1226 q 653 1143 513 1143 q 814 1222 792 1143 q 864 1228 836 1228 q 939 1214 904 1228 q 838 1056 921 1108 q 611 1003 754 1003 z "},"Ǧ":{"ha":917,"x_min":61,"x_max":939,"o":"m 628 951 q 936 881 824 951 q 910 778 922 838 q 892 667 897 719 q 794 649 847 649 q 753 651 767 649 q 754 694 754 667 q 723 809 754 775 q 622 843 692 843 q 445 739 515 843 q 349 482 375 635 q 336 346 336 410 q 376 165 336 231 q 492 99 417 99 q 553 111 531 99 q 578 142 569 121 q 596 215 588 164 q 601 275 601 247 q 582 331 601 315 q 514 354 563 347 q 508 413 508 388 q 513 463 508 438 q 721 458 581 458 q 939 463 857 458 q 919 354 939 407 q 878 342 890 351 q 855 301 865 333 q 831 188 844 268 q 828 142 828 169 q 836 75 828 115 q 669 12 764 36 q 476 -12 574 -12 q 252 38 346 -12 q 110 179 158 88 q 61 392 61 271 q 71 504 61 450 q 178 751 96 650 q 378 901 261 851 q 628 951 496 951 m 563 1008 q 479 1083 524 1049 q 375 1161 435 1118 q 483 1242 404 1238 q 656 1169 556 1201 q 744 1197 697 1176 q 849 1249 792 1218 q 894 1217 874 1240 q 926 1164 915 1193 q 688 1025 781 1083 q 597 1007 651 1007 q 563 1008 574 1007 z "},"Ĝ":{"ha":917,"x_min":61,"x_max":939,"o":"m 628 951 q 936 881 824 951 q 910 778 922 838 q 892 667 897 719 q 794 649 847 649 q 753 651 767 649 q 754 694 754 667 q 723 809 754 775 q 622 843 692 843 q 445 739 515 843 q 349 482 375 635 q 336 346 336 410 q 376 165 336 231 q 492 99 417 99 q 553 111 531 99 q 578 142 569 121 q 596 215 588 164 q 601 275 601 247 q 582 331 601 315 q 514 354 563 347 q 508 413 508 388 q 513 463 508 438 q 721 458 581 458 q 939 463 857 458 q 919 354 939 407 q 878 342 890 351 q 855 301 865 333 q 831 188 844 268 q 828 142 828 169 q 836 75 828 115 q 669 12 764 36 q 476 -12 574 -12 q 252 38 346 -12 q 110 179 158 88 q 61 392 61 271 q 71 504 61 450 q 178 751 96 650 q 378 901 261 851 q 628 951 496 951 m 449 999 q 393 1036 417 1008 q 364 1090 369 1064 q 492 1156 422 1114 q 619 1242 563 1199 q 661 1244 644 1244 q 739 1233 707 1244 q 936 1049 792 1179 q 815 1014 900 1017 q 644 1093 718 1072 q 515 1032 607 1079 q 449 999 465 1006 z "},"Ģ":{"ha":917,"x_min":61,"x_max":939,"o":"m 628 951 q 936 881 824 951 q 910 778 922 838 q 892 667 897 719 q 794 649 847 649 q 753 651 767 649 q 754 694 754 667 q 723 809 754 775 q 622 843 692 843 q 445 739 515 843 q 349 482 375 635 q 336 346 336 410 q 376 165 336 231 q 492 99 417 99 q 553 111 531 99 q 578 142 569 121 q 596 215 588 164 q 601 275 601 247 q 582 331 601 315 q 514 354 563 347 q 508 413 508 388 q 513 463 508 438 q 721 458 581 458 q 939 463 857 458 q 919 354 939 407 q 878 342 890 351 q 855 301 865 333 q 831 188 844 268 q 828 142 828 169 q 836 75 828 115 q 669 12 764 36 q 476 -12 574 -12 q 252 38 346 -12 q 110 179 158 88 q 61 392 61 271 q 71 504 61 450 q 178 751 96 650 q 378 901 261 851 q 628 951 496 951 m 379 -442 q 300 -392 324 -435 q 361 -336 338 -367 q 385 -279 385 -306 q 365 -245 385 -257 q 301 -228 344 -233 q 344 -94 306 -150 q 526 -51 458 -92 q 572 -79 558 -61 q 586 -131 586 -97 q 583 -168 586 -154 q 379 -442 558 -331 z "},"Ġ":{"ha":917,"x_min":61,"x_max":939,"o":"m 628 951 q 936 881 824 951 q 910 778 922 838 q 892 667 897 719 q 794 649 847 649 q 753 651 767 649 q 754 694 754 667 q 723 809 754 775 q 622 843 692 843 q 445 739 515 843 q 349 482 375 635 q 336 346 336 410 q 376 165 336 231 q 492 99 417 99 q 553 111 531 99 q 578 142 569 121 q 596 215 588 164 q 601 275 601 247 q 582 331 601 315 q 514 354 563 347 q 508 413 508 388 q 513 463 508 438 q 721 458 581 458 q 939 463 857 458 q 919 354 939 407 q 878 342 890 351 q 855 301 865 333 q 831 188 844 268 q 828 142 828 169 q 836 75 828 115 q 669 12 764 36 q 476 -12 574 -12 q 252 38 346 -12 q 110 179 158 88 q 61 392 61 271 q 71 504 61 450 q 178 751 96 650 q 378 901 261 851 q 628 951 496 951 m 626 993 q 533 1023 568 993 q 499 1104 499 1053 q 543 1196 499 1164 q 668 1228 588 1228 q 760 1197 724 1228 q 796 1115 796 1165 q 626 993 796 993 z "},"Ḡ":{"ha":917,"x_min":61,"x_max":939,"o":"m 628 951 q 936 881 824 951 q 910 778 922 838 q 892 667 897 719 q 794 649 847 649 q 753 651 767 649 q 754 694 754 667 q 723 809 754 775 q 622 843 692 843 q 445 739 515 843 q 349 482 375 635 q 336 346 336 410 q 376 165 336 231 q 492 99 417 99 q 553 111 531 99 q 578 142 569 121 q 596 215 588 164 q 601 275 601 247 q 582 331 601 315 q 514 354 563 347 q 508 413 508 388 q 513 463 508 438 q 721 458 581 458 q 939 463 857 458 q 919 354 939 407 q 878 342 890 351 q 855 301 865 333 q 831 188 844 268 q 828 142 828 169 q 836 75 828 115 q 669 12 764 36 q 476 -12 574 -12 q 252 38 346 -12 q 110 179 158 88 q 61 392 61 271 q 71 504 61 450 q 178 751 96 650 q 378 901 261 851 q 628 951 496 951 m 389 1064 q 401 1154 389 1121 l 904 1154 q 892 1074 904 1110 q 389 1064 614 1074 z "},"Ǥ":{"ha":917,"x_min":61,"x_max":939,"o":"m 919 354 q 876 340 889 350 q 853 293 864 331 l 924 293 q 910 169 924 219 l 829 171 q 828 140 828 160 q 836 75 828 115 q 669 12 764 36 q 476 -12 574 -12 q 252 38 346 -12 q 110 179 158 88 q 61 392 61 271 q 71 504 61 450 q 178 751 96 650 q 378 901 261 851 q 628 951 496 951 q 936 881 824 951 q 910 778 922 838 q 892 667 897 719 q 794 649 847 649 q 753 651 767 649 q 754 694 754 667 q 723 809 754 775 q 622 843 692 843 q 445 739 515 843 q 349 482 375 635 q 336 346 336 410 q 376 165 336 231 q 492 99 417 99 q 553 111 531 99 q 574 131 565 118 q 588 169 582 144 q 550 168 561 169 l 449 167 q 463 293 449 242 l 601 293 q 578 335 597 322 q 514 354 558 347 q 508 413 508 388 q 513 463 508 438 q 721 458 581 458 q 939 463 857 458 q 919 354 939 407 z "},"Ȝ":{"ha":775,"x_min":-60,"x_max":790,"o":"m 786 728 q 676 551 767 625 q 436 424 585 478 q 647 368 572 425 q 721 208 721 311 q 714 146 721 183 q 614 -51 693 36 q 418 -188 535 -139 q 169 -237 301 -237 q 32 -220 93 -237 q -60 -171 -29 -203 q 4 -74 -46 -114 q 63 -110 28 -97 q 142 -124 99 -124 q 272 -87 213 -124 q 373 10 332 -51 q 429 146 414 72 q 435 200 435 172 q 293 328 435 328 q 181 310 231 328 q 169 363 169 335 q 181 422 169 392 q 394 526 314 463 q 497 704 475 589 q 503 754 503 728 q 411 847 503 847 q 345 828 371 847 q 301 771 319 810 q 257 660 282 732 q 178 667 218 660 q 114 689 138 674 q 140 783 126 724 q 160 900 153 842 q 453 951 269 951 q 790 771 790 951 q 786 728 790 751 z "},"H":{"ha":1125,"x_min":14,"x_max":1172,"o":"m 933 939 q 1172 943 1090 939 q 1153 835 1172 888 q 1094 818 1113 831 q 1067 775 1076 806 q 1043 668 1057 744 l 971 250 q 961 172 961 192 q 976 124 961 138 q 1031 104 992 111 q 1036 40 1036 60 q 1033 -4 1036 26 q 807 0 954 0 q 564 -4 660 0 q 590 104 569 54 q 644 120 626 110 q 672 158 661 131 q 693 246 682 185 l 721 411 q 447 404 590 411 l 421 250 q 411 172 411 192 q 426 124 411 138 q 481 104 442 111 q 486 40 486 60 q 483 -4 486 26 q 257 0 404 0 q 14 -4 110 0 q 40 104 19 54 q 94 120 76 110 q 122 158 111 131 q 143 246 132 185 l 219 696 q 228 768 228 742 q 212 815 228 801 q 151 835 196 828 q 146 893 146 868 q 150 943 146 918 q 383 939 218 939 q 622 943 540 939 q 603 835 622 888 q 544 818 563 831 q 517 775 526 806 q 493 668 507 744 l 468 524 l 740 524 l 769 696 q 778 768 778 742 q 762 815 778 801 q 701 835 746 828 q 696 893 696 868 q 700 943 696 918 q 933 939 768 939 z "},"Ħ":{"ha":1125,"x_min":14,"x_max":1172,"o":"m 1153 835 q 1101 822 1118 831 q 1073 790 1083 813 q 1053 719 1063 768 l 1139 719 q 1118 614 1139 667 l 1033 614 l 971 250 q 961 172 961 192 q 976 124 961 138 q 1031 104 992 111 q 1036 40 1036 60 q 1033 -4 1036 26 q 807 0 954 0 q 564 -4 660 0 q 590 104 569 54 q 644 120 626 110 q 672 158 661 131 q 693 246 682 185 l 721 411 q 447 404 590 411 l 421 250 q 411 172 411 192 q 426 124 411 138 q 481 104 442 111 q 486 40 486 60 q 483 -4 486 26 q 257 0 404 0 q 14 -4 110 0 q 40 104 19 54 q 94 120 76 110 q 122 158 111 131 q 143 246 132 185 l 204 608 l 117 607 q 138 719 117 669 l 224 719 q 228 768 228 749 q 212 816 228 803 q 151 835 196 829 q 146 893 146 868 q 150 943 146 918 q 383 939 218 939 q 622 943 540 939 q 603 835 622 888 q 551 822 568 831 q 523 790 533 813 q 503 719 513 768 l 774 719 q 778 768 778 749 q 762 816 778 803 q 701 835 746 829 q 696 893 696 868 q 700 943 696 918 q 933 939 768 939 q 1172 943 1090 939 q 1153 835 1172 888 m 756 614 l 483 613 l 468 524 l 740 524 l 756 614 z "},"Ḫ":{"ha":1125,"x_min":14,"x_max":1172,"o":"m 933 939 q 1172 943 1090 939 q 1153 835 1172 888 q 1094 818 1113 831 q 1067 775 1076 806 q 1043 668 1057 744 l 971 250 q 961 172 961 192 q 976 124 961 138 q 1031 104 992 111 q 1036 40 1036 60 q 1033 -4 1036 26 q 807 0 954 0 q 564 -4 660 0 q 590 104 569 54 q 644 120 626 110 q 672 158 661 131 q 693 246 682 185 l 721 411 q 447 404 590 411 l 421 250 q 411 172 411 192 q 426 124 411 138 q 481 104 442 111 q 486 40 486 60 q 483 -4 486 26 q 257 0 404 0 q 14 -4 110 0 q 40 104 19 54 q 94 120 76 110 q 122 158 111 131 q 143 246 132 185 l 219 696 q 228 768 228 742 q 212 815 228 801 q 151 835 196 828 q 146 893 146 868 q 150 943 146 918 q 383 939 218 939 q 622 943 540 939 q 603 835 622 888 q 544 818 563 831 q 517 775 526 806 q 493 668 507 744 l 468 524 l 740 524 l 769 696 q 778 768 778 742 q 762 815 778 801 q 701 835 746 828 q 696 893 696 868 q 700 943 696 918 q 933 939 768 939 z "},"Ȟ":{"ha":1125,"x_min":14,"x_max":1172,"o":"m 933 939 q 1172 943 1090 939 q 1153 835 1172 888 q 1094 818 1113 831 q 1067 775 1076 806 q 1043 668 1057 744 l 971 250 q 961 172 961 192 q 976 124 961 138 q 1031 104 992 111 q 1036 40 1036 60 q 1033 -4 1036 26 q 807 0 954 0 q 564 -4 660 0 q 590 104 569 54 q 644 120 626 110 q 672 158 661 131 q 693 246 682 185 l 721 411 q 447 404 590 411 l 421 250 q 411 172 411 192 q 426 124 411 138 q 481 104 442 111 q 486 40 486 60 q 483 -4 486 26 q 257 0 404 0 q 14 -4 110 0 q 40 104 19 54 q 94 120 76 110 q 122 158 111 131 q 143 246 132 185 l 219 696 q 228 768 228 742 q 212 815 228 801 q 151 835 196 828 q 146 893 146 868 q 150 943 146 918 q 383 939 218 939 q 622 943 540 939 q 603 835 622 888 q 544 818 563 831 q 517 775 526 806 q 493 668 507 744 l 468 524 l 740 524 l 769 696 q 778 768 778 742 q 762 815 778 801 q 701 835 746 828 q 696 893 696 868 q 700 943 696 918 q 933 939 768 939 m 610 1008 q 526 1083 571 1049 q 422 1161 482 1118 q 531 1242 451 1238 q 703 1169 603 1201 q 792 1197 744 1176 q 896 1249 839 1218 q 942 1217 921 1240 q 974 1164 963 1193 q 735 1025 828 1083 q 644 1007 699 1007 q 610 1008 621 1007 z "},"Ĥ":{"ha":1125,"x_min":14,"x_max":1172,"o":"m 933 939 q 1172 943 1090 939 q 1153 835 1172 888 q 1094 818 1113 831 q 1067 775 1076 806 q 1043 668 1057 744 l 971 250 q 961 172 961 192 q 976 124 961 138 q 1031 104 992 111 q 1036 40 1036 60 q 1033 -4 1036 26 q 807 0 954 0 q 564 -4 660 0 q 590 104 569 54 q 644 120 626 110 q 672 158 661 131 q 693 246 682 185 l 721 411 q 447 404 590 411 l 421 250 q 411 172 411 192 q 426 124 411 138 q 481 104 442 111 q 486 40 486 60 q 483 -4 486 26 q 257 0 404 0 q 14 -4 110 0 q 40 104 19 54 q 94 120 76 110 q 122 158 111 131 q 143 246 132 185 l 219 696 q 228 768 228 742 q 212 815 228 801 q 151 835 196 828 q 146 893 146 868 q 150 943 146 918 q 383 939 218 939 q 622 943 540 939 q 603 835 622 888 q 544 818 563 831 q 517 775 526 806 q 493 668 507 744 l 468 524 l 740 524 l 769 696 q 778 768 778 742 q 762 815 778 801 q 701 835 746 828 q 696 893 696 868 q 700 943 696 918 q 933 939 768 939 m 496 999 q 440 1036 464 1008 q 411 1090 417 1064 q 540 1156 469 1114 q 667 1242 610 1199 q 708 1244 692 1244 q 786 1233 754 1244 q 983 1049 839 1179 q 863 1014 947 1017 q 692 1093 765 1072 q 563 1032 654 1079 q 496 999 513 1006 z "},"Ḥ":{"ha":1125,"x_min":14,"x_max":1172,"o":"m 933 939 q 1172 943 1090 939 q 1153 835 1172 888 q 1094 818 1113 831 q 1067 775 1076 806 q 1043 668 1057 744 l 971 250 q 961 172 961 192 q 976 124 961 138 q 1031 104 992 111 q 1036 40 1036 60 q 1033 -4 1036 26 q 807 0 954 0 q 564 -4 660 0 q 590 104 569 54 q 644 120 626 110 q 672 158 661 131 q 693 246 682 185 l 721 411 q 447 404 590 411 l 421 250 q 411 172 411 192 q 426 124 411 138 q 481 104 442 111 q 486 40 486 60 q 483 -4 486 26 q 257 0 404 0 q 14 -4 110 0 q 40 104 19 54 q 94 120 76 110 q 122 158 111 131 q 143 246 132 185 l 219 696 q 228 768 228 742 q 212 815 228 801 q 151 835 196 828 q 146 893 146 868 q 150 943 146 918 q 383 939 218 939 q 622 943 540 939 q 603 835 622 888 q 544 818 563 831 q 517 775 526 806 q 493 668 507 744 l 468 524 l 740 524 l 769 696 q 778 768 778 742 q 762 815 778 801 q 701 835 746 828 q 696 893 696 868 q 700 943 696 918 q 933 939 768 939 m 468 -343 q 368 -314 403 -343 q 333 -236 333 -285 q 336 -210 333 -229 q 391 -122 347 -151 q 499 -93 435 -93 q 599 -123 565 -93 q 632 -203 632 -153 q 586 -308 632 -272 q 468 -343 540 -343 z "},"I":{"ha":575,"x_min":14,"x_max":622,"o":"m 219 696 q 228 768 228 742 q 212 815 228 801 q 151 835 196 828 q 146 893 146 868 q 150 943 146 918 q 383 939 218 939 q 622 943 540 939 q 603 835 622 888 q 544 818 563 831 q 517 775 526 806 q 493 668 507 744 l 421 250 q 411 172 411 192 q 426 124 411 138 q 481 104 442 111 q 486 40 486 60 q 483 -4 486 26 q 257 0 404 0 q 14 -4 110 0 q 40 104 19 54 q 94 120 76 110 q 122 158 111 131 q 143 246 132 185 l 219 696 z "},"Ĳ":{"ha":1069,"x_min":101,"x_max":1156,"o":"m 378 -343 q 228 -318 293 -343 q 103 -242 164 -293 q 110 -162 101 -204 q 133 -89 118 -121 q 478 -153 293 -153 q 566 -139 536 -153 q 617 -77 596 -125 q 654 75 638 -29 q 681 220 671 178 q 711 314 690 263 l 708 314 q 605 162 669 235 q 463 42 540 89 q 310 -4 385 -4 q 192 53 229 -4 q 154 224 154 111 q 178 447 154 317 l 221 689 q 229 764 229 738 q 213 814 229 800 q 151 835 196 828 q 146 893 146 868 q 150 943 146 918 q 383 939 218 939 q 622 943 540 939 q 603 835 622 888 q 547 818 564 831 q 520 777 529 806 q 493 668 511 749 l 454 493 q 425 290 425 360 q 479 190 425 190 q 577 246 522 190 q 681 415 632 301 q 754 690 729 528 q 763 765 763 739 q 746 817 763 803 q 686 835 729 831 q 681 892 681 858 q 683 943 681 910 q 922 939 750 939 q 1156 943 1064 939 q 1139 835 1154 883 q 1081 820 1099 831 q 1052 777 1064 810 q 1025 664 1040 744 l 942 222 q 835 -67 911 61 q 643 -269 760 -196 q 378 -343 526 -343 z "},"Í":{"ha":575,"x_min":14,"x_max":622,"o":"m 219 696 q 228 768 228 742 q 212 815 228 801 q 151 835 196 828 q 146 893 146 868 q 150 943 146 918 q 383 939 218 939 q 622 943 540 939 q 603 835 622 888 q 544 818 563 831 q 517 775 526 806 q 493 668 507 744 l 421 250 q 411 172 411 192 q 426 124 411 138 q 481 104 442 111 q 486 40 486 60 q 483 -4 486 26 q 257 0 404 0 q 14 -4 110 0 q 40 104 19 54 q 94 120 76 110 q 122 158 111 131 q 143 246 132 185 l 219 696 m 413 1017 q 279 1065 338 1026 q 340 1147 310 1097 q 382 1228 369 1196 q 444 1231 424 1231 q 543 1224 497 1231 q 617 1204 589 1217 q 413 1017 463 1065 z "},"Ĭ":{"ha":575,"x_min":14,"x_max":654,"o":"m 388 986 q 232 1030 283 986 q 181 1156 181 1074 q 186 1213 181 1185 q 214 1214 194 1214 q 300 1197 263 1214 q 333 1145 304 1161 q 417 1129 361 1129 q 514 1155 475 1129 q 561 1224 553 1181 q 614 1213 589 1222 q 654 1188 639 1203 q 572 1036 638 1086 q 388 986 506 986 m 219 696 q 228 768 228 742 q 212 815 228 801 q 151 835 196 828 q 146 893 146 868 q 150 943 146 918 q 383 939 218 939 q 622 943 540 939 q 603 835 622 888 q 544 818 563 831 q 517 775 526 806 q 493 668 507 744 l 421 250 q 411 172 411 192 q 426 124 411 138 q 481 104 442 111 q 486 40 486 60 q 483 -4 486 26 q 257 0 404 0 q 14 -4 110 0 q 40 104 19 54 q 94 120 76 110 q 122 158 111 131 q 143 246 132 185 l 219 696 z "},"Ǐ":{"ha":575,"x_min":14,"x_max":656,"o":"m 268 1065 l 181 1174 q 250 1208 208 1194 q 326 1222 292 1222 q 443 1151 367 1192 q 561 1232 515 1190 q 619 1195 597 1217 q 656 1139 642 1174 q 506 1035 608 1113 q 451 994 469 1007 q 383 990 421 990 q 325 996 346 990 l 268 1065 m 219 696 q 228 768 228 742 q 212 815 228 801 q 151 835 196 828 q 146 893 146 868 q 150 943 146 918 q 383 939 218 939 q 622 943 540 939 q 603 835 622 888 q 544 818 563 831 q 517 775 526 806 q 493 668 507 744 l 421 250 q 411 172 411 192 q 426 124 411 138 q 481 104 442 111 q 486 40 486 60 q 483 -4 486 26 q 257 0 404 0 q 14 -4 110 0 q 40 104 19 54 q 94 120 76 110 q 122 158 111 131 q 143 246 132 185 l 219 696 z "},"Î":{"ha":575,"x_min":14,"x_max":653,"o":"m 271 978 q 213 1016 235 994 q 178 1071 190 1038 q 335 1182 231 1103 q 381 1217 350 1194 q 453 1221 414 1221 q 507 1215 489 1221 l 590 1114 l 653 1038 q 583 1001 625 1014 q 506 989 542 988 q 462 1019 485 1006 q 415 1044 439 1032 l 390 1058 q 271 978 318 1021 m 219 696 q 228 768 228 742 q 212 815 228 801 q 151 835 196 828 q 146 893 146 868 q 150 943 146 918 q 383 939 218 939 q 622 943 540 939 q 603 835 622 888 q 544 818 563 831 q 517 775 526 806 q 493 668 507 744 l 421 250 q 411 172 411 192 q 426 124 411 138 q 481 104 442 111 q 486 40 486 60 q 483 -4 486 26 q 257 0 404 0 q 14 -4 110 0 q 40 104 19 54 q 94 120 76 110 q 122 158 111 131 q 143 246 132 185 l 219 696 z "},"Ȉ":{"ha":575,"x_min":14,"x_max":643,"o":"m 219 696 q 228 768 228 742 q 212 815 228 801 q 151 835 196 828 q 146 893 146 868 q 150 943 146 918 q 383 939 218 939 q 622 943 540 939 q 603 835 622 888 q 544 818 563 831 q 517 775 526 806 q 493 668 507 744 l 421 250 q 411 172 411 192 q 426 124 411 138 q 481 104 442 111 q 486 40 486 60 q 483 -4 486 26 q 257 0 404 0 q 14 -4 110 0 q 40 104 19 54 q 94 120 76 110 q 122 158 111 131 q 143 246 132 185 l 219 696 m 506 1003 q 469 1068 485 1038 q 404 1179 428 1142 q 508 1192 447 1192 q 576 1186 549 1192 q 643 1006 603 1079 q 564 999 601 999 q 506 1003 536 999 m 204 1057 q 121 1174 147 1139 q 247 1190 172 1190 q 313 1186 281 1190 q 379 1006 339 1079 q 300 999 338 999 q 242 1003 274 999 l 204 1057 z "},"Ï":{"ha":575,"x_min":14,"x_max":700,"o":"m 250 986 q 164 1015 196 986 q 132 1089 132 1044 q 168 1174 132 1138 q 274 1210 204 1210 q 363 1183 333 1210 q 392 1108 392 1156 q 388 1072 392 1092 q 341 1011 381 1036 q 250 986 301 986 m 561 986 q 470 1014 501 986 q 439 1090 439 1042 q 443 1125 439 1107 q 488 1188 451 1165 q 582 1210 525 1210 q 667 1181 635 1210 q 700 1107 700 1151 q 666 1022 700 1057 q 561 986 632 986 m 219 696 q 228 768 228 742 q 212 815 228 801 q 151 835 196 828 q 146 893 146 868 q 150 943 146 918 q 383 939 218 939 q 622 943 540 939 q 603 835 622 888 q 544 818 563 831 q 517 775 526 806 q 493 668 507 744 l 421 250 q 411 172 411 192 q 426 124 411 138 q 481 104 442 111 q 486 40 486 60 q 483 -4 486 26 q 257 0 404 0 q 14 -4 110 0 q 40 104 19 54 q 94 120 76 110 q 122 158 111 131 q 143 246 132 185 l 219 696 z "},"Ḯ":{"ha":575,"x_min":14,"x_max":700,"o":"m 451 1232 q 318 1281 376 1242 q 378 1362 349 1313 q 421 1443 408 1411 q 483 1446 463 1446 q 582 1439 536 1446 q 656 1419 628 1432 q 451 1232 501 1281 m 250 986 q 164 1015 196 986 q 132 1089 132 1044 q 168 1174 132 1138 q 274 1210 204 1210 q 363 1183 333 1210 q 392 1108 392 1156 q 388 1072 392 1092 q 341 1011 381 1036 q 250 986 301 986 m 561 986 q 470 1014 501 986 q 439 1090 439 1042 q 443 1125 439 1107 q 488 1188 451 1165 q 582 1210 525 1210 q 667 1181 635 1210 q 700 1107 700 1151 q 666 1022 700 1057 q 561 986 632 986 m 219 696 q 228 768 228 742 q 212 815 228 801 q 151 835 196 828 q 146 893 146 868 q 150 943 146 918 q 383 939 218 939 q 622 943 540 939 q 603 835 622 888 q 544 818 563 831 q 517 775 526 806 q 493 668 507 744 l 421 250 q 411 172 411 192 q 426 124 411 138 q 481 104 442 111 q 486 40 486 60 q 483 -4 486 26 q 257 0 404 0 q 14 -4 110 0 q 40 104 19 54 q 94 120 76 110 q 122 158 111 131 q 143 246 132 185 l 219 696 z "},"İ":{"ha":575,"x_min":14,"x_max":622,"o":"m 219 696 q 228 768 228 742 q 212 815 228 801 q 151 835 196 828 q 146 893 146 868 q 150 943 146 918 q 383 939 218 939 q 622 943 540 939 q 603 835 622 888 q 544 818 563 831 q 517 775 526 806 q 493 668 507 744 l 421 250 q 411 172 411 192 q 426 124 411 138 q 481 104 442 111 q 486 40 486 60 q 483 -4 486 26 q 257 0 404 0 q 14 -4 110 0 q 40 104 19 54 q 94 120 76 110 q 122 158 111 131 q 143 246 132 185 l 219 696 m 397 993 q 304 1023 339 993 q 269 1104 269 1053 q 314 1196 269 1164 q 439 1228 358 1228 q 531 1197 494 1228 q 567 1115 567 1165 q 397 993 567 993 z "},"Ị":{"ha":575,"x_min":14,"x_max":622,"o":"m 219 696 q 228 768 228 742 q 212 815 228 801 q 151 835 196 828 q 146 893 146 868 q 150 943 146 918 q 383 939 218 939 q 622 943 540 939 q 603 835 622 888 q 544 818 563 831 q 517 775 526 806 q 493 668 507 744 l 421 250 q 411 172 411 192 q 426 124 411 138 q 481 104 442 111 q 486 40 486 60 q 483 -4 486 26 q 257 0 404 0 q 14 -4 110 0 q 40 104 19 54 q 94 120 76 110 q 122 158 111 131 q 143 246 132 185 l 219 696 m 193 -343 q 93 -314 128 -343 q 58 -236 58 -285 q 61 -210 58 -229 q 116 -122 72 -151 q 224 -93 160 -93 q 324 -123 290 -93 q 357 -203 357 -153 q 311 -308 357 -272 q 193 -343 265 -343 z "},"Ì":{"ha":575,"x_min":14,"x_max":622,"o":"m 219 696 q 228 768 228 742 q 212 815 228 801 q 151 835 196 828 q 146 893 146 868 q 150 943 146 918 q 383 939 218 939 q 622 943 540 939 q 603 835 622 888 q 544 818 563 831 q 517 775 526 806 q 493 668 507 744 l 421 250 q 411 172 411 192 q 426 124 411 138 q 481 104 442 111 q 486 40 486 60 q 483 -4 486 26 q 257 0 404 0 q 14 -4 110 0 q 40 104 19 54 q 94 120 76 110 q 122 158 111 131 q 143 246 132 185 l 219 696 m 493 1028 q 415 1019 463 1019 q 332 1029 363 1019 q 274 1108 314 1060 q 199 1190 235 1157 q 354 1210 279 1210 q 424 1206 388 1210 q 453 1113 435 1163 q 493 1028 472 1064 z "},"Ỉ":{"ha":575,"x_min":14,"x_max":622,"o":"m 219 696 q 228 768 228 742 q 212 815 228 801 q 151 835 196 828 q 146 893 146 868 q 150 943 146 918 q 383 939 218 939 q 622 943 540 939 q 603 835 622 888 q 544 818 563 831 q 517 775 526 806 q 493 668 507 744 l 421 250 q 411 172 411 192 q 426 124 411 138 q 481 104 442 111 q 486 40 486 60 q 483 -4 486 26 q 257 0 404 0 q 14 -4 110 0 q 40 104 19 54 q 94 120 76 110 q 122 158 111 131 q 143 246 132 185 l 219 696 m 351 1004 q 347 1031 347 1015 q 350 1051 347 1038 q 369 1088 356 1075 q 410 1114 383 1100 q 453 1150 444 1132 q 457 1164 457 1158 q 447 1182 457 1175 q 421 1189 436 1189 q 350 1111 369 1189 q 324 1110 342 1110 q 253 1124 279 1110 q 274 1222 271 1169 q 356 1247 308 1238 q 450 1257 403 1257 q 555 1236 519 1257 q 590 1178 590 1215 q 585 1147 590 1163 q 556 1101 575 1117 q 506 1065 538 1085 q 473 1044 485 1053 q 457 1022 461 1035 q 456 996 451 1007 q 421 993 436 993 q 351 1004 378 993 z "},"Ȋ":{"ha":575,"x_min":14,"x_max":653,"o":"m 219 696 q 228 768 228 742 q 212 815 228 801 q 151 835 196 828 q 146 893 146 868 q 150 943 146 918 q 383 939 218 939 q 622 943 540 939 q 603 835 622 888 q 544 818 563 831 q 517 775 526 806 q 493 668 507 744 l 421 250 q 411 172 411 192 q 426 124 411 138 q 481 104 442 111 q 486 40 486 60 q 483 -4 486 26 q 257 0 404 0 q 14 -4 110 0 q 40 104 19 54 q 94 120 76 110 q 122 158 111 131 q 143 246 132 185 l 219 696 m 446 1215 q 601 1172 550 1215 q 653 1046 653 1128 q 647 989 653 1017 q 619 988 639 988 q 533 1004 571 988 q 501 1056 529 1040 q 417 1072 472 1072 q 319 1047 358 1072 q 272 978 281 1021 q 219 989 244 979 q 179 1014 194 999 q 262 1165 196 1115 q 446 1215 328 1215 z "},"Ī":{"ha":575,"x_min":14,"x_max":663,"o":"m 169 1044 q 181 1108 172 1079 q 199 1151 189 1138 l 663 1151 q 655 1100 661 1128 q 640 1053 649 1072 q 169 1044 342 1053 m 219 696 q 228 768 228 742 q 212 815 228 801 q 151 835 196 828 q 146 893 146 868 q 150 943 146 918 q 383 939 218 939 q 622 943 540 939 q 603 835 622 888 q 544 818 563 831 q 517 775 526 806 q 493 668 507 744 l 421 250 q 411 172 411 192 q 426 124 411 138 q 481 104 442 111 q 486 40 486 60 q 483 -4 486 26 q 257 0 404 0 q 14 -4 110 0 q 40 104 19 54 q 94 120 76 110 q 122 158 111 131 q 143 246 132 185 l 219 696 z "},"Į":{"ha":575,"x_min":14,"x_max":622,"o":"m 383 939 q 622 943 540 939 q 603 835 622 888 q 544 818 563 831 q 517 775 526 806 q 493 668 507 744 l 421 250 q 411 172 411 192 q 426 124 411 138 q 481 104 442 111 q 486 40 486 60 q 483 -4 486 26 q 397 -1 422 -1 q 291 -60 326 -24 q 256 -132 256 -96 q 271 -169 256 -154 q 317 -185 286 -185 q 357 -175 343 -185 q 386 -219 375 -192 q 401 -271 397 -246 q 328 -302 365 -282 q 267 -344 290 -322 q 235 -346 253 -346 q 75 -312 132 -346 q 18 -211 18 -279 q 22 -175 18 -194 q 72 -84 32 -126 q 210 0 111 -42 q 14 -4 96 0 q 40 104 19 54 q 94 120 76 110 q 122 158 111 131 q 143 246 132 185 l 219 696 q 228 768 228 742 q 212 815 228 801 q 151 835 196 828 q 146 893 146 868 q 150 943 146 918 q 383 939 218 939 z "},"Ĩ":{"ha":575,"x_min":14,"x_max":676,"o":"m 476 1008 q 420 1017 440 1008 q 376 1040 400 1025 q 347 1057 360 1051 q 317 1063 335 1063 q 261 1049 289 1063 q 200 1011 233 1035 q 172 1059 181 1036 q 163 1114 163 1082 q 264 1199 217 1175 q 361 1224 311 1224 q 414 1215 394 1224 q 453 1192 433 1207 q 481 1174 471 1179 q 508 1169 492 1169 q 563 1185 535 1169 q 611 1224 592 1201 q 676 1124 667 1183 q 584 1036 632 1064 q 476 1008 536 1008 m 219 696 q 228 768 228 742 q 212 815 228 801 q 151 835 196 828 q 146 893 146 868 q 150 943 146 918 q 383 939 218 939 q 622 943 540 939 q 603 835 622 888 q 544 818 563 831 q 517 775 526 806 q 493 668 507 744 l 421 250 q 411 172 411 192 q 426 124 411 138 q 481 104 442 111 q 486 40 486 60 q 483 -4 486 26 q 257 0 404 0 q 14 -4 110 0 q 40 104 19 54 q 94 120 76 110 q 122 158 111 131 q 143 246 132 185 l 219 696 z "},"J":{"ha":536,"x_min":-87,"x_max":622,"o":"m 150 943 q 389 939 217 939 q 622 943 531 939 q 606 835 621 883 q 547 820 565 831 q 517 776 529 810 q 492 664 506 743 l 406 174 q 338 -59 382 33 q 205 -221 294 -151 q -44 -342 115 -290 q -78 -291 -68 -321 q -87 -221 -87 -261 q 45 -109 -1 -178 q 115 100 92 -40 l 218 692 q 228 771 228 750 q 212 818 228 806 q 153 835 196 831 q 147 892 147 858 q 150 943 147 910 z "},"Ĵ":{"ha":536,"x_min":-87,"x_max":650,"o":"m 268 978 q 210 1016 232 994 q 175 1071 188 1038 q 332 1182 228 1103 q 378 1217 347 1194 q 450 1221 411 1221 q 504 1215 486 1221 l 588 1114 l 650 1038 q 581 1001 622 1014 q 503 989 539 988 q 459 1019 482 1006 q 413 1044 436 1032 l 388 1058 q 268 978 315 1021 m 150 943 q 389 939 217 939 q 622 943 531 939 q 606 835 621 883 q 547 820 565 831 q 517 776 529 810 q 492 664 506 743 l 406 174 q 338 -59 382 33 q 205 -221 294 -151 q -44 -342 115 -290 q -78 -291 -68 -321 q -87 -221 -87 -261 q 45 -109 -1 -178 q 115 100 92 -40 l 218 692 q 228 771 228 750 q 212 818 228 806 q 153 835 196 831 q 147 892 147 858 q 150 943 147 910 z "},"K":{"ha":1089,"x_min":14,"x_max":1108,"o":"m 1089 833 q 1022 822 1049 831 q 961 790 994 813 q 871 721 928 768 l 658 544 q 850 253 772 435 q 888 188 869 206 q 933 169 907 169 q 1001 186 975 169 q 1029 144 1017 171 q 1044 93 1042 117 q 933 15 997 42 q 796 -12 868 -12 q 653 26 704 -12 q 572 158 603 64 q 519 298 549 236 q 450 421 490 360 l 419 246 q 411 168 411 196 q 424 122 411 135 q 467 104 436 110 q 472 40 472 60 q 469 -4 472 26 q 257 0 390 0 q 14 -4 110 0 q 40 104 19 54 q 99 122 81 107 q 126 166 118 138 q 147 274 133 194 l 219 696 q 228 768 228 742 q 212 815 228 801 q 151 835 196 828 q 146 893 146 868 q 150 943 146 918 q 383 939 218 939 q 622 943 540 939 q 603 835 622 888 q 544 818 563 831 q 517 775 526 806 q 493 668 507 744 l 469 531 l 686 717 q 754 779 735 758 q 774 813 774 800 q 744 835 774 826 q 740 890 740 860 q 743 943 740 907 q 918 939 797 939 q 1108 943 1061 939 q 1089 833 1108 888 z "},"Ǩ":{"ha":1089,"x_min":14,"x_max":1108,"o":"m 1089 833 q 1022 822 1049 831 q 961 790 994 813 q 871 721 928 768 l 658 544 q 850 253 772 435 q 888 188 869 206 q 933 169 907 169 q 1001 186 975 169 q 1029 144 1017 171 q 1044 93 1042 117 q 933 15 997 42 q 796 -12 868 -12 q 653 26 704 -12 q 572 158 603 64 q 519 298 549 236 q 450 421 490 360 l 419 246 q 411 168 411 196 q 424 122 411 135 q 467 104 436 110 q 472 40 472 60 q 469 -4 472 26 q 257 0 390 0 q 14 -4 110 0 q 40 104 19 54 q 99 122 81 107 q 126 166 118 138 q 147 274 133 194 l 219 696 q 228 768 228 742 q 212 815 228 801 q 151 835 196 828 q 146 893 146 868 q 150 943 146 918 q 383 939 218 939 q 622 943 540 939 q 603 835 622 888 q 544 818 563 831 q 517 775 526 806 q 493 668 507 744 l 469 531 l 686 717 q 754 779 735 758 q 774 813 774 800 q 744 835 774 826 q 740 890 740 860 q 743 943 740 907 q 918 939 797 939 q 1108 943 1061 939 q 1089 833 1108 888 m 610 1008 q 526 1083 571 1049 q 422 1161 482 1118 q 531 1242 451 1238 q 703 1169 603 1201 q 792 1197 744 1176 q 896 1249 839 1218 q 942 1217 921 1240 q 974 1164 963 1193 q 735 1025 828 1083 q 644 1007 699 1007 q 610 1008 621 1007 z "},"Ķ":{"ha":1089,"x_min":14,"x_max":1108,"o":"m 1089 833 q 1022 822 1049 831 q 961 790 994 813 q 871 721 928 768 l 658 544 q 850 253 772 435 q 888 188 869 206 q 933 169 907 169 q 1001 186 975 169 q 1029 144 1017 171 q 1044 93 1042 117 q 933 15 997 42 q 796 -12 868 -12 q 653 26 704 -12 q 572 158 603 64 q 519 298 549 236 q 450 421 490 360 l 419 246 q 411 168 411 196 q 424 122 411 135 q 467 104 436 110 q 472 40 472 60 q 469 -4 472 26 q 257 0 390 0 q 14 -4 110 0 q 40 104 19 54 q 99 122 81 107 q 126 166 118 138 q 147 274 133 194 l 219 696 q 228 768 228 742 q 212 815 228 801 q 151 835 196 828 q 146 893 146 868 q 150 943 146 918 q 383 939 218 939 q 622 943 540 939 q 603 835 622 888 q 544 818 563 831 q 517 775 526 806 q 493 668 507 744 l 469 531 l 686 717 q 754 779 735 758 q 774 813 774 800 q 744 835 774 826 q 740 890 740 860 q 743 943 740 907 q 918 939 797 939 q 1108 943 1061 939 q 1089 833 1108 888 m 454 -442 q 375 -392 399 -435 q 436 -336 413 -367 q 460 -279 460 -306 q 440 -245 460 -257 q 376 -228 419 -233 q 419 -94 381 -150 q 601 -51 533 -92 q 647 -79 633 -61 q 661 -131 661 -97 q 658 -168 661 -154 q 454 -442 633 -331 z "},"L":{"ha":889,"x_min":14,"x_max":861,"o":"m 14 -4 q 40 104 21 56 q 97 121 79 108 q 124 165 114 133 q 147 274 133 196 l 221 696 q 229 768 229 742 q 213 815 229 801 q 151 835 196 828 q 146 890 146 857 q 150 943 146 917 q 390 939 218 939 q 650 943 568 939 q 631 835 650 885 q 554 817 578 829 q 518 773 531 804 q 493 668 506 742 l 421 253 q 413 174 413 203 q 431 118 413 132 q 499 104 450 104 l 522 104 q 638 156 592 104 q 719 313 685 207 q 861 249 806 294 q 824 132 843 204 q 797 -4 806 60 q 436 0 703 0 q 14 -4 108 0 z "},"Ǉ":{"ha":1425,"x_min":14,"x_max":1511,"o":"m 14 -4 q 40 104 21 56 q 97 121 79 108 q 124 165 114 133 q 147 274 133 196 l 221 696 q 229 768 229 742 q 213 815 229 801 q 151 835 196 828 q 146 890 146 857 q 150 943 146 917 q 390 939 218 939 q 650 943 568 939 q 631 835 650 885 q 554 817 578 829 q 518 773 531 804 q 493 668 506 742 l 421 253 q 413 174 413 203 q 431 118 413 132 q 499 104 450 104 l 522 104 q 638 156 592 104 q 719 313 685 207 q 861 249 806 294 q 824 132 843 204 q 797 -4 806 60 q 436 0 703 0 q 14 -4 108 0 m 1039 943 q 1278 939 1106 939 q 1511 943 1419 939 q 1494 835 1510 883 q 1436 820 1454 831 q 1406 776 1418 810 q 1381 664 1394 743 l 1294 174 q 1227 -59 1271 33 q 1094 -221 1183 -151 q 844 -342 1004 -290 q 811 -291 821 -321 q 801 -221 801 -261 q 934 -109 888 -178 q 1004 100 981 -40 l 1107 692 q 1117 771 1117 750 q 1101 818 1117 806 q 1042 835 1085 831 q 1036 892 1036 858 q 1039 943 1036 910 z "},"Ĺ":{"ha":889,"x_min":14,"x_max":861,"o":"m 14 -4 q 40 104 21 56 q 97 121 79 108 q 124 165 114 133 q 147 274 133 196 l 221 696 q 229 768 229 742 q 213 815 229 801 q 151 835 196 828 q 146 890 146 857 q 150 943 146 917 q 390 939 218 939 q 650 943 568 939 q 631 835 650 885 q 554 817 578 829 q 518 773 531 804 q 493 668 506 742 l 421 253 q 413 174 413 203 q 431 118 413 132 q 499 104 450 104 l 522 104 q 638 156 592 104 q 719 313 685 207 q 861 249 806 294 q 824 132 843 204 q 797 -4 806 60 q 436 0 703 0 q 14 -4 108 0 m 433 1017 q 300 1065 358 1026 q 360 1147 331 1097 q 403 1228 390 1196 q 465 1231 444 1231 q 564 1224 518 1231 q 638 1204 610 1217 q 433 1017 483 1065 z "},"Ľ":{"ha":931,"x_min":14,"x_max":1007,"o":"m 14 -4 q 40 104 21 56 q 97 121 79 108 q 124 165 114 133 q 147 274 133 196 l 221 696 q 229 768 229 742 q 213 815 229 801 q 151 835 196 828 q 146 890 146 857 q 150 943 146 917 q 390 939 218 939 q 650 943 568 939 q 631 835 650 885 q 554 817 578 829 q 518 773 531 804 q 493 668 506 742 l 421 253 q 413 174 413 203 q 431 118 413 132 q 499 104 450 104 l 522 104 q 638 156 592 104 q 719 313 685 207 q 861 249 806 294 q 824 132 843 204 q 797 -4 806 60 q 436 0 703 0 q 14 -4 108 0 m 817 576 q 731 628 754 585 q 814 763 814 707 q 792 808 814 790 q 729 831 771 825 q 772 983 729 915 q 958 1035 878 988 q 1007 935 1007 1014 q 1000 868 1007 901 q 937 707 983 783 q 817 576 890 631 z "},"Ļ":{"ha":889,"x_min":14,"x_max":861,"o":"m 14 -4 q 40 104 21 56 q 97 121 79 108 q 124 165 114 133 q 147 274 133 196 l 221 696 q 229 768 229 742 q 213 815 229 801 q 151 835 196 828 q 146 890 146 857 q 150 943 146 917 q 390 939 218 939 q 650 943 568 939 q 631 835 650 885 q 554 817 578 829 q 518 773 531 804 q 493 668 506 742 l 421 253 q 413 174 413 203 q 431 118 413 132 q 499 104 450 104 l 522 104 q 638 156 592 104 q 719 313 685 207 q 861 249 806 294 q 824 132 843 204 q 797 -4 806 60 q 436 0 703 0 q 14 -4 108 0 m 310 -442 q 231 -392 254 -435 q 292 -336 268 -367 q 315 -279 315 -306 q 295 -245 315 -257 q 232 -228 275 -233 q 275 -94 236 -150 q 457 -51 389 -92 q 503 -79 489 -61 q 517 -131 517 -97 q 514 -168 517 -154 q 310 -442 489 -331 z "},"Ŀ":{"ha":889,"x_min":14,"x_max":871,"o":"m 14 -4 q 40 104 21 56 q 97 121 79 108 q 124 165 114 133 q 147 274 133 196 l 221 696 q 229 768 229 742 q 213 815 229 801 q 151 835 196 828 q 146 890 146 857 q 150 943 146 917 q 390 939 218 939 q 650 943 568 939 q 631 835 650 885 q 554 817 578 829 q 518 773 531 804 q 493 668 506 742 l 421 253 q 413 174 413 203 q 431 118 413 132 q 499 104 450 104 l 522 104 q 638 156 592 104 q 719 313 685 207 q 861 249 806 294 q 824 132 843 204 q 797 -4 806 60 q 436 0 703 0 q 14 -4 108 0 m 768 408 q 696 431 722 408 q 669 493 669 453 q 672 522 669 513 q 706 580 679 560 q 779 600 733 600 q 844 576 817 600 q 871 510 871 551 q 868 486 871 503 q 768 408 853 408 z "},"Ḷ":{"ha":889,"x_min":14,"x_max":861,"o":"m 14 -4 q 40 104 21 56 q 97 121 79 108 q 124 165 114 133 q 147 274 133 196 l 221 696 q 229 768 229 742 q 213 815 229 801 q 151 835 196 828 q 146 890 146 857 q 150 943 146 917 q 390 939 218 939 q 650 943 568 939 q 631 835 650 885 q 554 817 578 829 q 518 773 531 804 q 493 668 506 742 l 421 253 q 413 174 413 203 q 431 118 413 132 q 499 104 450 104 l 522 104 q 638 156 592 104 q 719 313 685 207 q 861 249 806 294 q 824 132 843 204 q 797 -4 806 60 q 436 0 703 0 q 14 -4 108 0 m 349 -343 q 249 -314 283 -343 q 214 -236 214 -285 q 217 -210 214 -229 q 272 -122 228 -151 q 379 -93 315 -93 q 479 -123 446 -93 q 513 -203 513 -153 q 467 -308 513 -272 q 349 -343 421 -343 z "},"ǈ":{"ha":1318,"x_min":14,"x_max":1342,"o":"m 14 -4 q 40 104 21 56 q 97 121 79 108 q 124 165 114 133 q 147 274 133 196 l 221 696 q 229 768 229 742 q 213 815 229 801 q 151 835 196 828 q 146 890 146 857 q 150 943 146 917 q 390 939 218 939 q 650 943 568 939 q 631 835 650 885 q 554 817 578 829 q 518 773 531 804 q 493 668 506 742 l 421 253 q 413 174 413 203 q 431 118 413 132 q 499 104 450 104 l 522 104 q 638 156 592 104 q 719 313 685 207 q 861 249 806 294 q 824 132 843 204 q 797 -4 806 60 q 436 0 703 0 q 14 -4 108 0 m 1165 708 q 1077 738 1110 708 q 1044 819 1044 768 q 1090 922 1044 886 q 1219 958 1136 958 q 1308 928 1274 958 q 1342 847 1342 897 q 1339 822 1342 839 q 1165 708 1319 708 m 796 -342 q 753 -232 753 -304 q 881 -121 831 -193 q 951 72 931 -49 l 1001 365 q 1010 435 1010 410 q 992 476 1010 465 q 928 488 975 488 q 946 592 928 546 q 1263 649 1129 596 q 1294 612 1285 628 q 1303 571 1303 596 q 1299 526 1303 554 l 1236 174 q 1157 -81 1208 17 q 1020 -237 1106 -178 q 796 -342 935 -296 z "},"Ḻ":{"ha":889,"x_min":14,"x_max":861,"o":"m 14 -4 q 40 104 21 56 q 97 121 79 108 q 124 165 114 133 q 147 274 133 196 l 221 696 q 229 768 229 742 q 213 815 229 801 q 151 835 196 828 q 146 890 146 857 q 150 943 146 917 q 390 939 218 939 q 650 943 568 939 q 631 835 650 885 q 554 817 578 829 q 518 773 531 804 q 493 668 506 742 l 421 253 q 413 174 413 203 q 431 118 413 132 q 499 104 450 104 l 522 104 q 638 156 592 104 q 719 313 685 207 q 861 249 806 294 q 824 132 843 204 q 797 -4 806 60 q 436 0 703 0 q 14 -4 108 0 m 107 -253 q 119 -162 107 -196 l 622 -162 q 610 -243 622 -207 q 107 -253 332 -243 z "},"Ł":{"ha":889,"x_min":14,"x_max":861,"o":"m 719 313 q 861 249 806 294 q 824 132 843 204 q 797 -4 806 60 q 436 0 703 0 q 14 -4 108 0 q 40 104 21 56 q 97 121 79 108 q 124 165 114 133 q 147 274 133 196 l 153 308 l 83 258 q 52 310 64 278 q 42 374 40 343 l 182 469 l 221 696 q 229 768 229 742 q 213 815 229 801 q 151 835 196 828 q 146 890 146 857 q 150 943 146 917 q 390 939 218 939 q 650 943 568 939 q 631 835 650 885 q 554 817 578 829 q 518 773 531 804 q 493 668 506 742 l 490 649 l 575 707 q 603 657 593 686 q 611 599 613 628 l 464 496 l 421 253 q 413 174 413 203 q 431 118 413 132 q 499 104 450 104 l 522 104 q 638 156 592 104 q 719 313 685 207 z "},"M":{"ha":1354,"x_min":-50,"x_max":1356,"o":"m 1238 582 q 1218 279 1226 379 q 1213 196 1213 213 q 1228 128 1213 147 q 1282 104 1243 108 q 1288 49 1288 82 q 1283 -4 1288 24 q 1043 0 1215 0 q 797 -4 879 0 q 817 104 797 54 q 888 126 865 110 q 921 177 911 142 q 939 292 931 213 q 963 590 949 390 l 967 660 q 594 -4 797 331 q 489 -12 553 -12 q 306 672 408 340 q 272 530 293 615 q 238 394 250 444 l 214 303 q 192 181 192 217 q 208 130 192 147 q 264 104 225 113 q 268 47 268 78 q 265 -4 268 29 q 122 0 228 0 q -50 -4 -10 0 q -29 104 -50 57 q 40 157 14 118 q 99 300 65 196 q 211 714 165 511 q 221 781 221 765 q 206 819 221 808 q 149 835 190 829 q 143 889 143 857 q 147 943 143 917 q 333 939 197 939 q 528 943 460 939 q 678 363 621 629 q 997 943 842 638 q 1190 939 1074 939 q 1356 943 1288 939 q 1338 835 1356 886 q 1282 810 1301 828 q 1254 759 1263 793 q 1242 660 1246 725 l 1238 582 z "},"Ṃ":{"ha":1354,"x_min":-50,"x_max":1356,"o":"m 1238 582 q 1218 279 1226 379 q 1213 196 1213 213 q 1228 128 1213 147 q 1282 104 1243 108 q 1288 49 1288 82 q 1283 -4 1288 24 q 1043 0 1215 0 q 797 -4 879 0 q 817 104 797 54 q 888 126 865 110 q 921 177 911 142 q 939 292 931 213 q 963 590 949 390 l 967 660 q 594 -4 797 331 q 489 -12 553 -12 q 306 672 408 340 q 272 530 293 615 q 238 394 250 444 l 214 303 q 192 181 192 217 q 208 130 192 147 q 264 104 225 113 q 268 47 268 78 q 265 -4 268 29 q 122 0 228 0 q -50 -4 -10 0 q -29 104 -50 57 q 40 157 14 118 q 99 300 65 196 q 211 714 165 511 q 221 781 221 765 q 206 819 221 808 q 149 835 190 829 q 143 889 143 857 q 147 943 143 917 q 333 939 197 939 q 528 943 460 939 q 678 363 621 629 q 997 943 842 638 q 1190 939 1074 939 q 1356 943 1288 939 q 1338 835 1356 886 q 1282 810 1301 828 q 1254 759 1263 793 q 1242 660 1246 725 l 1238 582 m 475 -343 q 375 -314 410 -343 q 340 -236 340 -285 q 343 -210 340 -229 q 398 -122 354 -151 q 506 -93 442 -93 q 606 -123 572 -93 q 639 -203 639 -153 q 593 -308 639 -272 q 475 -343 547 -343 z "},"N":{"ha":989,"x_min":8,"x_max":1076,"o":"m 900 939 q 1076 943 1018 939 q 1056 835 1074 881 q 993 803 1014 822 q 959 748 972 785 q 933 636 946 711 l 822 1 q 694 -12 774 -12 q 331 650 533 304 l 271 303 q 258 196 258 235 q 278 135 258 154 q 349 104 297 117 q 353 47 353 78 q 350 -4 353 29 q 185 0 288 0 q 8 -4 67 0 q 29 104 11 58 q 97 136 72 118 q 137 192 121 154 q 165 303 153 231 l 250 785 q 246 790 247 788 q 243 796 244 793 q 213 824 231 817 q 151 835 196 832 q 146 889 146 858 q 150 943 146 914 q 326 939 207 939 q 488 943 439 939 q 789 408 657 674 l 824 636 q 833 732 833 707 q 813 801 833 779 q 736 835 792 822 q 732 892 732 863 q 735 943 732 910 q 900 939 797 939 z "},"Ǌ":{"ha":1483,"x_min":8,"x_max":1569,"o":"m 900 939 q 1076 943 1018 939 q 1056 835 1074 881 q 993 803 1014 822 q 959 748 972 785 q 933 636 946 711 l 822 1 q 694 -12 774 -12 q 331 650 533 304 l 271 303 q 258 196 258 235 q 278 135 258 154 q 349 104 297 117 q 353 47 353 78 q 350 -4 353 29 q 185 0 288 0 q 8 -4 67 0 q 29 104 11 58 q 97 136 72 118 q 137 192 121 154 q 165 303 153 231 l 250 785 q 246 790 247 788 q 243 796 244 793 q 213 824 231 817 q 151 835 196 832 q 146 889 146 858 q 150 943 146 914 q 326 939 207 939 q 488 943 439 939 q 789 408 657 674 l 824 636 q 833 732 833 707 q 813 801 833 779 q 736 835 792 822 q 732 892 732 863 q 735 943 732 910 q 900 939 797 939 m 1097 943 q 1336 939 1164 939 q 1569 943 1478 939 q 1553 835 1568 883 q 1494 820 1513 831 q 1465 776 1476 810 q 1439 664 1453 743 l 1353 174 q 1285 -59 1329 33 q 1152 -221 1242 -151 q 903 -342 1063 -290 q 869 -291 879 -321 q 860 -221 860 -261 q 992 -109 946 -178 q 1063 100 1039 -40 l 1165 692 q 1175 771 1175 750 q 1159 818 1175 806 q 1100 835 1143 831 q 1094 892 1094 858 q 1097 943 1094 910 z "},"Ń":{"ha":989,"x_min":8,"x_max":1076,"o":"m 900 939 q 1076 943 1018 939 q 1056 835 1074 881 q 993 803 1014 822 q 959 748 972 785 q 933 636 946 711 l 822 1 q 694 -12 774 -12 q 331 650 533 304 l 271 303 q 258 196 258 235 q 278 135 258 154 q 349 104 297 117 q 353 47 353 78 q 350 -4 353 29 q 185 0 288 0 q 8 -4 67 0 q 29 104 11 58 q 97 136 72 118 q 137 192 121 154 q 165 303 153 231 l 250 785 q 246 790 247 788 q 243 796 244 793 q 213 824 231 817 q 151 835 196 832 q 146 889 146 858 q 150 943 146 914 q 326 939 207 939 q 488 943 439 939 q 789 408 657 674 l 824 636 q 833 732 833 707 q 813 801 833 779 q 736 835 792 822 q 732 892 732 863 q 735 943 732 910 q 900 939 797 939 m 658 1017 q 525 1065 583 1026 q 585 1147 556 1097 q 628 1228 615 1196 q 690 1231 669 1231 q 789 1224 743 1231 q 863 1204 835 1217 q 658 1017 708 1065 z "},"Ň":{"ha":989,"x_min":8,"x_max":1076,"o":"m 900 939 q 1076 943 1018 939 q 1056 835 1074 881 q 993 803 1014 822 q 959 748 972 785 q 933 636 946 711 l 822 1 q 694 -12 774 -12 q 331 650 533 304 l 271 303 q 258 196 258 235 q 278 135 258 154 q 349 104 297 117 q 353 47 353 78 q 350 -4 353 29 q 185 0 288 0 q 8 -4 67 0 q 29 104 11 58 q 97 136 72 118 q 137 192 121 154 q 165 303 153 231 l 250 785 q 246 790 247 788 q 243 796 244 793 q 213 824 231 817 q 151 835 196 832 q 146 889 146 858 q 150 943 146 914 q 326 939 207 939 q 488 943 439 939 q 789 408 657 674 l 824 636 q 833 732 833 707 q 813 801 833 779 q 736 835 792 822 q 732 892 732 863 q 735 943 732 910 q 900 939 797 939 m 579 1008 q 496 1083 540 1049 q 392 1161 451 1118 q 500 1242 421 1238 q 672 1169 572 1201 q 761 1197 714 1176 q 865 1249 808 1218 q 911 1217 890 1240 q 943 1164 932 1193 q 704 1025 797 1083 q 614 1007 668 1007 q 579 1008 590 1007 z "},"Ņ":{"ha":989,"x_min":8,"x_max":1076,"o":"m 900 939 q 1076 943 1018 939 q 1056 835 1074 881 q 993 803 1014 822 q 959 748 972 785 q 933 636 946 711 l 822 1 q 694 -12 774 -12 q 331 650 533 304 l 271 303 q 258 196 258 235 q 278 135 258 154 q 349 104 297 117 q 353 47 353 78 q 350 -4 353 29 q 185 0 288 0 q 8 -4 67 0 q 29 104 11 58 q 97 136 72 118 q 137 192 121 154 q 165 303 153 231 l 250 785 q 246 790 247 788 q 243 796 244 793 q 213 824 231 817 q 151 835 196 832 q 146 889 146 858 q 150 943 146 914 q 326 939 207 939 q 488 943 439 939 q 789 408 657 674 l 824 636 q 833 732 833 707 q 813 801 833 779 q 736 835 792 822 q 732 892 732 863 q 735 943 732 910 q 900 939 797 939 m 400 -442 q 321 -392 344 -435 q 382 -336 358 -367 q 406 -279 406 -306 q 385 -245 406 -257 q 322 -228 365 -233 q 365 -94 326 -150 q 547 -51 479 -92 q 593 -79 579 -61 q 607 -131 607 -97 q 604 -168 607 -154 q 400 -442 579 -331 z "},"Ṅ":{"ha":989,"x_min":8,"x_max":1076,"o":"m 900 939 q 1076 943 1018 939 q 1056 835 1074 881 q 993 803 1014 822 q 959 748 972 785 q 933 636 946 711 l 822 1 q 694 -12 774 -12 q 331 650 533 304 l 271 303 q 258 196 258 235 q 278 135 258 154 q 349 104 297 117 q 353 47 353 78 q 350 -4 353 29 q 185 0 288 0 q 8 -4 67 0 q 29 104 11 58 q 97 136 72 118 q 137 192 121 154 q 165 303 153 231 l 250 785 q 246 790 247 788 q 243 796 244 793 q 213 824 231 817 q 151 835 196 832 q 146 889 146 858 q 150 943 146 914 q 326 939 207 939 q 488 943 439 939 q 789 408 657 674 l 824 636 q 833 732 833 707 q 813 801 833 779 q 736 835 792 822 q 732 892 732 863 q 735 943 732 910 q 900 939 797 939 m 643 993 q 550 1023 585 993 q 515 1104 515 1053 q 560 1196 515 1164 q 685 1228 604 1228 q 776 1197 740 1228 q 813 1115 813 1165 q 643 993 813 993 z "},"Ṇ":{"ha":989,"x_min":8,"x_max":1076,"o":"m 900 939 q 1076 943 1018 939 q 1056 835 1074 881 q 993 803 1014 822 q 959 748 972 785 q 933 636 946 711 l 822 1 q 694 -12 774 -12 q 331 650 533 304 l 271 303 q 258 196 258 235 q 278 135 258 154 q 349 104 297 117 q 353 47 353 78 q 350 -4 353 29 q 185 0 288 0 q 8 -4 67 0 q 29 104 11 58 q 97 136 72 118 q 137 192 121 154 q 165 303 153 231 l 250 785 q 246 790 247 788 q 243 796 244 793 q 213 824 231 817 q 151 835 196 832 q 146 889 146 858 q 150 943 146 914 q 326 939 207 939 q 488 943 439 939 q 789 408 657 674 l 824 636 q 833 732 833 707 q 813 801 833 779 q 736 835 792 822 q 732 892 732 863 q 735 943 732 910 q 900 939 797 939 m 439 -343 q 339 -314 374 -343 q 304 -236 304 -285 q 307 -210 304 -229 q 362 -122 318 -151 q 469 -93 406 -93 q 569 -123 536 -93 q 603 -203 603 -153 q 557 -308 603 -272 q 439 -343 511 -343 z "},"Ŋ":{"ha":1015,"x_min":106,"x_max":1051,"o":"m 883 947 q 1006 895 961 947 q 1051 725 1051 843 q 1032 551 1051 647 l 956 175 q 849 -93 925 26 q 678 -279 774 -212 q 494 -346 582 -346 q 399 -321 440 -346 q 335 -256 358 -296 q 349 -189 336 -228 q 379 -115 361 -150 q 441 -139 399 -131 q 515 -147 483 -147 q 579 -128 557 -147 q 614 -68 601 -108 q 644 60 626 -28 l 736 519 q 753 653 753 606 q 708 733 753 733 q 609 668 665 733 q 501 479 553 603 q 417 192 449 356 l 385 0 l 106 0 l 208 564 q 225 686 225 660 q 203 741 225 728 q 119 754 181 754 q 140 864 122 824 q 320 892 224 868 q 493 947 417 915 q 532 911 521 933 q 543 857 543 889 q 540 815 543 846 q 514 692 533 763 q 467 564 494 621 l 467 561 l 499 631 q 597 784 536 711 q 733 902 658 857 q 883 947 807 947 z "},"Ɲ":{"ha":975,"x_min":-337,"x_max":1067,"o":"m 919 939 q 1067 943 1017 939 q 1036 835 1054 872 q 976 814 997 829 q 941 759 956 799 q 911 636 926 719 l 786 0 q 731 -10 760 -8 q 658 -12 703 -12 l 308 629 l 213 129 q 120 -135 182 -29 q -21 -294 58 -242 q -186 -346 -100 -346 q -282 -324 -243 -346 q -337 -271 -321 -303 q -323 -198 -336 -242 q -290 -121 -310 -154 q -224 -139 -267 -131 q -142 -147 -182 -147 q 19 -87 -39 -147 q 103 107 78 -26 l 232 769 l 218 796 q 193 823 210 815 q 132 835 176 831 q 142 943 131 874 q 326 939 196 939 q 483 943 446 939 l 764 417 l 807 636 q 822 749 822 713 q 801 810 822 793 q 726 835 781 828 q 738 943 725 871 q 919 939 796 939 z "},"ǋ":{"ha":1418,"x_min":8,"x_max":1442,"o":"m 900 939 q 1076 943 1018 939 q 1056 835 1074 881 q 993 803 1014 822 q 959 748 972 785 q 933 636 946 711 l 822 1 q 694 -12 774 -12 q 331 650 533 304 l 271 303 q 258 196 258 235 q 278 135 258 154 q 349 104 297 117 q 353 47 353 78 q 350 -4 353 29 q 185 0 288 0 q 8 -4 67 0 q 29 104 11 58 q 97 136 72 118 q 137 192 121 154 q 165 303 153 231 l 250 785 q 246 790 247 788 q 243 796 244 793 q 213 824 231 817 q 151 835 196 832 q 146 889 146 858 q 150 943 146 914 q 326 939 207 939 q 488 943 439 939 q 789 408 657 674 l 824 636 q 833 732 833 707 q 813 801 833 779 q 736 835 792 822 q 732 892 732 863 q 735 943 732 910 q 900 939 797 939 m 1265 708 q 1177 738 1210 708 q 1144 819 1144 768 q 1190 922 1144 886 q 1319 958 1236 958 q 1408 928 1374 958 q 1442 847 1442 897 q 1439 822 1442 839 q 1265 708 1419 708 m 896 -342 q 853 -232 853 -304 q 981 -121 931 -193 q 1051 72 1031 -49 l 1101 365 q 1110 435 1110 410 q 1092 476 1110 465 q 1028 488 1075 488 q 1046 592 1028 546 q 1363 649 1229 596 q 1394 612 1385 628 q 1403 571 1403 596 q 1399 526 1403 554 l 1336 174 q 1257 -81 1308 17 q 1120 -237 1206 -178 q 896 -342 1035 -296 z "},"Ṉ":{"ha":989,"x_min":8,"x_max":1076,"o":"m 900 939 q 1076 943 1018 939 q 1056 835 1074 881 q 993 803 1014 822 q 959 748 972 785 q 933 636 946 711 l 822 1 q 694 -12 774 -12 q 331 650 533 304 l 271 303 q 258 196 258 235 q 278 135 258 154 q 349 104 297 117 q 353 47 353 78 q 350 -4 353 29 q 185 0 288 0 q 8 -4 67 0 q 29 104 11 58 q 97 136 72 118 q 137 192 121 154 q 165 303 153 231 l 250 785 q 246 790 247 788 q 243 796 244 793 q 213 824 231 817 q 151 835 196 832 q 146 889 146 858 q 150 943 146 914 q 326 939 207 939 q 488 943 439 939 q 789 408 657 674 l 824 636 q 833 732 833 707 q 813 801 833 779 q 736 835 792 822 q 732 892 732 863 q 735 943 732 910 q 900 939 797 939 m 197 -253 q 210 -162 197 -196 l 713 -162 q 700 -243 713 -207 q 197 -253 422 -243 z "},"Ñ":{"ha":989,"x_min":8,"x_max":1076,"o":"m 900 939 q 1076 943 1018 939 q 1056 835 1074 881 q 993 803 1014 822 q 959 748 972 785 q 933 636 946 711 l 822 1 q 694 -12 774 -12 q 331 650 533 304 l 271 303 q 258 196 258 235 q 278 135 258 154 q 349 104 297 117 q 353 47 353 78 q 350 -4 353 29 q 185 0 288 0 q 8 -4 67 0 q 29 104 11 58 q 97 136 72 118 q 137 192 121 154 q 165 303 153 231 l 250 785 q 246 790 247 788 q 243 796 244 793 q 213 824 231 817 q 151 835 196 832 q 146 889 146 858 q 150 943 146 914 q 326 939 207 939 q 488 943 439 939 q 789 408 657 674 l 824 636 q 833 732 833 707 q 813 801 833 779 q 736 835 792 822 q 732 892 732 863 q 735 943 732 910 q 900 939 797 939 m 721 1021 q 659 1031 682 1021 q 607 1060 636 1040 q 574 1081 589 1074 q 538 1089 558 1089 q 476 1071 506 1089 q 414 1022 446 1053 q 388 1072 396 1049 q 379 1124 379 1094 q 381 1149 379 1139 q 484 1213 426 1193 q 592 1233 542 1233 q 653 1224 628 1233 q 708 1196 679 1214 q 749 1176 733 1182 q 782 1169 764 1169 q 837 1188 811 1169 q 881 1232 863 1206 q 961 1160 938 1207 q 852 1056 914 1092 q 721 1021 790 1021 z "},"O":{"ha":1031,"x_min":57,"x_max":1035,"o":"m 471 -12 q 248 36 342 -12 q 106 172 154 85 q 57 374 57 258 q 68 488 57 425 q 173 738 96 633 q 365 897 250 842 q 617 951 479 951 q 839 905 744 951 q 984 773 933 858 q 1035 572 1035 688 q 1024 464 1035 524 q 921 215 997 322 q 728 47 844 107 q 471 -12 613 -12 m 483 96 q 641 203 572 96 q 743 490 710 310 q 754 611 754 547 q 715 783 754 718 q 603 847 676 847 q 450 753 515 847 q 353 493 385 658 q 335 326 335 396 q 372 158 335 219 q 483 96 408 96 z "},"Ó":{"ha":1031,"x_min":57,"x_max":1035,"o":"m 471 -12 q 248 36 342 -12 q 106 172 154 85 q 57 374 57 258 q 68 488 57 425 q 173 738 96 633 q 365 897 250 842 q 617 951 479 951 q 839 905 744 951 q 984 773 933 858 q 1035 572 1035 688 q 1024 464 1035 524 q 921 215 997 322 q 728 47 844 107 q 471 -12 613 -12 m 483 96 q 641 203 572 96 q 743 490 710 310 q 754 611 754 547 q 715 783 754 718 q 603 847 676 847 q 450 753 515 847 q 353 493 385 658 q 335 326 335 396 q 372 158 335 219 q 483 96 408 96 m 657 1017 q 524 1065 582 1026 q 584 1147 554 1097 q 626 1228 614 1196 q 689 1231 668 1231 q 788 1224 742 1231 q 861 1204 833 1217 q 657 1017 707 1065 z "},"Ŏ":{"ha":1031,"x_min":57,"x_max":1035,"o":"m 471 -12 q 248 36 342 -12 q 106 172 154 85 q 57 374 57 258 q 68 488 57 425 q 173 738 96 633 q 365 897 250 842 q 617 951 479 951 q 839 905 744 951 q 984 773 933 858 q 1035 572 1035 688 q 1024 464 1035 524 q 921 215 997 322 q 728 47 844 107 q 471 -12 613 -12 m 483 96 q 641 203 572 96 q 743 490 710 310 q 754 611 754 547 q 715 783 754 718 q 603 847 676 847 q 450 753 515 847 q 353 493 385 658 q 335 326 335 396 q 372 158 335 219 q 483 96 408 96 m 626 1003 q 374 1167 374 1003 q 378 1210 374 1188 q 479 1226 421 1226 q 528 1222 504 1226 q 668 1143 528 1143 q 829 1222 807 1143 q 879 1228 851 1228 q 954 1214 919 1228 q 853 1056 936 1108 q 626 1003 769 1003 z "},"Ǒ":{"ha":1031,"x_min":57,"x_max":1035,"o":"m 471 -12 q 248 36 342 -12 q 106 172 154 85 q 57 374 57 258 q 68 488 57 425 q 173 738 96 633 q 365 897 250 842 q 617 951 479 951 q 839 905 744 951 q 984 773 933 858 q 1035 572 1035 688 q 1024 464 1035 524 q 921 215 997 322 q 728 47 844 107 q 471 -12 613 -12 m 483 96 q 641 203 572 96 q 743 490 710 310 q 754 611 754 547 q 715 783 754 718 q 603 847 676 847 q 450 753 515 847 q 353 493 385 658 q 335 326 335 396 q 372 158 335 219 q 483 96 408 96 m 578 1008 q 494 1083 539 1049 q 390 1161 450 1118 q 499 1242 419 1238 q 671 1169 571 1201 q 760 1197 713 1176 q 864 1249 807 1218 q 910 1217 889 1240 q 942 1164 931 1193 q 703 1025 796 1083 q 613 1007 667 1007 q 578 1008 589 1007 z "},"Ô":{"ha":1031,"x_min":57,"x_max":1035,"o":"m 471 -12 q 248 36 342 -12 q 106 172 154 85 q 57 374 57 258 q 68 488 57 425 q 173 738 96 633 q 365 897 250 842 q 617 951 479 951 q 839 905 744 951 q 984 773 933 858 q 1035 572 1035 688 q 1024 464 1035 524 q 921 215 997 322 q 728 47 844 107 q 471 -12 613 -12 m 483 96 q 641 203 572 96 q 743 490 710 310 q 754 611 754 547 q 715 783 754 718 q 603 847 676 847 q 450 753 515 847 q 353 493 385 658 q 335 326 335 396 q 372 158 335 219 q 483 96 408 96 m 464 999 q 408 1036 432 1008 q 379 1090 385 1064 q 508 1156 438 1114 q 635 1242 578 1199 q 676 1244 660 1244 q 754 1233 722 1244 q 951 1049 807 1179 q 831 1014 915 1017 q 660 1093 733 1072 q 531 1032 622 1079 q 464 999 481 1006 z "},"Ố":{"ha":1031,"x_min":57,"x_max":1133,"o":"m 471 -12 q 248 36 342 -12 q 106 172 154 85 q 57 374 57 258 q 68 488 57 425 q 173 738 96 633 q 365 897 250 842 q 617 951 479 951 q 839 905 744 951 q 984 773 933 858 q 1035 572 1035 688 q 1024 464 1035 524 q 921 215 997 322 q 728 47 844 107 q 471 -12 613 -12 m 483 96 q 641 203 572 96 q 743 490 710 310 q 754 611 754 547 q 715 783 754 718 q 603 847 676 847 q 450 753 515 847 q 353 493 385 658 q 335 326 335 396 q 372 158 335 219 q 483 96 408 96 m 950 1197 q 829 1240 885 1204 q 884 1315 857 1269 q 922 1388 911 1360 q 976 1390 958 1390 q 1066 1383 1024 1390 q 1133 1365 1108 1376 q 950 1197 993 1240 m 464 999 q 408 1036 432 1008 q 379 1090 385 1064 q 508 1156 438 1114 q 635 1242 578 1199 q 676 1244 660 1244 q 754 1233 722 1244 q 951 1049 807 1179 q 831 1014 915 1017 q 660 1093 733 1072 q 531 1032 622 1079 q 464 999 481 1006 z "},"Ộ":{"ha":1031,"x_min":57,"x_max":1035,"o":"m 471 -12 q 248 36 342 -12 q 106 172 154 85 q 57 374 57 258 q 68 488 57 425 q 173 738 96 633 q 365 897 250 842 q 617 951 479 951 q 839 905 744 951 q 984 773 933 858 q 1035 572 1035 688 q 1024 464 1035 524 q 921 215 997 322 q 728 47 844 107 q 471 -12 613 -12 m 483 96 q 641 203 572 96 q 743 490 710 310 q 754 611 754 547 q 715 783 754 718 q 603 847 676 847 q 450 753 515 847 q 353 493 385 658 q 335 326 335 396 q 372 158 335 219 q 483 96 408 96 m 424 -343 q 324 -314 358 -343 q 289 -236 289 -285 q 292 -210 289 -229 q 347 -122 303 -151 q 454 -93 390 -93 q 554 -123 521 -93 q 588 -203 588 -153 q 542 -308 588 -272 q 424 -343 496 -343 m 464 999 q 408 1036 432 1008 q 379 1090 385 1064 q 508 1156 438 1114 q 635 1242 578 1199 q 676 1244 660 1244 q 754 1233 722 1244 q 951 1049 807 1179 q 831 1014 915 1017 q 660 1093 733 1072 q 531 1032 622 1079 q 464 999 481 1006 z "},"Ồ":{"ha":1031,"x_min":57,"x_max":1035,"o":"m 471 -12 q 248 36 342 -12 q 106 172 154 85 q 57 374 57 258 q 68 488 57 425 q 173 738 96 633 q 365 897 250 842 q 617 951 479 951 q 839 905 744 951 q 984 773 933 858 q 1035 572 1035 688 q 1024 464 1035 524 q 921 215 997 322 q 728 47 844 107 q 471 -12 613 -12 m 483 96 q 641 203 572 96 q 743 490 710 310 q 754 611 754 547 q 715 783 754 718 q 603 847 676 847 q 450 753 515 847 q 353 493 385 658 q 335 326 335 396 q 372 158 335 219 q 483 96 408 96 z "},"Ổ":{"ha":1031,"x_min":57,"x_max":1082,"o":"m 471 -12 q 248 36 342 -12 q 106 172 154 85 q 57 374 57 258 q 68 488 57 425 q 173 738 96 633 q 365 897 250 842 q 617 951 479 951 q 839 905 744 951 q 984 773 933 858 q 1035 572 1035 688 q 1024 464 1035 524 q 921 215 997 322 q 728 47 844 107 q 471 -12 613 -12 m 483 96 q 641 203 572 96 q 743 490 710 310 q 754 611 754 547 q 715 783 754 718 q 603 847 676 847 q 450 753 515 847 q 353 493 385 658 q 335 326 335 396 q 372 158 335 219 q 483 96 408 96 z "},"Ỗ":{"ha":1031,"x_min":57,"x_max":1035,"o":"m 471 -12 q 248 36 342 -12 q 106 172 154 85 q 57 374 57 258 q 68 488 57 425 q 173 738 96 633 q 365 897 250 842 q 617 951 479 951 q 839 905 744 951 q 984 773 933 858 q 1035 572 1035 688 q 1024 464 1035 524 q 921 215 997 322 q 728 47 844 107 q 471 -12 613 -12 m 483 96 q 641 203 572 96 q 743 490 710 310 q 754 611 754 547 q 715 783 754 718 q 603 847 676 847 q 450 753 515 847 q 353 493 385 658 q 335 326 335 396 q 372 158 335 219 q 483 96 408 96 m 464 999 q 408 1036 432 1008 q 379 1090 385 1064 q 508 1156 438 1114 q 635 1242 578 1199 q 676 1244 660 1244 q 754 1233 722 1244 q 951 1049 807 1179 q 831 1014 915 1017 q 660 1093 733 1072 q 531 1032 622 1079 q 464 999 481 1006 m 779 1299 q 717 1308 740 1299 q 665 1338 694 1318 q 632 1359 647 1351 q 596 1367 617 1367 q 534 1349 564 1367 q 472 1300 504 1331 q 446 1349 454 1326 q 438 1401 438 1372 q 439 1426 438 1417 q 542 1491 485 1471 q 650 1511 600 1511 q 712 1501 686 1511 q 767 1474 738 1492 q 807 1453 792 1460 q 840 1447 822 1447 q 895 1465 869 1447 q 939 1510 921 1483 q 1019 1438 996 1485 q 910 1334 972 1369 q 779 1299 849 1299 z "},"Ȍ":{"ha":1031,"x_min":57,"x_max":1035,"o":"m 471 -12 q 248 36 342 -12 q 106 172 154 85 q 57 374 57 258 q 68 488 57 425 q 173 738 96 633 q 365 897 250 842 q 617 951 479 951 q 839 905 744 951 q 984 773 933 858 q 1035 572 1035 688 q 1024 464 1035 524 q 921 215 997 322 q 728 47 844 107 q 471 -12 613 -12 m 483 96 q 641 203 572 96 q 743 490 710 310 q 754 611 754 547 q 715 783 754 718 q 603 847 676 847 q 450 753 515 847 q 353 493 385 658 q 335 326 335 396 q 372 158 335 219 q 483 96 408 96 m 731 1056 q 651 1178 686 1129 q 764 1192 703 1192 q 835 1186 806 1192 q 901 1006 861 1079 q 822 999 860 999 q 764 1003 794 999 l 731 1056 m 458 1040 q 358 1172 410 1110 q 490 1190 411 1190 q 557 1186 526 1190 q 624 1006 583 1079 q 544 999 582 999 q 486 1003 517 999 l 458 1040 z "},"Ö":{"ha":1031,"x_min":57,"x_max":1035,"o":"m 471 -12 q 248 36 342 -12 q 106 172 154 85 q 57 374 57 258 q 68 488 57 425 q 173 738 96 633 q 365 897 250 842 q 617 951 479 951 q 839 905 744 951 q 984 773 933 858 q 1035 572 1035 688 q 1024 464 1035 524 q 921 215 997 322 q 728 47 844 107 q 471 -12 613 -12 m 483 96 q 641 203 572 96 q 743 490 710 310 q 754 611 754 547 q 715 783 754 718 q 603 847 676 847 q 450 753 515 847 q 353 493 385 658 q 335 326 335 396 q 372 158 335 219 q 483 96 408 96 m 503 999 q 409 1032 443 999 q 375 1122 375 1065 q 492 1236 375 1236 q 585 1205 550 1236 q 619 1119 619 1174 q 590 1030 619 1061 q 503 999 561 999 m 832 997 q 735 1030 769 997 q 701 1119 701 1063 q 826 1236 701 1236 q 919 1204 885 1236 q 953 1115 953 1172 q 832 997 953 997 z "},"Ȫ":{"ha":1031,"x_min":57,"x_max":1035,"o":"m 471 -12 q 248 36 342 -12 q 106 172 154 85 q 57 374 57 258 q 68 488 57 425 q 173 738 96 633 q 365 897 250 842 q 617 951 479 951 q 839 905 744 951 q 984 773 933 858 q 1035 572 1035 688 q 1024 464 1035 524 q 921 215 997 322 q 728 47 844 107 q 471 -12 613 -12 m 483 96 q 641 203 572 96 q 743 490 710 310 q 754 611 754 547 q 715 783 754 718 q 603 847 676 847 q 450 753 515 847 q 353 493 385 658 q 335 326 335 396 q 372 158 335 219 q 483 96 408 96 m 503 999 q 409 1032 443 999 q 375 1122 375 1065 q 492 1236 375 1236 q 585 1205 550 1236 q 619 1119 619 1174 q 590 1030 619 1061 q 503 999 561 999 m 832 997 q 735 1030 769 997 q 701 1119 701 1063 q 826 1236 701 1236 q 919 1204 885 1236 q 953 1115 953 1172 q 832 997 953 997 m 447 1319 q 460 1410 447 1376 l 963 1410 q 950 1329 963 1365 q 447 1319 672 1329 z "},"Ȱ":{"ha":1031,"x_min":57,"x_max":1035,"o":"m 471 -12 q 248 36 342 -12 q 106 172 154 85 q 57 374 57 258 q 68 488 57 425 q 173 738 96 633 q 365 897 250 842 q 617 951 479 951 q 839 905 744 951 q 984 773 933 858 q 1035 572 1035 688 q 1024 464 1035 524 q 921 215 997 322 q 728 47 844 107 q 471 -12 613 -12 m 483 96 q 641 203 572 96 q 743 490 710 310 q 754 611 754 547 q 715 783 754 718 q 603 847 676 847 q 450 753 515 847 q 353 493 385 658 q 335 326 335 396 q 372 158 335 219 q 483 96 408 96 m 642 993 q 549 1023 583 993 q 514 1104 514 1053 q 558 1196 514 1164 q 683 1228 603 1228 q 775 1197 739 1228 q 811 1115 811 1165 q 642 993 811 993 m 447 1297 q 460 1388 447 1354 l 963 1388 q 950 1307 963 1343 q 447 1297 672 1307 z "},"Ọ":{"ha":1031,"x_min":57,"x_max":1035,"o":"m 471 -12 q 248 36 342 -12 q 106 172 154 85 q 57 374 57 258 q 68 488 57 425 q 173 738 96 633 q 365 897 250 842 q 617 951 479 951 q 839 905 744 951 q 984 773 933 858 q 1035 572 1035 688 q 1024 464 1035 524 q 921 215 997 322 q 728 47 844 107 q 471 -12 613 -12 m 483 96 q 641 203 572 96 q 743 490 710 310 q 754 611 754 547 q 715 783 754 718 q 603 847 676 847 q 450 753 515 847 q 353 493 385 658 q 335 326 335 396 q 372 158 335 219 q 483 96 408 96 m 424 -343 q 324 -314 358 -343 q 289 -236 289 -285 q 292 -210 289 -229 q 347 -122 303 -151 q 454 -93 390 -93 q 554 -123 521 -93 q 588 -203 588 -153 q 542 -308 588 -272 q 424 -343 496 -343 z "},"Ò":{"ha":1031,"x_min":57,"x_max":1035,"o":"m 471 -12 q 248 36 342 -12 q 106 172 154 85 q 57 374 57 258 q 68 488 57 425 q 173 738 96 633 q 365 897 250 842 q 617 951 479 951 q 839 905 744 951 q 984 773 933 858 q 1035 572 1035 688 q 1024 464 1035 524 q 921 215 997 322 q 728 47 844 107 q 471 -12 613 -12 m 483 96 q 641 203 572 96 q 743 490 710 310 q 754 611 754 547 q 715 783 754 718 q 603 847 676 847 q 450 753 515 847 q 353 493 385 658 q 335 326 335 396 q 372 158 335 219 q 483 96 408 96 m 738 1028 q 660 1019 707 1019 q 576 1029 607 1019 q 519 1108 558 1060 q 443 1190 479 1157 q 599 1210 524 1210 q 668 1206 632 1210 q 698 1113 679 1163 q 738 1028 717 1064 z "},"Ỏ":{"ha":1031,"x_min":57,"x_max":1035,"o":"m 471 -12 q 248 36 342 -12 q 106 172 154 85 q 57 374 57 258 q 68 488 57 425 q 173 738 96 633 q 365 897 250 842 q 617 951 479 951 q 839 905 744 951 q 984 773 933 858 q 1035 572 1035 688 q 1024 464 1035 524 q 921 215 997 322 q 728 47 844 107 q 471 -12 613 -12 m 483 96 q 641 203 572 96 q 743 490 710 310 q 754 611 754 547 q 715 783 754 718 q 603 847 676 847 q 450 753 515 847 q 353 493 385 658 q 335 326 335 396 q 372 158 335 219 q 483 96 408 96 m 596 1004 q 592 1031 592 1015 q 594 1051 592 1038 q 614 1088 600 1075 q 654 1114 628 1100 q 697 1150 689 1132 q 701 1164 701 1158 q 691 1182 701 1175 q 665 1189 681 1189 q 594 1111 614 1189 q 568 1110 586 1110 q 497 1124 524 1110 q 518 1222 515 1169 q 600 1247 553 1238 q 694 1257 647 1257 q 799 1236 764 1257 q 835 1178 835 1215 q 829 1147 835 1163 q 801 1101 819 1117 q 750 1065 782 1085 q 717 1044 729 1053 q 701 1022 706 1035 q 700 996 696 1007 q 665 993 681 993 q 596 1004 622 993 z "},"Ơ":{"ha":1031,"x_min":57,"x_max":1101,"o":"m 1079 1099 q 1095 1066 1089 1086 q 1101 1022 1101 1046 q 1052 906 1101 956 q 926 846 1003 857 q 1007 726 979 796 q 1035 571 1035 656 q 1024 464 1035 524 q 921 215 997 322 q 728 47 844 107 q 471 -12 613 -12 q 248 36 342 -12 q 106 172 154 85 q 57 374 57 258 q 68 488 57 425 q 173 738 96 633 q 365 897 250 842 q 617 951 479 951 l 635 951 l 635 951 q 697 947 663 951 q 742 942 731 943 q 831 933 806 933 q 901 951 879 933 q 929 1007 922 969 q 933 1051 933 1035 q 931 1081 933 1058 q 1042 1100 981 1100 q 1079 1099 1067 1100 m 743 490 q 754 611 754 547 q 715 783 754 718 q 603 847 676 847 q 450 753 515 847 q 353 493 385 658 q 335 326 335 396 q 372 158 335 219 q 483 96 408 96 q 641 203 572 96 q 743 490 710 310 z "},"Ớ":{"ha":1031,"x_min":57,"x_max":1101,"o":"m 1079 1099 q 1095 1066 1089 1086 q 1101 1022 1101 1046 q 1052 906 1101 956 q 926 846 1003 857 q 1007 726 979 796 q 1035 571 1035 656 q 1024 464 1035 524 q 921 215 997 322 q 728 47 844 107 q 471 -12 613 -12 q 248 36 342 -12 q 106 172 154 85 q 57 374 57 258 q 68 488 57 425 q 173 738 96 633 q 365 897 250 842 q 617 951 479 951 l 635 951 l 635 951 q 697 947 663 951 q 742 942 731 943 q 831 933 806 933 q 901 951 879 933 q 929 1007 922 969 q 933 1051 933 1035 q 931 1081 933 1058 q 1042 1100 981 1100 q 1079 1099 1067 1100 m 743 490 q 754 611 754 547 q 715 783 754 718 q 603 847 676 847 q 450 753 515 847 q 353 493 385 658 q 335 326 335 396 q 372 158 335 219 q 483 96 408 96 q 641 203 572 96 q 743 490 710 310 m 657 1017 q 524 1065 582 1026 q 584 1147 554 1097 q 626 1228 614 1196 q 689 1231 668 1231 q 788 1224 742 1231 q 861 1204 833 1217 q 657 1017 707 1065 z "},"Ợ":{"ha":1031,"x_min":57,"x_max":1101,"o":"m 1079 1099 q 1095 1066 1089 1086 q 1101 1022 1101 1046 q 1052 906 1101 956 q 926 846 1003 857 q 1007 726 979 796 q 1035 571 1035 656 q 1024 464 1035 524 q 921 215 997 322 q 728 47 844 107 q 471 -12 613 -12 q 248 36 342 -12 q 106 172 154 85 q 57 374 57 258 q 68 488 57 425 q 173 738 96 633 q 365 897 250 842 q 617 951 479 951 l 635 951 l 635 951 q 697 947 663 951 q 742 942 731 943 q 831 933 806 933 q 901 951 879 933 q 929 1007 922 969 q 933 1051 933 1035 q 931 1081 933 1058 q 1042 1100 981 1100 q 1079 1099 1067 1100 m 743 490 q 754 611 754 547 q 715 783 754 718 q 603 847 676 847 q 450 753 515 847 q 353 493 385 658 q 335 326 335 396 q 372 158 335 219 q 483 96 408 96 q 641 203 572 96 q 743 490 710 310 m 424 -343 q 324 -314 358 -343 q 289 -236 289 -285 q 292 -210 289 -229 q 347 -122 303 -151 q 454 -93 390 -93 q 554 -123 521 -93 q 588 -203 588 -153 q 542 -308 588 -272 q 424 -343 496 -343 z "},"Ờ":{"ha":1031,"x_min":57,"x_max":1101,"o":"m 1079 1099 q 1095 1066 1089 1086 q 1101 1022 1101 1046 q 1052 906 1101 956 q 926 846 1003 857 q 1007 726 979 796 q 1035 571 1035 656 q 1024 464 1035 524 q 921 215 997 322 q 728 47 844 107 q 471 -12 613 -12 q 248 36 342 -12 q 106 172 154 85 q 57 374 57 258 q 68 488 57 425 q 173 738 96 633 q 365 897 250 842 q 617 951 479 951 l 635 951 l 635 951 q 697 947 663 951 q 742 942 731 943 q 831 933 806 933 q 901 951 879 933 q 929 1007 922 969 q 933 1051 933 1035 q 931 1081 933 1058 q 1042 1100 981 1100 q 1079 1099 1067 1100 m 743 490 q 754 611 754 547 q 715 783 754 718 q 603 847 676 847 q 450 753 515 847 q 353 493 385 658 q 335 326 335 396 q 372 158 335 219 q 483 96 408 96 q 641 203 572 96 q 743 490 710 310 m 738 1028 q 660 1019 707 1019 q 576 1029 607 1019 q 519 1108 558 1060 q 443 1190 479 1157 q 599 1210 524 1210 q 668 1206 632 1210 q 698 1113 679 1163 q 738 1028 717 1064 z "},"Ở":{"ha":1031,"x_min":57,"x_max":1101,"o":"m 1079 1099 q 1095 1066 1089 1086 q 1101 1022 1101 1046 q 1052 906 1101 956 q 926 846 1003 857 q 1007 726 979 796 q 1035 571 1035 656 q 1024 464 1035 524 q 921 215 997 322 q 728 47 844 107 q 471 -12 613 -12 q 248 36 342 -12 q 106 172 154 85 q 57 374 57 258 q 68 488 57 425 q 173 738 96 633 q 365 897 250 842 q 617 951 479 951 l 635 951 l 635 951 q 697 947 663 951 q 742 942 731 943 q 831 933 806 933 q 901 951 879 933 q 929 1007 922 969 q 933 1051 933 1035 q 931 1081 933 1058 q 1042 1100 981 1100 q 1079 1099 1067 1100 m 743 490 q 754 611 754 547 q 715 783 754 718 q 603 847 676 847 q 450 753 515 847 q 353 493 385 658 q 335 326 335 396 q 372 158 335 219 q 483 96 408 96 q 641 203 572 96 q 743 490 710 310 m 596 1004 q 592 1031 592 1015 q 594 1051 592 1038 q 614 1088 600 1075 q 654 1114 628 1100 q 697 1150 689 1132 q 701 1164 701 1158 q 691 1182 701 1175 q 665 1189 681 1189 q 594 1111 614 1189 q 568 1110 586 1110 q 497 1124 524 1110 q 518 1222 515 1169 q 600 1247 553 1238 q 694 1257 647 1257 q 799 1236 764 1257 q 835 1178 835 1215 q 829 1147 835 1163 q 801 1101 819 1117 q 750 1065 782 1085 q 717 1044 729 1053 q 701 1022 706 1035 q 700 996 696 1007 q 665 993 681 993 q 596 1004 622 993 z "},"Ỡ":{"ha":1031,"x_min":57,"x_max":1101,"o":"m 1079 1099 q 1095 1066 1089 1086 q 1101 1022 1101 1046 q 1052 906 1101 956 q 926 846 1003 857 q 1007 726 979 796 q 1035 571 1035 656 q 1024 464 1035 524 q 921 215 997 322 q 728 47 844 107 q 471 -12 613 -12 q 248 36 342 -12 q 106 172 154 85 q 57 374 57 258 q 68 488 57 425 q 173 738 96 633 q 365 897 250 842 q 617 951 479 951 l 635 951 l 635 951 q 697 947 663 951 q 742 942 731 943 q 831 933 806 933 q 901 951 879 933 q 929 1007 922 969 q 933 1051 933 1035 q 931 1081 933 1058 q 1042 1100 981 1100 q 1079 1099 1067 1100 m 743 490 q 754 611 754 547 q 715 783 754 718 q 603 847 676 847 q 450 753 515 847 q 353 493 385 658 q 335 326 335 396 q 372 158 335 219 q 483 96 408 96 q 641 203 572 96 q 743 490 710 310 m 719 1021 q 658 1031 681 1021 q 606 1060 635 1040 q 572 1081 588 1074 q 536 1089 557 1089 q 474 1071 504 1089 q 413 1022 444 1053 q 386 1072 394 1049 q 378 1124 378 1094 q 379 1149 378 1139 q 483 1213 425 1193 q 590 1233 540 1233 q 652 1224 626 1233 q 707 1196 678 1214 q 747 1176 732 1182 q 781 1169 763 1169 q 835 1188 810 1169 q 879 1232 861 1206 q 960 1160 936 1207 q 851 1056 913 1092 q 719 1021 789 1021 z "},"Ő":{"ha":1031,"x_min":57,"x_max":1053,"o":"m 471 -12 q 248 36 342 -12 q 106 172 154 85 q 57 374 57 258 q 68 488 57 425 q 173 738 96 633 q 365 897 250 842 q 617 951 479 951 q 839 905 744 951 q 984 773 933 858 q 1035 572 1035 688 q 1024 464 1035 524 q 921 215 997 322 q 728 47 844 107 q 471 -12 613 -12 m 483 96 q 641 203 572 96 q 743 490 710 310 q 754 611 754 547 q 715 783 754 718 q 603 847 676 847 q 450 753 515 847 q 353 493 385 658 q 335 326 335 396 q 372 158 335 219 q 483 96 408 96 m 574 1022 q 439 1071 503 1029 q 497 1147 468 1100 q 540 1222 526 1193 q 601 1225 582 1225 q 701 1218 654 1225 q 775 1199 747 1211 q 574 1022 617 1058 m 851 1022 q 717 1071 781 1029 q 775 1147 746 1100 q 818 1222 804 1193 q 879 1225 860 1225 q 978 1218 932 1225 q 1053 1199 1025 1211 q 851 1022 894 1058 z "},"Ȏ":{"ha":1031,"x_min":57,"x_max":1035,"o":"m 471 -12 q 248 36 342 -12 q 106 172 154 85 q 57 374 57 258 q 68 488 57 425 q 173 738 96 633 q 365 897 250 842 q 617 951 479 951 q 839 905 744 951 q 984 773 933 858 q 1035 572 1035 688 q 1024 464 1035 524 q 921 215 997 322 q 728 47 844 107 q 471 -12 613 -12 m 483 96 q 641 203 572 96 q 743 490 710 310 q 754 611 754 547 q 715 783 754 718 q 603 847 676 847 q 450 753 515 847 q 353 493 385 658 q 335 326 335 396 q 372 158 335 219 q 483 96 408 96 m 700 1219 q 953 1056 953 1219 q 949 1013 953 1036 q 847 996 906 996 q 799 1000 821 996 q 658 1079 799 1079 q 497 1000 519 1079 q 447 994 475 994 q 372 1008 407 994 q 474 1167 390 1114 q 700 1219 557 1219 z "},"Ō":{"ha":1031,"x_min":57,"x_max":1035,"o":"m 471 -12 q 248 36 342 -12 q 106 172 154 85 q 57 374 57 258 q 68 488 57 425 q 173 738 96 633 q 365 897 250 842 q 617 951 479 951 q 839 905 744 951 q 984 773 933 858 q 1035 572 1035 688 q 1024 464 1035 524 q 921 215 997 322 q 728 47 844 107 q 471 -12 613 -12 m 483 96 q 641 203 572 96 q 743 490 710 310 q 754 611 754 547 q 715 783 754 718 q 603 847 676 847 q 450 753 515 847 q 353 493 385 658 q 335 326 335 396 q 372 158 335 219 q 483 96 408 96 m 404 1064 q 417 1154 404 1121 l 919 1154 q 907 1074 919 1110 q 404 1064 629 1074 z "},"Ṓ":{"ha":1031,"x_min":57,"x_max":1035,"o":"m 471 -12 q 248 36 342 -12 q 106 172 154 85 q 57 374 57 258 q 68 488 57 425 q 173 738 96 633 q 365 897 250 842 q 617 951 479 951 q 839 905 744 951 q 984 773 933 858 q 1035 572 1035 688 q 1024 464 1035 524 q 921 215 997 322 q 728 47 844 107 q 471 -12 613 -12 m 483 96 q 641 203 572 96 q 743 490 710 310 q 754 611 754 547 q 715 783 754 718 q 603 847 676 847 q 450 753 515 847 q 353 493 385 658 q 335 326 335 396 q 372 158 335 219 q 483 96 408 96 m 404 1064 q 417 1154 404 1121 l 919 1154 q 907 1074 919 1110 q 404 1064 629 1074 m 699 1232 q 565 1281 624 1242 q 626 1362 596 1313 q 668 1443 656 1411 q 731 1446 710 1446 q 829 1439 783 1446 q 903 1419 875 1432 q 699 1232 749 1281 z "},"Ṑ":{"ha":1031,"x_min":57,"x_max":1035,"o":"m 471 -12 q 248 36 342 -12 q 106 172 154 85 q 57 374 57 258 q 68 488 57 425 q 173 738 96 633 q 365 897 250 842 q 617 951 479 951 q 839 905 744 951 q 984 773 933 858 q 1035 572 1035 688 q 1024 464 1035 524 q 921 215 997 322 q 728 47 844 107 q 471 -12 613 -12 m 483 96 q 641 203 572 96 q 743 490 710 310 q 754 611 754 547 q 715 783 754 718 q 603 847 676 847 q 450 753 515 847 q 353 493 385 658 q 335 326 335 396 q 372 158 335 219 q 483 96 408 96 m 404 1064 q 417 1154 404 1121 l 919 1154 q 907 1074 919 1110 q 404 1064 629 1074 m 779 1243 q 701 1235 749 1235 q 618 1244 649 1235 q 560 1324 600 1275 q 485 1406 521 1372 q 640 1425 565 1425 q 710 1421 674 1425 q 740 1328 721 1378 q 779 1243 758 1279 z "},"Ǫ":{"ha":1031,"x_min":57,"x_max":1035,"o":"m 617 951 q 839 905 744 951 q 984 773 933 858 q 1035 572 1035 688 q 1024 464 1035 524 q 894 181 992 299 q 651 15 797 63 q 567 -47 597 -10 q 536 -118 536 -83 q 557 -167 536 -149 q 611 -185 578 -185 q 650 -175 636 -185 q 679 -219 668 -192 q 694 -271 690 -246 q 621 -302 658 -282 q 560 -344 583 -322 q 528 -346 546 -346 q 360 -312 421 -346 q 299 -206 299 -278 q 324 -108 299 -157 q 411 -10 349 -60 q 150 110 243 6 q 57 375 57 214 q 68 488 57 425 q 173 738 96 633 q 365 897 250 842 q 617 951 479 951 m 743 490 q 754 611 754 547 q 715 783 754 718 q 603 847 676 847 q 450 753 515 847 q 353 493 385 658 q 335 326 335 396 q 372 158 335 219 q 483 96 408 96 q 641 203 572 96 q 743 490 710 310 z "},"Ø":{"ha":1031,"x_min":57,"x_max":1035,"o":"m 950 821 q 1035 572 1035 721 q 1024 464 1035 524 q 921 215 997 322 q 728 47 844 107 q 471 -12 613 -12 q 225 49 328 -12 q 172 -12 222 46 q 102 4 135 -12 q 60 49 69 21 l 135 128 q 57 375 57 226 q 68 488 57 425 q 173 738 96 633 q 365 897 250 842 q 617 951 479 951 q 861 893 760 951 l 917 951 q 1032 900 1001 951 l 950 821 m 353 493 q 335 339 338 414 l 731 754 q 679 823 711 799 q 603 847 647 847 q 450 753 515 847 q 353 493 385 658 m 743 490 q 754 625 756 567 q 354 194 569 436 q 483 96 390 96 q 641 203 572 96 q 743 490 710 310 z "},"Ǿ":{"ha":1031,"x_min":57,"x_max":1035,"o":"m 950 821 q 1035 572 1035 721 q 1024 464 1035 524 q 921 215 997 322 q 728 47 844 107 q 471 -12 613 -12 q 225 49 328 -12 q 172 -12 222 46 q 102 4 135 -12 q 60 49 69 21 l 135 128 q 57 375 57 226 q 68 488 57 425 q 173 738 96 633 q 365 897 250 842 q 617 951 479 951 q 861 893 760 951 l 917 951 q 1032 900 1001 951 l 950 821 m 353 493 q 335 339 338 414 l 731 754 q 679 823 711 799 q 603 847 647 847 q 450 753 515 847 q 353 493 385 658 m 743 490 q 754 625 756 567 q 354 194 569 436 q 483 96 390 96 q 641 203 572 96 q 743 490 710 310 m 640 1017 q 507 1065 565 1026 q 567 1147 538 1097 q 610 1228 597 1196 q 672 1231 651 1231 q 771 1224 725 1231 q 844 1204 817 1217 q 640 1017 690 1065 z "},"Õ":{"ha":1031,"x_min":57,"x_max":1035,"o":"m 471 -12 q 248 36 342 -12 q 106 172 154 85 q 57 374 57 258 q 68 488 57 425 q 173 738 96 633 q 365 897 250 842 q 617 951 479 951 q 839 905 744 951 q 984 773 933 858 q 1035 572 1035 688 q 1024 464 1035 524 q 921 215 997 322 q 728 47 844 107 q 471 -12 613 -12 m 483 96 q 641 203 572 96 q 743 490 710 310 q 754 611 754 547 q 715 783 754 718 q 603 847 676 847 q 450 753 515 847 q 353 493 385 658 q 335 326 335 396 q 372 158 335 219 q 483 96 408 96 m 719 1021 q 658 1031 681 1021 q 606 1060 635 1040 q 572 1081 588 1074 q 536 1089 557 1089 q 474 1071 504 1089 q 413 1022 444 1053 q 386 1072 394 1049 q 378 1124 378 1094 q 379 1149 378 1139 q 483 1213 425 1193 q 590 1233 540 1233 q 652 1224 626 1233 q 707 1196 678 1214 q 747 1176 732 1182 q 781 1169 763 1169 q 835 1188 810 1169 q 879 1232 861 1206 q 960 1160 936 1207 q 851 1056 913 1092 q 719 1021 789 1021 z "},"Ṍ":{"ha":1031,"x_min":57,"x_max":1035,"o":"m 471 -12 q 248 36 342 -12 q 106 172 154 85 q 57 374 57 258 q 68 488 57 425 q 173 738 96 633 q 365 897 250 842 q 617 951 479 951 q 839 905 744 951 q 984 773 933 858 q 1035 572 1035 688 q 1024 464 1035 524 q 921 215 997 322 q 728 47 844 107 q 471 -12 613 -12 m 483 96 q 641 203 572 96 q 743 490 710 310 q 754 611 754 547 q 715 783 754 718 q 603 847 676 847 q 450 753 515 847 q 353 493 385 658 q 335 326 335 396 q 372 158 335 219 q 483 96 408 96 m 719 1021 q 658 1031 681 1021 q 606 1060 635 1040 q 572 1081 588 1074 q 536 1089 557 1089 q 474 1071 504 1089 q 413 1022 444 1053 q 386 1072 394 1049 q 378 1124 378 1094 q 379 1149 378 1139 q 483 1213 425 1193 q 590 1233 540 1233 q 652 1224 626 1233 q 707 1196 678 1214 q 747 1176 732 1182 q 781 1169 763 1169 q 835 1188 810 1169 q 879 1232 861 1206 q 960 1160 936 1207 q 851 1056 913 1092 q 719 1021 789 1021 m 707 1283 q 574 1332 632 1293 q 634 1413 604 1364 q 676 1494 664 1463 q 739 1497 718 1497 q 838 1490 792 1497 q 911 1471 883 1483 q 707 1283 757 1332 z "},"Ṏ":{"ha":1031,"x_min":57,"x_max":1035,"o":"m 471 -12 q 248 36 342 -12 q 106 172 154 85 q 57 374 57 258 q 68 488 57 425 q 173 738 96 633 q 365 897 250 842 q 617 951 479 951 q 839 905 744 951 q 984 773 933 858 q 1035 572 1035 688 q 1024 464 1035 524 q 921 215 997 322 q 728 47 844 107 q 471 -12 613 -12 m 483 96 q 641 203 572 96 q 743 490 710 310 q 754 611 754 547 q 715 783 754 718 q 603 847 676 847 q 450 753 515 847 q 353 493 385 658 q 335 326 335 396 q 372 158 335 219 q 483 96 408 96 m 719 1021 q 658 1031 681 1021 q 606 1060 635 1040 q 572 1081 588 1074 q 536 1089 557 1089 q 474 1071 504 1089 q 413 1022 444 1053 q 386 1072 394 1049 q 378 1124 378 1094 q 379 1149 378 1139 q 483 1213 425 1193 q 590 1233 540 1233 q 652 1224 626 1233 q 707 1196 678 1214 q 747 1176 732 1182 q 781 1169 763 1169 q 835 1188 810 1169 q 879 1232 861 1206 q 960 1160 936 1207 q 851 1056 913 1092 q 719 1021 789 1021 m 553 1265 q 459 1299 493 1265 q 425 1389 425 1332 q 542 1503 425 1503 q 635 1472 600 1503 q 669 1386 669 1440 q 640 1297 669 1328 q 553 1265 611 1265 m 882 1264 q 785 1297 819 1264 q 751 1386 751 1329 q 876 1503 751 1503 q 969 1471 935 1503 q 1003 1382 1003 1439 q 882 1264 1003 1264 z "},"Ȭ":{"ha":1031,"x_min":57,"x_max":1035,"o":"m 471 -12 q 248 36 342 -12 q 106 172 154 85 q 57 374 57 258 q 68 488 57 425 q 173 738 96 633 q 365 897 250 842 q 617 951 479 951 q 839 905 744 951 q 984 773 933 858 q 1035 572 1035 688 q 1024 464 1035 524 q 921 215 997 322 q 728 47 844 107 q 471 -12 613 -12 m 483 96 q 641 203 572 96 q 743 490 710 310 q 754 611 754 547 q 715 783 754 718 q 603 847 676 847 q 450 753 515 847 q 353 493 385 658 q 335 326 335 396 q 372 158 335 219 q 483 96 408 96 m 719 1021 q 658 1031 681 1021 q 606 1060 635 1040 q 572 1081 588 1074 q 536 1089 557 1089 q 474 1071 504 1089 q 413 1022 444 1053 q 386 1072 394 1049 q 378 1124 378 1094 q 379 1149 378 1139 q 483 1213 425 1193 q 590 1233 540 1233 q 652 1224 626 1233 q 707 1196 678 1214 q 747 1176 732 1182 q 781 1169 763 1169 q 835 1188 810 1169 q 879 1232 861 1206 q 960 1160 936 1207 q 851 1056 913 1092 q 719 1021 789 1021 m 454 1331 q 467 1421 454 1388 l 969 1421 q 957 1340 969 1376 q 454 1331 679 1340 z "},"Œ":{"ha":1429,"x_min":57,"x_max":1457,"o":"m 1308 674 q 1290 762 1304 728 q 1241 815 1276 796 q 1140 835 1206 835 l 926 835 q 1010 583 1010 739 q 1007 531 1010 567 l 1019 531 q 1107 549 1083 531 q 1138 624 1131 567 q 1224 632 1178 632 q 1264 631 1250 632 q 1231 451 1243 547 q 1217 299 1218 363 q 1097 319 1146 301 q 1079 398 1097 369 q 1006 426 1061 426 l 992 426 q 806 104 944 219 l 1067 104 q 1186 149 1139 104 q 1267 303 1233 194 q 1341 284 1310 296 q 1401 250 1372 272 q 1342 -4 1357 118 q 974 0 1258 0 q 758 -6 897 0 q 471 -12 560 -12 l 467 -12 q 245 36 338 -12 q 105 173 153 85 q 57 376 57 261 q 68 488 57 425 q 172 736 94 632 q 365 895 250 840 q 617 951 479 950 l 619 951 l 619 951 l 622 951 q 715 950 667 951 q 789 947 763 949 q 1156 939 947 939 q 1457 943 1338 939 q 1442 760 1442 856 q 1444 690 1442 735 q 1308 674 1381 674 m 353 493 q 336 328 336 404 q 372 158 336 219 q 476 96 407 96 q 636 203 568 96 q 733 490 704 310 q 744 625 744 568 q 710 789 744 731 q 604 847 675 847 q 450 753 515 847 q 353 493 385 660 z "},"P":{"ha":922,"x_min":17,"x_max":963,"o":"m 693 943 q 894 876 825 943 q 963 685 963 808 q 954 594 963 643 q 825 380 931 461 q 554 299 719 299 q 486 311 510 299 q 490 363 485 332 q 504 413 496 394 q 528 410 510 410 q 627 461 579 410 q 690 600 675 513 q 697 678 697 635 q 667 793 697 751 q 576 835 636 835 q 521 824 547 835 l 424 260 q 415 190 415 218 q 441 131 415 147 q 538 104 467 114 q 543 43 543 78 q 540 -4 543 26 q 289 0 464 0 q 17 -4 93 0 q 42 106 22 58 q 97 121 79 108 q 124 165 114 133 q 149 274 135 197 l 222 696 q 229 764 229 731 q 213 814 229 800 q 153 835 196 828 q 147 897 147 871 q 150 943 147 913 q 390 939 235 939 l 515 940 q 693 943 621 943 z "},"Þ":{"ha":935,"x_min":14,"x_max":938,"o":"m 629 757 q 867 699 796 757 q 938 544 938 640 q 932 485 938 513 q 808 279 907 351 q 561 207 710 207 q 469 225 499 207 q 474 276 468 249 q 488 322 479 303 q 514 319 501 319 q 610 365 569 319 q 667 481 651 410 q 672 533 672 507 q 643 618 672 589 q 560 647 614 647 q 486 632 522 647 l 421 250 q 415 197 415 208 q 442 131 415 150 q 536 104 468 111 q 542 40 542 60 q 539 -4 542 26 q 271 0 446 0 q 14 -4 117 0 q 40 104 19 54 q 94 120 76 110 q 122 158 111 131 q 143 246 132 185 l 219 696 q 228 768 228 742 q 212 815 228 801 q 151 835 196 828 q 146 893 146 868 q 150 943 146 918 q 383 939 218 939 q 622 943 540 939 q 603 835 622 888 q 541 815 560 831 q 510 756 522 800 q 629 757 557 757 z "},"Q":{"ha":1031,"x_min":57,"x_max":1039,"o":"m 993 -110 q 1023 -152 1010 -126 q 1039 -201 1036 -178 q 796 -304 943 -304 q 668 -267 717 -304 q 594 -151 619 -231 q 540 -53 574 -85 q 444 -12 506 -21 q 235 42 322 -7 q 103 177 149 92 q 57 374 57 263 q 68 488 57 425 q 173 738 96 633 q 365 897 250 842 q 617 951 479 951 q 839 905 744 951 q 984 773 933 858 q 1035 572 1035 688 q 1024 464 1035 524 q 897 184 992 301 q 661 18 803 67 q 742 -14 704 10 q 850 -100 779 -37 q 891 -128 875 -121 q 928 -136 907 -136 q 993 -110 963 -136 m 353 493 q 335 326 335 396 q 372 158 335 219 q 483 96 408 96 q 641 203 572 96 q 743 490 710 310 q 754 611 754 547 q 715 783 754 718 q 603 847 676 847 q 450 753 515 847 q 353 493 385 658 z "},"R":{"ha":1050,"x_min":14,"x_max":1006,"o":"m 960 182 q 990 140 976 165 q 1006 90 1003 114 q 890 14 958 40 q 749 -12 822 -12 q 656 7 693 -12 q 591 71 619 26 q 536 196 563 115 q 497 295 514 260 q 457 360 481 331 l 439 360 l 419 246 q 410 163 410 193 q 421 122 410 133 q 461 104 432 110 q 467 40 467 60 q 464 -4 467 26 q 257 0 385 0 q 14 -4 110 0 q 40 104 19 54 q 93 120 75 107 q 123 167 111 133 q 147 274 135 200 l 219 696 q 228 768 228 742 q 212 815 228 801 q 151 835 196 828 q 146 893 146 868 q 150 943 146 918 q 393 939 218 939 l 485 942 q 676 946 651 946 q 913 879 833 946 q 993 707 993 813 q 989 657 993 682 q 895 483 972 556 q 713 389 818 411 q 828 229 778 349 q 859 178 843 192 q 900 164 875 164 q 960 182 933 164 m 696 679 q 700 726 700 704 q 672 809 700 781 q 592 838 643 838 q 519 822 557 838 l 461 483 q 492 482 472 482 q 578 506 535 482 q 653 574 621 529 q 696 679 685 618 z "},"Ŕ":{"ha":1050,"x_min":14,"x_max":1006,"o":"m 960 182 q 990 140 976 165 q 1006 90 1003 114 q 890 14 958 40 q 749 -12 822 -12 q 656 7 693 -12 q 591 71 619 26 q 536 196 563 115 q 497 295 514 260 q 457 360 481 331 l 439 360 l 419 246 q 410 163 410 193 q 421 122 410 133 q 461 104 432 110 q 467 40 467 60 q 464 -4 467 26 q 257 0 385 0 q 14 -4 110 0 q 40 104 19 54 q 93 120 75 107 q 123 167 111 133 q 147 274 135 200 l 219 696 q 228 768 228 742 q 212 815 228 801 q 151 835 196 828 q 146 893 146 868 q 150 943 146 918 q 393 939 218 939 l 485 942 q 676 946 651 946 q 913 879 833 946 q 993 707 993 813 q 989 657 993 682 q 895 483 972 556 q 713 389 818 411 q 828 229 778 349 q 859 178 843 192 q 900 164 875 164 q 960 182 933 164 m 696 679 q 700 726 700 704 q 672 809 700 781 q 592 838 643 838 q 519 822 557 838 l 461 483 q 492 482 472 482 q 578 506 535 482 q 653 574 621 529 q 696 679 685 618 m 613 1017 q 479 1065 538 1026 q 540 1147 510 1097 q 582 1228 569 1196 q 644 1231 624 1231 q 743 1224 697 1231 q 817 1204 789 1217 q 613 1017 663 1065 z "},"Ř":{"ha":1050,"x_min":14,"x_max":1006,"o":"m 960 182 q 990 140 976 165 q 1006 90 1003 114 q 890 14 958 40 q 749 -12 822 -12 q 656 7 693 -12 q 591 71 619 26 q 536 196 563 115 q 497 295 514 260 q 457 360 481 331 l 439 360 l 419 246 q 410 163 410 193 q 421 122 410 133 q 461 104 432 110 q 467 40 467 60 q 464 -4 467 26 q 257 0 385 0 q 14 -4 110 0 q 40 104 19 54 q 93 120 75 107 q 123 167 111 133 q 147 274 135 200 l 219 696 q 228 768 228 742 q 212 815 228 801 q 151 835 196 828 q 146 893 146 868 q 150 943 146 918 q 393 939 218 939 l 485 942 q 676 946 651 946 q 913 879 833 946 q 993 707 993 813 q 989 657 993 682 q 895 483 972 556 q 713 389 818 411 q 828 229 778 349 q 859 178 843 192 q 900 164 875 164 q 960 182 933 164 m 696 679 q 700 726 700 704 q 672 809 700 781 q 592 838 643 838 q 519 822 557 838 l 461 483 q 492 482 472 482 q 578 506 535 482 q 653 574 621 529 q 696 679 685 618 m 533 1008 q 450 1083 494 1049 q 346 1161 406 1118 q 454 1242 375 1238 q 626 1169 526 1201 q 715 1197 668 1176 q 819 1249 763 1218 q 865 1217 844 1240 q 897 1164 886 1193 q 658 1025 751 1083 q 568 1007 622 1007 q 533 1008 544 1007 z "},"Ŗ":{"ha":1050,"x_min":14,"x_max":1006,"o":"m 960 182 q 990 140 976 165 q 1006 90 1003 114 q 890 14 958 40 q 749 -12 822 -12 q 656 7 693 -12 q 591 71 619 26 q 536 196 563 115 q 497 295 514 260 q 457 360 481 331 l 439 360 l 419 246 q 410 163 410 193 q 421 122 410 133 q 461 104 432 110 q 467 40 467 60 q 464 -4 467 26 q 257 0 385 0 q 14 -4 110 0 q 40 104 19 54 q 93 120 75 107 q 123 167 111 133 q 147 274 135 200 l 219 696 q 228 768 228 742 q 212 815 228 801 q 151 835 196 828 q 146 893 146 868 q 150 943 146 918 q 393 939 218 939 l 485 942 q 676 946 651 946 q 913 879 833 946 q 993 707 993 813 q 989 657 993 682 q 895 483 972 556 q 713 389 818 411 q 828 229 778 349 q 859 178 843 192 q 900 164 875 164 q 960 182 933 164 m 696 679 q 700 726 700 704 q 672 809 700 781 q 592 838 643 838 q 519 822 557 838 l 461 483 q 492 482 472 482 q 578 506 535 482 q 653 574 621 529 q 696 679 685 618 m 419 -442 q 340 -392 364 -435 q 401 -336 378 -367 q 425 -279 425 -306 q 405 -245 425 -257 q 342 -228 385 -233 q 385 -94 346 -150 q 567 -51 499 -92 q 613 -79 599 -61 q 626 -131 626 -97 q 624 -168 626 -154 q 419 -442 599 -331 z "},"Ȑ":{"ha":1050,"x_min":14,"x_max":1006,"o":"m 960 182 q 990 140 976 165 q 1006 90 1003 114 q 890 14 958 40 q 749 -12 822 -12 q 656 7 693 -12 q 591 71 619 26 q 536 196 563 115 q 497 295 514 260 q 457 360 481 331 l 439 360 l 419 246 q 410 163 410 193 q 421 122 410 133 q 461 104 432 110 q 467 40 467 60 q 464 -4 467 26 q 257 0 385 0 q 14 -4 110 0 q 40 104 19 54 q 93 120 75 107 q 123 167 111 133 q 147 274 135 200 l 219 696 q 228 768 228 742 q 212 815 228 801 q 151 835 196 828 q 146 893 146 868 q 150 943 146 918 q 393 939 218 939 l 485 942 q 676 946 651 946 q 913 879 833 946 q 993 707 993 813 q 989 657 993 682 q 895 483 972 556 q 713 389 818 411 q 828 229 778 349 q 859 178 843 192 q 900 164 875 164 q 960 182 933 164 m 696 679 q 700 726 700 704 q 672 809 700 781 q 592 838 643 838 q 519 822 557 838 l 461 483 q 492 482 472 482 q 578 506 535 482 q 653 574 621 529 q 696 679 685 618 m 686 1056 q 607 1178 642 1129 q 719 1192 658 1192 q 790 1186 761 1192 q 857 1006 817 1079 q 778 999 815 999 q 719 1003 750 999 l 686 1056 m 414 1040 q 314 1172 365 1110 q 446 1190 367 1190 q 513 1186 482 1190 q 579 1006 539 1079 q 500 999 538 999 q 442 1003 472 999 l 414 1040 z "},"Ṛ":{"ha":1050,"x_min":14,"x_max":1006,"o":"m 960 182 q 990 140 976 165 q 1006 90 1003 114 q 890 14 958 40 q 749 -12 822 -12 q 656 7 693 -12 q 591 71 619 26 q 536 196 563 115 q 497 295 514 260 q 457 360 481 331 l 439 360 l 419 246 q 410 163 410 193 q 421 122 410 133 q 461 104 432 110 q 467 40 467 60 q 464 -4 467 26 q 257 0 385 0 q 14 -4 110 0 q 40 104 19 54 q 93 120 75 107 q 123 167 111 133 q 147 274 135 200 l 219 696 q 228 768 228 742 q 212 815 228 801 q 151 835 196 828 q 146 893 146 868 q 150 943 146 918 q 393 939 218 939 l 485 942 q 676 946 651 946 q 913 879 833 946 q 993 707 993 813 q 989 657 993 682 q 895 483 972 556 q 713 389 818 411 q 828 229 778 349 q 859 178 843 192 q 900 164 875 164 q 960 182 933 164 m 696 679 q 700 726 700 704 q 672 809 700 781 q 592 838 643 838 q 519 822 557 838 l 461 483 q 492 482 472 482 q 578 506 535 482 q 653 574 621 529 q 696 679 685 618 m 458 -343 q 358 -314 393 -343 q 324 -236 324 -285 q 326 -210 324 -229 q 381 -122 338 -151 q 489 -93 425 -93 q 589 -123 556 -93 q 622 -203 622 -153 q 576 -308 622 -272 q 458 -343 531 -343 z "},"Ȓ":{"ha":1050,"x_min":14,"x_max":1006,"o":"m 960 182 q 990 140 976 165 q 1006 90 1003 114 q 890 14 958 40 q 749 -12 822 -12 q 656 7 693 -12 q 591 71 619 26 q 536 196 563 115 q 497 295 514 260 q 457 360 481 331 l 439 360 l 419 246 q 410 163 410 193 q 421 122 410 133 q 461 104 432 110 q 467 40 467 60 q 464 -4 467 26 q 257 0 385 0 q 14 -4 110 0 q 40 104 19 54 q 93 120 75 107 q 123 167 111 133 q 147 274 135 200 l 219 696 q 228 768 228 742 q 212 815 228 801 q 151 835 196 828 q 146 893 146 868 q 150 943 146 918 q 393 939 218 939 l 485 942 q 676 946 651 946 q 913 879 833 946 q 993 707 993 813 q 989 657 993 682 q 895 483 972 556 q 713 389 818 411 q 828 229 778 349 q 859 178 843 192 q 900 164 875 164 q 960 182 933 164 m 696 679 q 700 726 700 704 q 672 809 700 781 q 592 838 643 838 q 519 822 557 838 l 461 483 q 492 482 472 482 q 578 506 535 482 q 653 574 621 529 q 696 679 685 618 m 656 1219 q 908 1056 908 1219 q 904 1013 908 1036 q 803 996 861 996 q 754 1000 776 996 q 614 1079 754 1079 q 453 1000 475 1079 q 403 994 431 994 q 328 1008 363 994 q 429 1167 346 1114 q 656 1219 513 1219 z "},"Ṟ":{"ha":1050,"x_min":14,"x_max":1006,"o":"m 960 182 q 990 140 976 165 q 1006 90 1003 114 q 890 14 958 40 q 749 -12 822 -12 q 656 7 693 -12 q 591 71 619 26 q 536 196 563 115 q 497 295 514 260 q 457 360 481 331 l 439 360 l 419 246 q 410 163 410 193 q 421 122 410 133 q 461 104 432 110 q 467 40 467 60 q 464 -4 467 26 q 257 0 385 0 q 14 -4 110 0 q 40 104 19 54 q 93 120 75 107 q 123 167 111 133 q 147 274 135 200 l 219 696 q 228 768 228 742 q 212 815 228 801 q 151 835 196 828 q 146 893 146 868 q 150 943 146 918 q 393 939 218 939 l 485 942 q 676 946 651 946 q 913 879 833 946 q 993 707 993 813 q 989 657 993 682 q 895 483 972 556 q 713 389 818 411 q 828 229 778 349 q 859 178 843 192 q 900 164 875 164 q 960 182 933 164 m 696 679 q 700 726 700 704 q 672 809 700 781 q 592 838 643 838 q 519 822 557 838 l 461 483 q 492 482 472 482 q 578 506 535 482 q 653 574 621 529 q 696 679 685 618 m 217 -253 q 229 -162 217 -196 l 732 -162 q 719 -243 732 -207 q 217 -253 442 -243 z "},"S":{"ha":740,"x_min":-10,"x_max":731,"o":"m 296 -12 q 125 9 188 -12 q -10 86 63 31 q 43 303 29 189 q 132 311 86 311 q 207 304 176 311 q 204 258 204 271 q 236 140 204 179 q 333 101 268 101 q 411 124 376 101 q 451 182 446 147 q 453 200 453 188 q 422 269 453 240 q 325 339 392 297 q 215 415 258 381 q 141 506 172 450 q 110 642 110 563 q 118 722 110 679 q 238 892 139 832 q 476 951 336 951 q 628 933 561 951 q 731 883 694 914 q 715 668 713 754 q 606 651 665 651 q 561 654 592 651 q 524 792 558 744 q 424 840 489 840 q 351 819 378 840 q 324 754 324 799 q 360 676 324 708 q 472 601 396 644 q 590 526 544 560 q 667 439 635 492 q 699 314 699 386 q 693 254 699 282 q 624 113 679 174 q 483 20 568 53 q 296 -12 397 -12 z "},"Ś":{"ha":740,"x_min":-10,"x_max":731,"o":"m 296 -12 q 125 9 188 -12 q -10 86 63 31 q 43 303 29 189 q 132 311 86 311 q 207 304 176 311 q 204 258 204 271 q 236 140 204 179 q 333 101 268 101 q 411 124 376 101 q 451 182 446 147 q 453 200 453 188 q 422 269 453 240 q 325 339 392 297 q 215 415 258 381 q 141 506 172 450 q 110 642 110 563 q 118 722 110 679 q 238 892 139 832 q 476 951 336 951 q 628 933 561 951 q 731 883 694 914 q 715 668 713 754 q 606 651 665 651 q 561 654 592 651 q 524 792 558 744 q 424 840 489 840 q 351 819 378 840 q 324 754 324 799 q 360 676 324 708 q 472 601 396 644 q 590 526 544 560 q 667 439 635 492 q 699 314 699 386 q 693 254 699 282 q 624 113 679 174 q 483 20 568 53 q 296 -12 397 -12 m 496 1017 q 363 1065 421 1026 q 423 1147 393 1097 q 465 1228 453 1196 q 528 1231 507 1231 q 626 1224 581 1231 q 700 1204 672 1217 q 496 1017 546 1065 z "},"Ṥ":{"ha":740,"x_min":-10,"x_max":731,"o":"m 296 -12 q 125 9 188 -12 q -10 86 63 31 q 43 303 29 189 q 132 311 86 311 q 207 304 176 311 q 204 258 204 271 q 236 140 204 179 q 333 101 268 101 q 411 124 376 101 q 451 182 446 147 q 453 200 453 188 q 422 269 453 240 q 325 339 392 297 q 215 415 258 381 q 141 506 172 450 q 110 642 110 563 q 118 722 110 679 q 238 892 139 832 q 476 951 336 951 q 628 933 561 951 q 731 883 694 914 q 715 668 713 754 q 606 651 665 651 q 561 654 592 651 q 524 792 558 744 q 424 840 489 840 q 351 819 378 840 q 324 754 324 799 q 360 676 324 708 q 472 601 396 644 q 590 526 544 560 q 667 439 635 492 q 699 314 699 386 q 693 254 699 282 q 624 113 679 174 q 483 20 568 53 q 296 -12 397 -12 m 496 1017 q 363 1065 421 1026 q 423 1147 393 1097 q 465 1228 453 1196 q 528 1231 507 1231 q 626 1224 581 1231 q 700 1204 672 1217 q 496 1017 546 1065 m 536 1285 q 443 1315 478 1285 q 408 1396 408 1344 q 453 1488 408 1456 q 578 1519 497 1519 q 669 1488 633 1519 q 706 1407 706 1457 q 536 1285 706 1285 z "},"Š":{"ha":740,"x_min":-10,"x_max":781,"o":"m 296 -12 q 125 9 188 -12 q -10 86 63 31 q 43 303 29 189 q 132 311 86 311 q 207 304 176 311 q 204 258 204 271 q 236 140 204 179 q 333 101 268 101 q 411 124 376 101 q 451 182 446 147 q 453 200 453 188 q 422 269 453 240 q 325 339 392 297 q 215 415 258 381 q 141 506 172 450 q 110 642 110 563 q 118 722 110 679 q 238 892 139 832 q 476 951 336 951 q 628 933 561 951 q 731 883 694 914 q 715 668 713 754 q 606 651 665 651 q 561 654 592 651 q 524 792 558 744 q 424 840 489 840 q 351 819 378 840 q 324 754 324 799 q 360 676 324 708 q 472 601 396 644 q 590 526 544 560 q 667 439 635 492 q 699 314 699 386 q 693 254 699 282 q 624 113 679 174 q 483 20 568 53 q 296 -12 397 -12 m 417 1008 q 333 1083 378 1049 q 229 1161 289 1118 q 338 1242 258 1238 q 510 1169 410 1201 q 599 1197 551 1176 q 703 1249 646 1218 q 749 1217 728 1240 q 781 1164 769 1193 q 542 1025 635 1083 q 451 1007 506 1007 q 417 1008 428 1007 z "},"Ṧ":{"ha":740,"x_min":-10,"x_max":781,"o":"m 296 -12 q 125 9 188 -12 q -10 86 63 31 q 43 303 29 189 q 132 311 86 311 q 207 304 176 311 q 204 258 204 271 q 236 140 204 179 q 333 101 268 101 q 411 124 376 101 q 451 182 446 147 q 453 200 453 188 q 422 269 453 240 q 325 339 392 297 q 215 415 258 381 q 141 506 172 450 q 110 642 110 563 q 118 722 110 679 q 238 892 139 832 q 476 951 336 951 q 628 933 561 951 q 731 883 694 914 q 715 668 713 754 q 606 651 665 651 q 561 654 592 651 q 524 792 558 744 q 424 840 489 840 q 351 819 378 840 q 324 754 324 799 q 360 676 324 708 q 472 601 396 644 q 590 526 544 560 q 667 439 635 492 q 699 314 699 386 q 693 254 699 282 q 624 113 679 174 q 483 20 568 53 q 296 -12 397 -12 m 417 1008 q 333 1083 378 1049 q 229 1161 289 1118 q 338 1242 258 1238 q 510 1169 410 1201 q 599 1197 551 1176 q 703 1249 646 1218 q 749 1217 728 1240 q 781 1164 769 1193 q 542 1025 635 1083 q 451 1007 506 1007 q 417 1008 428 1007 m 540 1303 q 447 1333 482 1303 q 413 1414 413 1363 q 457 1506 413 1474 q 582 1538 501 1538 q 674 1506 638 1538 q 710 1425 710 1475 q 540 1303 710 1303 z "},"Ş":{"ha":740,"x_min":-10,"x_max":731,"o":"m 424 840 q 351 819 378 840 q 324 754 324 799 q 360 676 324 708 q 472 601 396 644 q 590 526 544 560 q 667 439 635 492 q 699 314 699 386 q 693 254 699 282 q 586 77 675 147 q 367 -8 497 7 l 314 -64 q 393 -171 393 -90 q 324 -296 393 -253 q 121 -336 254 -339 q 117 -307 117 -324 q 122 -265 117 -290 q 205 -253 169 -267 q 244 -215 240 -239 q 246 -203 246 -211 q 226 -165 246 -178 q 172 -153 206 -153 q 160 -87 156 -124 l 238 -11 q 106 16 158 -6 q -10 86 53 38 q 43 303 29 189 q 132 311 86 311 q 207 304 176 311 q 204 258 204 271 q 236 140 204 179 q 333 101 268 101 q 411 124 376 101 q 451 182 446 147 q 453 200 453 188 q 422 269 453 240 q 325 339 392 297 q 215 415 258 381 q 141 506 172 450 q 110 642 110 563 q 118 722 110 679 q 238 892 139 832 q 476 951 336 951 q 628 933 561 951 q 731 883 694 914 q 715 668 713 754 q 606 651 665 651 q 561 654 592 651 q 524 792 558 744 q 424 840 489 840 z "},"Ŝ":{"ha":740,"x_min":-10,"x_max":790,"o":"m 296 -12 q 125 9 188 -12 q -10 86 63 31 q 43 303 29 189 q 132 311 86 311 q 207 304 176 311 q 204 258 204 271 q 236 140 204 179 q 333 101 268 101 q 411 124 376 101 q 451 182 446 147 q 453 200 453 188 q 422 269 453 240 q 325 339 392 297 q 215 415 258 381 q 141 506 172 450 q 110 642 110 563 q 118 722 110 679 q 238 892 139 832 q 476 951 336 951 q 628 933 561 951 q 731 883 694 914 q 715 668 713 754 q 606 651 665 651 q 561 654 592 651 q 524 792 558 744 q 424 840 489 840 q 351 819 378 840 q 324 754 324 799 q 360 676 324 708 q 472 601 396 644 q 590 526 544 560 q 667 439 635 492 q 699 314 699 386 q 693 254 699 282 q 624 113 679 174 q 483 20 568 53 q 296 -12 397 -12 m 303 999 q 247 1036 271 1008 q 218 1090 224 1064 q 347 1156 276 1114 q 474 1242 417 1199 q 515 1244 499 1244 q 593 1233 561 1244 q 790 1049 646 1179 q 669 1014 754 1017 q 499 1093 572 1072 q 369 1032 461 1079 q 303 999 319 1006 z "},"Ș":{"ha":740,"x_min":-10,"x_max":731,"o":"m 296 -12 q 125 9 188 -12 q -10 86 63 31 q 43 303 29 189 q 132 311 86 311 q 207 304 176 311 q 204 258 204 271 q 236 140 204 179 q 333 101 268 101 q 411 124 376 101 q 451 182 446 147 q 453 200 453 188 q 422 269 453 240 q 325 339 392 297 q 215 415 258 381 q 141 506 172 450 q 110 642 110 563 q 118 722 110 679 q 238 892 139 832 q 476 951 336 951 q 628 933 561 951 q 731 883 694 914 q 715 668 713 754 q 606 651 665 651 q 561 654 592 651 q 524 792 558 744 q 424 840 489 840 q 351 819 378 840 q 324 754 324 799 q 360 676 324 708 q 472 601 396 644 q 590 526 544 560 q 667 439 635 492 q 699 314 699 386 q 693 254 699 282 q 624 113 679 174 q 483 20 568 53 q 296 -12 397 -12 m 206 -442 q 126 -392 150 -435 q 188 -336 164 -367 q 211 -279 211 -306 q 191 -245 211 -257 q 128 -228 171 -233 q 171 -94 132 -150 q 353 -51 285 -92 q 399 -79 385 -61 q 413 -131 413 -97 q 410 -168 413 -154 q 206 -442 385 -331 z "},"Ṡ":{"ha":740,"x_min":-10,"x_max":731,"o":"m 296 -12 q 125 9 188 -12 q -10 86 63 31 q 43 303 29 189 q 132 311 86 311 q 207 304 176 311 q 204 258 204 271 q 236 140 204 179 q 333 101 268 101 q 411 124 376 101 q 451 182 446 147 q 453 200 453 188 q 422 269 453 240 q 325 339 392 297 q 215 415 258 381 q 141 506 172 450 q 110 642 110 563 q 118 722 110 679 q 238 892 139 832 q 476 951 336 951 q 628 933 561 951 q 731 883 694 914 q 715 668 713 754 q 606 651 665 651 q 561 654 592 651 q 524 792 558 744 q 424 840 489 840 q 351 819 378 840 q 324 754 324 799 q 360 676 324 708 q 472 601 396 644 q 590 526 544 560 q 667 439 635 492 q 699 314 699 386 q 693 254 699 282 q 624 113 679 174 q 483 20 568 53 q 296 -12 397 -12 m 481 993 q 388 1023 422 993 q 353 1104 353 1053 q 397 1196 353 1164 q 522 1228 442 1228 q 614 1197 578 1228 q 650 1115 650 1165 q 481 993 650 993 z "},"Ṣ":{"ha":740,"x_min":-10,"x_max":731,"o":"m 296 -12 q 125 9 188 -12 q -10 86 63 31 q 43 303 29 189 q 132 311 86 311 q 207 304 176 311 q 204 258 204 271 q 236 140 204 179 q 333 101 268 101 q 411 124 376 101 q 451 182 446 147 q 453 200 453 188 q 422 269 453 240 q 325 339 392 297 q 215 415 258 381 q 141 506 172 450 q 110 642 110 563 q 118 722 110 679 q 238 892 139 832 q 476 951 336 951 q 628 933 561 951 q 731 883 694 914 q 715 668 713 754 q 606 651 665 651 q 561 654 592 651 q 524 792 558 744 q 424 840 489 840 q 351 819 378 840 q 324 754 324 799 q 360 676 324 708 q 472 601 396 644 q 590 526 544 560 q 667 439 635 492 q 699 314 699 386 q 693 254 699 282 q 624 113 679 174 q 483 20 568 53 q 296 -12 397 -12 m 244 -343 q 144 -314 179 -343 q 110 -236 110 -285 q 113 -210 110 -229 q 167 -122 124 -151 q 275 -93 211 -93 q 375 -123 342 -93 q 408 -203 408 -153 q 363 -308 408 -272 q 244 -343 317 -343 z "},"Ṩ":{"ha":740,"x_min":-10,"x_max":731,"o":"m 296 -12 q 125 9 188 -12 q -10 86 63 31 q 43 303 29 189 q 132 311 86 311 q 207 304 176 311 q 204 258 204 271 q 236 140 204 179 q 333 101 268 101 q 411 124 376 101 q 451 182 446 147 q 453 200 453 188 q 422 269 453 240 q 325 339 392 297 q 215 415 258 381 q 141 506 172 450 q 110 642 110 563 q 118 722 110 679 q 238 892 139 832 q 476 951 336 951 q 628 933 561 951 q 731 883 694 914 q 715 668 713 754 q 606 651 665 651 q 561 654 592 651 q 524 792 558 744 q 424 840 489 840 q 351 819 378 840 q 324 754 324 799 q 360 676 324 708 q 472 601 396 644 q 590 526 544 560 q 667 439 635 492 q 699 314 699 386 q 693 254 699 282 q 624 113 679 174 q 483 20 568 53 q 296 -12 397 -12 m 244 -343 q 144 -314 179 -343 q 110 -236 110 -285 q 113 -210 110 -229 q 167 -122 124 -151 q 275 -93 211 -93 q 375 -123 342 -93 q 408 -203 408 -153 q 363 -308 408 -272 q 244 -343 317 -343 m 481 993 q 388 1023 422 993 q 353 1104 353 1053 q 397 1196 353 1164 q 522 1228 442 1228 q 614 1197 578 1228 q 650 1115 650 1165 q 481 993 650 993 z "},"ẞ":{"ha":1007,"x_min":-39,"x_max":1006,"o":"m 978 943 q 998 891 990 925 q 1004 826 1006 857 q 793 553 911 683 q 974 329 974 503 q 967 257 974 301 q 594 -12 919 -12 q 472 6 522 -12 q 381 61 421 25 q 405 158 394 104 q 418 254 415 213 q 494 267 451 267 q 561 258 528 267 q 557 190 557 219 q 568 123 557 142 q 600 104 579 104 q 650 134 628 104 q 682 219 672 164 q 688 281 688 249 q 510 468 688 442 q 489 522 496 490 q 485 585 482 553 q 697 838 589 683 q 604 839 664 839 q 491 780 533 839 q 424 571 449 721 l 329 0 q -39 -4 94 0 q -12 104 -33 54 q 42 120 24 110 q 70 158 60 131 q 90 246 81 186 l 149 586 q 238 808 174 729 q 392 915 301 886 q 607 943 483 943 q 729 940 649 943 l 831 939 q 978 943 924 939 z "},"Ə":{"ha":951,"x_min":50,"x_max":960,"o":"m 518 951 q 854 854 749 951 q 960 594 960 757 q 946 467 960 539 q 836 210 915 318 q 643 47 757 103 q 394 -10 529 -10 q 133 84 217 -10 q 50 333 50 178 q 60 449 50 394 q 83 486 68 467 q 118 519 99 506 l 669 513 q 678 624 678 571 q 633 790 678 732 q 488 847 589 847 q 353 799 397 847 q 281 639 310 750 q 208 656 243 642 q 154 692 172 669 q 180 801 171 751 q 189 903 189 851 q 347 939 258 926 q 518 951 436 951 m 411 94 q 549 169 486 94 q 649 408 611 243 q 483 404 557 408 q 317 389 408 400 q 299 246 299 311 q 411 94 299 94 z "},"T":{"ha":890,"x_min":86,"x_max":949,"o":"m 949 943 q 939 776 939 861 q 944 671 939 715 q 806 657 885 653 q 772 792 797 751 q 682 835 746 833 l 582 260 q 574 190 574 218 q 599 132 574 149 q 694 104 624 115 q 700 38 700 76 q 699 -4 700 8 q 426 0 638 0 q 118 -4 193 0 q 143 104 122 51 q 237 126 208 113 q 280 170 265 139 q 307 274 294 201 l 404 835 q 294 786 338 829 q 218 656 251 743 q 144 662 175 656 q 86 685 114 668 q 123 808 106 733 q 147 943 140 882 q 546 939 260 939 q 949 943 807 939 z "},"Ŧ":{"ha":890,"x_min":86,"x_max":949,"o":"m 949 943 q 939 776 939 861 q 944 671 939 715 q 806 657 885 653 q 772 792 797 751 q 682 835 746 833 l 629 535 l 783 535 q 765 411 783 461 q 608 413 718 413 l 582 260 q 574 190 574 218 q 599 132 574 149 q 694 104 624 115 q 700 38 700 76 q 699 -4 700 8 q 426 0 638 0 q 118 -4 193 0 q 143 104 122 51 q 237 126 208 113 q 280 170 265 139 q 307 274 294 201 l 331 411 q 189 408 222 408 q 207 535 189 485 l 353 535 l 404 835 q 294 786 338 829 q 218 656 251 743 q 144 662 175 656 q 86 685 114 668 q 123 808 106 733 q 147 943 140 882 q 546 939 260 939 q 949 943 807 939 z "},"Ť":{"ha":890,"x_min":86,"x_max":949,"o":"m 949 943 q 939 776 939 861 q 944 671 939 715 q 806 657 885 653 q 772 792 797 751 q 682 835 746 833 l 582 260 q 574 190 574 218 q 599 132 574 149 q 694 104 624 115 q 700 38 700 76 q 699 -4 700 8 q 426 0 638 0 q 118 -4 193 0 q 143 104 122 51 q 237 126 208 113 q 280 170 265 139 q 307 274 294 201 l 404 835 q 294 786 338 829 q 218 656 251 743 q 144 662 175 656 q 86 685 114 668 q 123 808 106 733 q 147 943 140 882 q 546 939 260 939 q 949 943 807 939 m 490 1008 q 407 1083 451 1049 q 303 1161 363 1118 q 411 1242 332 1238 q 583 1169 483 1201 q 672 1197 625 1176 q 776 1249 719 1218 q 822 1217 801 1240 q 854 1164 843 1193 q 615 1025 708 1083 q 525 1007 579 1007 q 490 1008 501 1007 z "},"Ţ":{"ha":890,"x_min":86,"x_max":949,"o":"m 949 943 q 939 776 939 861 q 944 671 939 715 q 806 657 885 653 q 772 792 797 751 q 682 835 746 833 l 582 260 q 574 190 574 218 q 599 132 574 149 q 694 104 624 115 q 700 38 700 76 q 699 -4 700 8 q 490 0 626 0 l 429 -64 q 508 -171 508 -90 q 439 -296 508 -253 q 236 -336 369 -339 q 232 -307 232 -324 q 238 -265 232 -290 q 320 -253 285 -267 q 360 -215 356 -239 q 361 -203 361 -211 q 341 -165 361 -178 q 288 -153 321 -153 q 275 -87 271 -124 l 364 0 q 118 -4 213 0 q 143 104 122 51 q 237 126 208 113 q 280 170 265 139 q 307 274 294 201 l 404 835 q 294 786 338 829 q 218 656 251 743 q 144 662 175 656 q 86 685 114 668 q 123 808 106 733 q 147 943 140 882 q 546 939 260 939 q 949 943 807 939 z "},"Ț":{"ha":890,"x_min":86,"x_max":949,"o":"m 949 943 q 939 776 939 861 q 944 671 939 715 q 806 657 885 653 q 772 792 797 751 q 682 835 746 833 l 582 260 q 574 190 574 218 q 599 132 574 149 q 694 104 624 115 q 700 38 700 76 q 699 -4 700 8 q 426 0 638 0 q 118 -4 193 0 q 143 104 122 51 q 237 126 208 113 q 280 170 265 139 q 307 274 294 201 l 404 835 q 294 786 338 829 q 218 656 251 743 q 144 662 175 656 q 86 685 114 668 q 123 808 106 733 q 147 943 140 882 q 546 939 260 939 q 949 943 807 939 m 321 -442 q 242 -392 265 -435 q 303 -336 279 -367 q 326 -279 326 -306 q 306 -245 326 -257 q 243 -228 286 -233 q 286 -94 247 -150 q 468 -51 400 -92 q 514 -79 500 -61 q 528 -131 528 -97 q 525 -168 528 -154 q 321 -442 500 -331 z "},"Ṭ":{"ha":890,"x_min":86,"x_max":949,"o":"m 949 943 q 939 776 939 861 q 944 671 939 715 q 806 657 885 653 q 772 792 797 751 q 682 835 746 833 l 582 260 q 574 190 574 218 q 599 132 574 149 q 694 104 624 115 q 700 38 700 76 q 699 -4 700 8 q 426 0 638 0 q 118 -4 193 0 q 143 104 122 51 q 237 126 208 113 q 280 170 265 139 q 307 274 294 201 l 404 835 q 294 786 338 829 q 218 656 251 743 q 144 662 175 656 q 86 685 114 668 q 123 808 106 733 q 147 943 140 882 q 546 939 260 939 q 949 943 807 939 m 360 -343 q 260 -314 294 -343 q 225 -236 225 -285 q 228 -210 225 -229 q 283 -122 239 -151 q 390 -93 326 -93 q 490 -123 457 -93 q 524 -203 524 -153 q 478 -308 524 -272 q 360 -343 432 -343 z "},"Ṯ":{"ha":890,"x_min":86,"x_max":949,"o":"m 949 943 q 939 776 939 861 q 944 671 939 715 q 806 657 885 653 q 772 792 797 751 q 682 835 746 833 l 582 260 q 574 190 574 218 q 599 132 574 149 q 694 104 624 115 q 700 38 700 76 q 699 -4 700 8 q 426 0 638 0 q 118 -4 193 0 q 143 104 122 51 q 237 126 208 113 q 280 170 265 139 q 307 274 294 201 l 404 835 q 294 786 338 829 q 218 656 251 743 q 144 662 175 656 q 86 685 114 668 q 123 808 106 733 q 147 943 140 882 q 546 939 260 939 q 949 943 807 939 m 118 -253 q 131 -162 118 -196 l 633 -162 q 621 -243 633 -207 q 118 -253 343 -243 z "},"U":{"ha":940,"x_min":139,"x_max":1035,"o":"m 468 -12 q 221 53 300 -12 q 142 251 142 119 q 153 360 142 297 l 213 696 q 221 768 221 742 q 205 815 221 801 q 144 835 189 828 q 139 893 139 868 q 143 943 139 918 q 376 939 211 939 q 615 943 533 939 q 596 835 615 888 q 538 818 556 831 q 510 775 519 806 q 486 668 500 744 l 432 369 q 419 253 419 303 q 535 100 419 100 q 670 171 621 100 q 742 371 719 242 l 793 663 q 807 772 807 749 q 794 815 807 804 q 742 835 781 825 q 736 892 736 871 q 740 943 736 917 q 890 939 800 939 q 1035 943 985 939 q 1015 835 1032 882 q 956 818 974 829 q 928 772 939 807 q 901 647 917 738 l 856 385 q 785 152 829 238 q 665 27 740 67 q 468 -12 589 -12 z "},"Ú":{"ha":940,"x_min":139,"x_max":1035,"o":"m 468 -12 q 221 53 300 -12 q 142 251 142 119 q 153 360 142 297 l 213 696 q 221 768 221 742 q 205 815 221 801 q 144 835 189 828 q 139 893 139 868 q 143 943 139 918 q 376 939 211 939 q 615 943 533 939 q 596 835 615 888 q 538 818 556 831 q 510 775 519 806 q 486 668 500 744 l 432 369 q 419 253 419 303 q 535 100 419 100 q 670 171 621 100 q 742 371 719 242 l 793 663 q 807 772 807 749 q 794 815 807 804 q 742 835 781 825 q 736 892 736 871 q 740 943 736 917 q 890 939 800 939 q 1035 943 985 939 q 1015 835 1032 882 q 956 818 974 829 q 928 772 939 807 q 901 647 917 738 l 856 385 q 785 152 829 238 q 665 27 740 67 q 468 -12 589 -12 m 690 1017 q 557 1065 615 1026 q 617 1147 588 1097 q 660 1228 647 1196 q 722 1231 701 1231 q 821 1224 775 1231 q 894 1204 867 1217 q 690 1017 740 1065 z "},"Ŭ":{"ha":940,"x_min":139,"x_max":1035,"o":"m 468 -12 q 221 53 300 -12 q 142 251 142 119 q 153 360 142 297 l 213 696 q 221 768 221 742 q 205 815 221 801 q 144 835 189 828 q 139 893 139 868 q 143 943 139 918 q 376 939 211 939 q 615 943 533 939 q 596 835 615 888 q 538 818 556 831 q 510 775 519 806 q 486 668 500 744 l 432 369 q 419 253 419 303 q 535 100 419 100 q 670 171 621 100 q 742 371 719 242 l 793 663 q 807 772 807 749 q 794 815 807 804 q 742 835 781 825 q 736 892 736 871 q 740 943 736 917 q 890 939 800 939 q 1035 943 985 939 q 1015 835 1032 882 q 956 818 974 829 q 928 772 939 807 q 901 647 917 738 l 856 385 q 785 152 829 238 q 665 27 740 67 q 468 -12 589 -12 m 660 1003 q 407 1167 407 1003 q 411 1210 407 1188 q 513 1226 454 1226 q 561 1222 538 1226 q 701 1143 561 1143 q 863 1222 840 1143 q 913 1228 885 1228 q 988 1214 953 1228 q 886 1056 969 1108 q 660 1003 803 1003 z "},"Ǔ":{"ha":940,"x_min":139,"x_max":1035,"o":"m 468 -12 q 221 53 300 -12 q 142 251 142 119 q 153 360 142 297 l 213 696 q 221 768 221 742 q 205 815 221 801 q 144 835 189 828 q 139 893 139 868 q 143 943 139 918 q 376 939 211 939 q 615 943 533 939 q 596 835 615 888 q 538 818 556 831 q 510 775 519 806 q 486 668 500 744 l 432 369 q 419 253 419 303 q 535 100 419 100 q 670 171 621 100 q 742 371 719 242 l 793 663 q 807 772 807 749 q 794 815 807 804 q 742 835 781 825 q 736 892 736 871 q 740 943 736 917 q 890 939 800 939 q 1035 943 985 939 q 1015 835 1032 882 q 956 818 974 829 q 928 772 939 807 q 901 647 917 738 l 856 385 q 785 152 829 238 q 665 27 740 67 q 468 -12 589 -12 m 611 1008 q 528 1083 572 1049 q 424 1161 483 1118 q 532 1242 453 1238 q 704 1169 604 1201 q 793 1197 746 1176 q 897 1249 840 1218 q 943 1217 922 1240 q 975 1164 964 1193 q 736 1025 829 1083 q 646 1007 700 1007 q 611 1008 622 1007 z "},"Û":{"ha":940,"x_min":139,"x_max":1035,"o":"m 468 -12 q 221 53 300 -12 q 142 251 142 119 q 153 360 142 297 l 213 696 q 221 768 221 742 q 205 815 221 801 q 144 835 189 828 q 139 893 139 868 q 143 943 139 918 q 376 939 211 939 q 615 943 533 939 q 596 835 615 888 q 538 818 556 831 q 510 775 519 806 q 486 668 500 744 l 432 369 q 419 253 419 303 q 535 100 419 100 q 670 171 621 100 q 742 371 719 242 l 793 663 q 807 772 807 749 q 794 815 807 804 q 742 835 781 825 q 736 892 736 871 q 740 943 736 917 q 890 939 800 939 q 1035 943 985 939 q 1015 835 1032 882 q 956 818 974 829 q 928 772 939 807 q 901 647 917 738 l 856 385 q 785 152 829 238 q 665 27 740 67 q 468 -12 589 -12 m 497 999 q 442 1036 465 1008 q 413 1090 418 1064 q 541 1156 471 1114 q 668 1242 611 1199 q 710 1244 693 1244 q 788 1233 756 1244 q 985 1049 840 1179 q 864 1014 949 1017 q 693 1093 767 1072 q 564 1032 656 1079 q 497 999 514 1006 z "},"Ȕ":{"ha":940,"x_min":139,"x_max":1035,"o":"m 468 -12 q 221 53 300 -12 q 142 251 142 119 q 153 360 142 297 l 213 696 q 221 768 221 742 q 205 815 221 801 q 144 835 189 828 q 139 893 139 868 q 143 943 139 918 q 376 939 211 939 q 615 943 533 939 q 596 835 615 888 q 538 818 556 831 q 510 775 519 806 q 486 668 500 744 l 432 369 q 419 253 419 303 q 535 100 419 100 q 670 171 621 100 q 742 371 719 242 l 793 663 q 807 772 807 749 q 794 815 807 804 q 742 835 781 825 q 736 892 736 871 q 740 943 736 917 q 890 939 800 939 q 1035 943 985 939 q 1015 835 1032 882 q 956 818 974 829 q 928 772 939 807 q 901 647 917 738 l 856 385 q 785 152 829 238 q 665 27 740 67 q 468 -12 589 -12 m 764 1056 q 685 1178 719 1129 q 797 1192 736 1192 q 868 1186 839 1192 q 935 1006 894 1079 q 856 999 893 999 q 797 1003 828 999 l 764 1056 m 492 1040 q 392 1172 443 1110 q 524 1190 444 1190 q 590 1186 560 1190 q 657 1006 617 1079 q 578 999 615 999 q 519 1003 550 999 l 492 1040 z "},"Ü":{"ha":940,"x_min":139,"x_max":1035,"o":"m 468 -12 q 221 53 300 -12 q 142 251 142 119 q 153 360 142 297 l 213 696 q 221 768 221 742 q 205 815 221 801 q 144 835 189 828 q 139 893 139 868 q 143 943 139 918 q 376 939 211 939 q 615 943 533 939 q 596 835 615 888 q 538 818 556 831 q 510 775 519 806 q 486 668 500 744 l 432 369 q 419 253 419 303 q 535 100 419 100 q 670 171 621 100 q 742 371 719 242 l 793 663 q 807 772 807 749 q 794 815 807 804 q 742 835 781 825 q 736 892 736 871 q 740 943 736 917 q 890 939 800 939 q 1035 943 985 939 q 1015 835 1032 882 q 956 818 974 829 q 928 772 939 807 q 901 647 917 738 l 856 385 q 785 152 829 238 q 665 27 740 67 q 468 -12 589 -12 m 536 999 q 442 1032 476 999 q 408 1122 408 1065 q 525 1236 408 1236 q 618 1205 583 1236 q 653 1119 653 1174 q 624 1030 653 1061 q 536 999 594 999 m 865 997 q 769 1030 803 997 q 735 1119 735 1063 q 860 1236 735 1236 q 952 1204 918 1236 q 986 1115 986 1172 q 865 997 986 997 z "},"Ǘ":{"ha":940,"x_min":139,"x_max":1035,"o":"m 468 -12 q 221 53 300 -12 q 142 251 142 119 q 153 360 142 297 l 213 696 q 221 768 221 742 q 205 815 221 801 q 144 835 189 828 q 139 893 139 868 q 143 943 139 918 q 376 939 211 939 q 615 943 533 939 q 596 835 615 888 q 538 818 556 831 q 510 775 519 806 q 486 668 500 744 l 432 369 q 419 253 419 303 q 535 100 419 100 q 670 171 621 100 q 742 371 719 242 l 793 663 q 807 772 807 749 q 794 815 807 804 q 742 835 781 825 q 736 892 736 871 q 740 943 736 917 q 890 939 800 939 q 1035 943 985 939 q 1015 835 1032 882 q 956 818 974 829 q 928 772 939 807 q 901 647 917 738 l 856 385 q 785 152 829 238 q 665 27 740 67 q 468 -12 589 -12 m 536 999 q 442 1032 476 999 q 408 1122 408 1065 q 525 1236 408 1236 q 618 1205 583 1236 q 653 1119 653 1174 q 624 1030 653 1061 q 536 999 594 999 m 865 997 q 769 1030 803 997 q 735 1119 735 1063 q 860 1236 735 1236 q 952 1204 918 1236 q 986 1115 986 1172 q 865 997 986 997 m 733 1272 q 600 1321 658 1282 q 660 1402 631 1353 q 703 1483 690 1451 q 765 1486 744 1486 q 864 1479 818 1486 q 938 1460 910 1472 q 733 1272 783 1321 z "},"Ǚ":{"ha":940,"x_min":139,"x_max":1035,"o":"m 468 -12 q 221 53 300 -12 q 142 251 142 119 q 153 360 142 297 l 213 696 q 221 768 221 742 q 205 815 221 801 q 144 835 189 828 q 139 893 139 868 q 143 943 139 918 q 376 939 211 939 q 615 943 533 939 q 596 835 615 888 q 538 818 556 831 q 510 775 519 806 q 486 668 500 744 l 432 369 q 419 253 419 303 q 535 100 419 100 q 670 171 621 100 q 742 371 719 242 l 793 663 q 807 772 807 749 q 794 815 807 804 q 742 835 781 825 q 736 892 736 871 q 740 943 736 917 q 890 939 800 939 q 1035 943 985 939 q 1015 835 1032 882 q 956 818 974 829 q 928 772 939 807 q 901 647 917 738 l 856 385 q 785 152 829 238 q 665 27 740 67 q 468 -12 589 -12 m 536 999 q 442 1032 476 999 q 408 1122 408 1065 q 525 1236 408 1236 q 618 1205 583 1236 q 653 1119 653 1174 q 624 1030 653 1061 q 536 999 594 999 m 865 997 q 769 1030 803 997 q 735 1119 735 1063 q 860 1236 735 1236 q 952 1204 918 1236 q 986 1115 986 1172 q 865 997 986 997 m 654 1264 q 571 1339 615 1304 q 467 1417 526 1374 q 575 1497 496 1493 q 747 1425 647 1457 q 836 1453 789 1432 q 940 1504 883 1474 q 986 1472 965 1496 q 1018 1419 1007 1449 q 779 1281 872 1339 q 689 1263 743 1263 q 654 1264 665 1263 z "},"Ǜ":{"ha":940,"x_min":139,"x_max":1035,"o":"m 468 -12 q 221 53 300 -12 q 142 251 142 119 q 153 360 142 297 l 213 696 q 221 768 221 742 q 205 815 221 801 q 144 835 189 828 q 139 893 139 868 q 143 943 139 918 q 376 939 211 939 q 615 943 533 939 q 596 835 615 888 q 538 818 556 831 q 510 775 519 806 q 486 668 500 744 l 432 369 q 419 253 419 303 q 535 100 419 100 q 670 171 621 100 q 742 371 719 242 l 793 663 q 807 772 807 749 q 794 815 807 804 q 742 835 781 825 q 736 892 736 871 q 740 943 736 917 q 890 939 800 939 q 1035 943 985 939 q 1015 835 1032 882 q 956 818 974 829 q 928 772 939 807 q 901 647 917 738 l 856 385 q 785 152 829 238 q 665 27 740 67 q 468 -12 589 -12 m 536 999 q 442 1032 476 999 q 408 1122 408 1065 q 525 1236 408 1236 q 618 1205 583 1236 q 653 1119 653 1174 q 624 1030 653 1061 q 536 999 594 999 m 865 997 q 769 1030 803 997 q 735 1119 735 1063 q 860 1236 735 1236 q 952 1204 918 1236 q 986 1115 986 1172 q 865 997 986 997 m 814 1283 q 736 1275 783 1275 q 653 1285 683 1275 q 595 1364 635 1315 q 519 1446 556 1413 q 675 1465 600 1465 q 744 1461 708 1465 q 774 1369 756 1418 q 814 1283 793 1319 z "},"Ǖ":{"ha":940,"x_min":139,"x_max":1035,"o":"m 468 -12 q 221 53 300 -12 q 142 251 142 119 q 153 360 142 297 l 213 696 q 221 768 221 742 q 205 815 221 801 q 144 835 189 828 q 139 893 139 868 q 143 943 139 918 q 376 939 211 939 q 615 943 533 939 q 596 835 615 888 q 538 818 556 831 q 510 775 519 806 q 486 668 500 744 l 432 369 q 419 253 419 303 q 535 100 419 100 q 670 171 621 100 q 742 371 719 242 l 793 663 q 807 772 807 749 q 794 815 807 804 q 742 835 781 825 q 736 892 736 871 q 740 943 736 917 q 890 939 800 939 q 1035 943 985 939 q 1015 835 1032 882 q 956 818 974 829 q 928 772 939 807 q 901 647 917 738 l 856 385 q 785 152 829 238 q 665 27 740 67 q 468 -12 589 -12 m 536 999 q 442 1032 476 999 q 408 1122 408 1065 q 525 1236 408 1236 q 618 1205 583 1236 q 653 1119 653 1174 q 624 1030 653 1061 q 536 999 594 999 m 865 997 q 769 1030 803 997 q 735 1119 735 1063 q 860 1236 735 1236 q 952 1204 918 1236 q 986 1115 986 1172 q 865 997 986 997 m 481 1319 q 493 1410 481 1376 l 996 1410 q 983 1329 996 1365 q 481 1319 706 1329 z "},"Ụ":{"ha":940,"x_min":139,"x_max":1035,"o":"m 468 -12 q 221 53 300 -12 q 142 251 142 119 q 153 360 142 297 l 213 696 q 221 768 221 742 q 205 815 221 801 q 144 835 189 828 q 139 893 139 868 q 143 943 139 918 q 376 939 211 939 q 615 943 533 939 q 596 835 615 888 q 538 818 556 831 q 510 775 519 806 q 486 668 500 744 l 432 369 q 419 253 419 303 q 535 100 419 100 q 670 171 621 100 q 742 371 719 242 l 793 663 q 807 772 807 749 q 794 815 807 804 q 742 835 781 825 q 736 892 736 871 q 740 943 736 917 q 890 939 800 939 q 1035 943 985 939 q 1015 835 1032 882 q 956 818 974 829 q 928 772 939 807 q 901 647 917 738 l 856 385 q 785 152 829 238 q 665 27 740 67 q 468 -12 589 -12 m 444 -343 q 344 -314 379 -343 q 310 -236 310 -285 q 313 -210 310 -229 q 367 -122 324 -151 q 475 -93 411 -93 q 575 -123 542 -93 q 608 -203 608 -153 q 563 -308 608 -272 q 444 -343 517 -343 z "},"Ù":{"ha":940,"x_min":139,"x_max":1035,"o":"m 468 -12 q 221 53 300 -12 q 142 251 142 119 q 153 360 142 297 l 213 696 q 221 768 221 742 q 205 815 221 801 q 144 835 189 828 q 139 893 139 868 q 143 943 139 918 q 376 939 211 939 q 615 943 533 939 q 596 835 615 888 q 538 818 556 831 q 510 775 519 806 q 486 668 500 744 l 432 369 q 419 253 419 303 q 535 100 419 100 q 670 171 621 100 q 742 371 719 242 l 793 663 q 807 772 807 749 q 794 815 807 804 q 742 835 781 825 q 736 892 736 871 q 740 943 736 917 q 890 939 800 939 q 1035 943 985 939 q 1015 835 1032 882 q 956 818 974 829 q 928 772 939 807 q 901 647 917 738 l 856 385 q 785 152 829 238 q 665 27 740 67 q 468 -12 589 -12 m 771 1028 q 693 1019 740 1019 q 610 1029 640 1019 q 552 1108 592 1060 q 476 1190 513 1157 q 632 1210 557 1210 q 701 1206 665 1210 q 731 1113 713 1163 q 771 1028 750 1064 z "},"Ủ":{"ha":940,"x_min":139,"x_max":1035,"o":"m 468 -12 q 221 53 300 -12 q 142 251 142 119 q 153 360 142 297 l 213 696 q 221 768 221 742 q 205 815 221 801 q 144 835 189 828 q 139 893 139 868 q 143 943 139 918 q 376 939 211 939 q 615 943 533 939 q 596 835 615 888 q 538 818 556 831 q 510 775 519 806 q 486 668 500 744 l 432 369 q 419 253 419 303 q 535 100 419 100 q 670 171 621 100 q 742 371 719 242 l 793 663 q 807 772 807 749 q 794 815 807 804 q 742 835 781 825 q 736 892 736 871 q 740 943 736 917 q 890 939 800 939 q 1035 943 985 939 q 1015 835 1032 882 q 956 818 974 829 q 928 772 939 807 q 901 647 917 738 l 856 385 q 785 152 829 238 q 665 27 740 67 q 468 -12 589 -12 m 629 1004 q 625 1031 625 1015 q 628 1051 625 1038 q 647 1088 633 1075 q 688 1114 661 1100 q 731 1150 722 1132 q 735 1164 735 1158 q 724 1182 735 1175 q 699 1189 714 1189 q 628 1111 647 1189 q 601 1110 619 1110 q 531 1124 557 1110 q 551 1222 549 1169 q 633 1247 586 1238 q 728 1257 681 1257 q 833 1236 797 1257 q 868 1178 868 1215 q 863 1147 868 1163 q 834 1101 853 1117 q 783 1065 815 1085 q 751 1044 763 1053 q 735 1022 739 1035 q 733 996 729 1007 q 699 993 714 993 q 629 1004 656 993 z "},"Ư":{"ha":1024,"x_min":139,"x_max":1203,"o":"m 1181 1103 q 1203 1026 1203 1075 q 1144 895 1203 950 q 994 832 1085 840 q 950 813 965 826 q 925 764 935 799 q 901 647 915 729 l 856 385 q 785 152 829 238 q 665 27 740 67 q 468 -12 589 -12 q 221 53 300 -12 q 142 251 142 119 q 153 360 142 297 l 213 696 q 221 768 221 742 q 205 815 221 801 q 144 835 189 828 q 139 893 139 868 q 143 943 139 918 q 376 939 211 939 q 615 943 533 939 q 596 835 615 888 q 538 818 556 831 q 510 775 519 806 q 486 668 500 744 l 432 369 q 419 253 419 303 q 535 100 419 100 q 670 171 621 100 q 742 371 719 242 l 793 663 q 807 772 807 749 q 794 815 807 804 q 742 835 781 825 q 736 892 736 871 q 740 943 736 917 q 890 939 800 939 l 922 939 q 1000 958 976 940 q 1031 1011 1024 975 q 1035 1057 1035 1028 q 1032 1085 1035 1068 q 1143 1104 1082 1104 q 1181 1103 1168 1104 z "},"Ứ":{"ha":1024,"x_min":139,"x_max":1203,"o":"m 1181 1103 q 1203 1026 1203 1075 q 1144 895 1203 950 q 994 832 1085 840 q 950 813 965 826 q 925 764 935 799 q 901 647 915 729 l 856 385 q 785 152 829 238 q 665 27 740 67 q 468 -12 589 -12 q 221 53 300 -12 q 142 251 142 119 q 153 360 142 297 l 213 696 q 221 768 221 742 q 205 815 221 801 q 144 835 189 828 q 139 893 139 868 q 143 943 139 918 q 376 939 211 939 q 615 943 533 939 q 596 835 615 888 q 538 818 556 831 q 510 775 519 806 q 486 668 500 744 l 432 369 q 419 253 419 303 q 535 100 419 100 q 670 171 621 100 q 742 371 719 242 l 793 663 q 807 772 807 749 q 794 815 807 804 q 742 835 781 825 q 736 892 736 871 q 740 943 736 917 q 890 939 800 939 l 922 939 q 1000 958 976 940 q 1031 1011 1024 975 q 1035 1057 1035 1028 q 1032 1085 1035 1068 q 1143 1104 1082 1104 q 1181 1103 1168 1104 m 690 1017 q 557 1065 615 1026 q 617 1147 588 1097 q 660 1228 647 1196 q 722 1231 701 1231 q 821 1224 775 1231 q 894 1204 867 1217 q 690 1017 740 1065 z "},"Ự":{"ha":1024,"x_min":139,"x_max":1203,"o":"m 1181 1103 q 1203 1026 1203 1075 q 1144 895 1203 950 q 994 832 1085 840 q 950 813 965 826 q 925 764 935 799 q 901 647 915 729 l 856 385 q 785 152 829 238 q 665 27 740 67 q 468 -12 589 -12 q 221 53 300 -12 q 142 251 142 119 q 153 360 142 297 l 213 696 q 221 768 221 742 q 205 815 221 801 q 144 835 189 828 q 139 893 139 868 q 143 943 139 918 q 376 939 211 939 q 615 943 533 939 q 596 835 615 888 q 538 818 556 831 q 510 775 519 806 q 486 668 500 744 l 432 369 q 419 253 419 303 q 535 100 419 100 q 670 171 621 100 q 742 371 719 242 l 793 663 q 807 772 807 749 q 794 815 807 804 q 742 835 781 825 q 736 892 736 871 q 740 943 736 917 q 890 939 800 939 l 922 939 q 1000 958 976 940 q 1031 1011 1024 975 q 1035 1057 1035 1028 q 1032 1085 1035 1068 q 1143 1104 1082 1104 q 1181 1103 1168 1104 m 444 -343 q 344 -314 379 -343 q 310 -236 310 -285 q 313 -210 310 -229 q 367 -122 324 -151 q 475 -93 411 -93 q 575 -123 542 -93 q 608 -203 608 -153 q 563 -308 608 -272 q 444 -343 517 -343 z "},"Ừ":{"ha":1024,"x_min":139,"x_max":1203,"o":"m 1181 1103 q 1203 1026 1203 1075 q 1144 895 1203 950 q 994 832 1085 840 q 950 813 965 826 q 925 764 935 799 q 901 647 915 729 l 856 385 q 785 152 829 238 q 665 27 740 67 q 468 -12 589 -12 q 221 53 300 -12 q 142 251 142 119 q 153 360 142 297 l 213 696 q 221 768 221 742 q 205 815 221 801 q 144 835 189 828 q 139 893 139 868 q 143 943 139 918 q 376 939 211 939 q 615 943 533 939 q 596 835 615 888 q 538 818 556 831 q 510 775 519 806 q 486 668 500 744 l 432 369 q 419 253 419 303 q 535 100 419 100 q 670 171 621 100 q 742 371 719 242 l 793 663 q 807 772 807 749 q 794 815 807 804 q 742 835 781 825 q 736 892 736 871 q 740 943 736 917 q 890 939 800 939 l 922 939 q 1000 958 976 940 q 1031 1011 1024 975 q 1035 1057 1035 1028 q 1032 1085 1035 1068 q 1143 1104 1082 1104 q 1181 1103 1168 1104 m 771 1028 q 693 1019 740 1019 q 610 1029 640 1019 q 552 1108 592 1060 q 476 1190 513 1157 q 632 1210 557 1210 q 701 1206 665 1210 q 731 1113 713 1163 q 771 1028 750 1064 z "},"Ử":{"ha":1024,"x_min":139,"x_max":1203,"o":"m 1181 1103 q 1203 1026 1203 1075 q 1144 895 1203 950 q 994 832 1085 840 q 950 813 965 826 q 925 764 935 799 q 901 647 915 729 l 856 385 q 785 152 829 238 q 665 27 740 67 q 468 -12 589 -12 q 221 53 300 -12 q 142 251 142 119 q 153 360 142 297 l 213 696 q 221 768 221 742 q 205 815 221 801 q 144 835 189 828 q 139 893 139 868 q 143 943 139 918 q 376 939 211 939 q 615 943 533 939 q 596 835 615 888 q 538 818 556 831 q 510 775 519 806 q 486 668 500 744 l 432 369 q 419 253 419 303 q 535 100 419 100 q 670 171 621 100 q 742 371 719 242 l 793 663 q 807 772 807 749 q 794 815 807 804 q 742 835 781 825 q 736 892 736 871 q 740 943 736 917 q 890 939 800 939 l 922 939 q 1000 958 976 940 q 1031 1011 1024 975 q 1035 1057 1035 1028 q 1032 1085 1035 1068 q 1143 1104 1082 1104 q 1181 1103 1168 1104 m 629 1004 q 625 1031 625 1015 q 628 1051 625 1038 q 647 1088 633 1075 q 688 1114 661 1100 q 731 1150 722 1132 q 735 1164 735 1158 q 724 1182 735 1175 q 699 1189 714 1189 q 628 1111 647 1189 q 601 1110 619 1110 q 531 1124 557 1110 q 551 1222 549 1169 q 633 1247 586 1238 q 728 1257 681 1257 q 833 1236 797 1257 q 868 1178 868 1215 q 863 1147 868 1163 q 834 1101 853 1117 q 783 1065 815 1085 q 751 1044 763 1053 q 735 1022 739 1035 q 733 996 729 1007 q 699 993 714 993 q 629 1004 656 993 z "},"Ữ":{"ha":1024,"x_min":139,"x_max":1203,"o":"m 1181 1103 q 1203 1026 1203 1075 q 1144 895 1203 950 q 994 832 1085 840 q 950 813 965 826 q 925 764 935 799 q 901 647 915 729 l 856 385 q 785 152 829 238 q 665 27 740 67 q 468 -12 589 -12 q 221 53 300 -12 q 142 251 142 119 q 153 360 142 297 l 213 696 q 221 768 221 742 q 205 815 221 801 q 144 835 189 828 q 139 893 139 868 q 143 943 139 918 q 376 939 211 939 q 615 943 533 939 q 596 835 615 888 q 538 818 556 831 q 510 775 519 806 q 486 668 500 744 l 432 369 q 419 253 419 303 q 535 100 419 100 q 670 171 621 100 q 742 371 719 242 l 793 663 q 807 772 807 749 q 794 815 807 804 q 742 835 781 825 q 736 892 736 871 q 740 943 736 917 q 890 939 800 939 l 922 939 q 1000 958 976 940 q 1031 1011 1024 975 q 1035 1057 1035 1028 q 1032 1085 1035 1068 q 1143 1104 1082 1104 q 1181 1103 1168 1104 m 753 1021 q 691 1031 714 1021 q 639 1060 668 1040 q 606 1081 621 1074 q 569 1089 590 1089 q 508 1071 538 1089 q 446 1022 478 1053 q 419 1072 428 1049 q 411 1124 411 1094 q 413 1149 411 1139 q 516 1213 458 1193 q 624 1233 574 1233 q 685 1224 660 1233 q 740 1196 711 1214 q 781 1176 765 1182 q 814 1169 796 1169 q 869 1188 843 1169 q 913 1232 894 1206 q 993 1160 969 1207 q 884 1056 946 1092 q 753 1021 822 1021 z "}}}
